{
	"patcher" : 	{
		"fileversion" : 1,
		"appversion" : 		{
			"major" : 8,
			"minor" : 1,
			"revision" : 1,
			"architecture" : "x64",
			"modernui" : 1
		}
,
		"classnamespace" : "box",
		"rect" : [ 435.0, 85.0, 771.0, 777.0 ],
		"bglocked" : 0,
		"openinpresentation" : 1,
		"default_fontsize" : 12.0,
		"default_fontface" : 0,
		"default_fontname" : "Arial",
		"gridonopen" : 1,
		"gridsize" : [ 15.0, 15.0 ],
		"gridsnaponopen" : 1,
		"objectsnaponopen" : 1,
		"statusbarvisible" : 2,
		"toolbarvisible" : 1,
		"lefttoolbarpinned" : 0,
		"toptoolbarpinned" : 0,
		"righttoolbarpinned" : 0,
		"bottomtoolbarpinned" : 0,
		"toolbars_unpinned_last_save" : 0,
		"tallnewobj" : 0,
		"boxanimatetime" : 200,
		"enablehscroll" : 1,
		"enablevscroll" : 1,
		"devicewidth" : 0.0,
		"description" : "",
		"digest" : "",
		"tags" : "",
		"style" : "",
		"subpatcher_template" : "",
		"boxes" : [ 			{
				"box" : 				{
					"id" : "obj-83",
					"maxclass" : "newobj",
					"numinlets" : 1,
					"numoutlets" : 1,
					"outlettype" : [ "" ],
					"patching_rect" : [ 863.25, 438.0, 336.0, 22.0 ],
					"text" : "sprintf script sendbox mixer replace grv_chan_%s_bp.maxpat"
				}

			}
, 			{
				"box" : 				{
					"fontsize" : 11.0,
					"id" : "obj-82",
					"maxclass" : "comment",
					"numinlets" : 1,
					"numoutlets" : 0,
					"patching_rect" : [ 938.25, 308.0, 28.0, 19.0 ],
					"presentation" : 1,
					"presentation_rect" : [ 318.0, 12.0, 23.0, 19.0 ],
					"text" : "=>",
					"textcolor" : [ 0.717647058823529, 0.698039215686274, 0.698039215686274, 1.0 ],
					"textjustification" : 1
				}

			}
, 			{
				"box" : 				{
					"fontsize" : 11.0,
					"id" : "obj-81",
					"items" : [ "karma", ",", "plugin" ],
					"maxclass" : "umenu",
					"numinlets" : 1,
					"numoutlets" : 3,
					"outlettype" : [ "int", "", "" ],
					"parameter_enable" : 0,
					"patching_rect" : [ 863.25, 400.0, 62.0, 21.0 ],
					"presentation" : 1,
					"presentation_rect" : [ 347.0, 12.0, 61.0, 21.0 ]
				}

			}
, 			{
				"box" : 				{
					"fontsize" : 11.0,
					"id" : "obj-80",
					"maxclass" : "comment",
					"numinlets" : 1,
					"numoutlets" : 0,
					"patching_rect" : [ 938.25, 222.0, 29.0, 19.0 ],
					"presentation" : 1,
					"presentation_rect" : [ 238.0, 12.0, 18.0, 19.0 ],
					"text" : "+",
					"textcolor" : [ 0.717647058823529, 0.698039215686274, 0.698039215686274, 1.0 ],
					"textjustification" : 1
				}

			}
, 			{
				"box" : 				{
					"fontsize" : 11.0,
					"id" : "obj-76",
					"maxclass" : "comment",
					"numinlets" : 1,
					"numoutlets" : 0,
					"patching_rect" : [ 935.75, 135.0, 31.0, 19.0 ],
					"presentation" : 1,
					"presentation_rect" : [ 158.0, 12.0, 18.0, 19.0 ],
					"text" : "+",
					"textcolor" : [ 0.717647058823529, 0.698039215686274, 0.698039215686274, 1.0 ],
					"textjustification" : 1
				}

			}
, 			{
				"box" : 				{
					"fontsize" : 11.0,
					"id" : "obj-72",
					"maxclass" : "comment",
					"numinlets" : 1,
					"numoutlets" : 0,
					"patching_rect" : [ 935.75, 55.5, 34.0, 19.0 ],
					"presentation" : 1,
					"presentation_rect" : [ 78.0, 12.0, 18.0, 19.0 ],
					"text" : "+",
					"textcolor" : [ 0.717647058823529, 0.698039215686274, 0.698039215686274, 1.0 ],
					"textjustification" : 1
				}

			}
, 			{
				"box" : 				{
					"color" : [ 0.317647, 0.654902, 0.976471, 1.0 ],
					"id" : "obj-71",
					"maxclass" : "newobj",
					"numinlets" : 0,
					"numoutlets" : 1,
					"outlettype" : [ "" ],
					"patching_rect" : [ 863.0, 656.0, 77.0, 22.0 ],
					"text" : "r get_plugins"
				}

			}
, 			{
				"box" : 				{
					"id" : "obj-68",
					"maxclass" : "newobj",
					"numinlets" : 1,
					"numoutlets" : 1,
					"outlettype" : [ "bang" ],
					"patching_rect" : [ 839.0, 629.0, 58.0, 22.0 ],
					"text" : "loadbang"
				}

			}
, 			{
				"box" : 				{
					"id" : "obj-69",
					"linecount" : 2,
					"maxclass" : "comment",
					"numinlets" : 1,
					"numoutlets" : 0,
					"patching_rect" : [ 832.5, 590.0, 85.0, 33.0 ],
					"text" : "global scan for au plugins"
				}

			}
, 			{
				"box" : 				{
					"button" : 1,
					"fontface" : 0,
					"gradient" : 0.2,
					"id" : "obj-42",
					"maxclass" : "tab",
					"mode" : 1,
					"multiline" : 0,
					"numinlets" : 1,
					"numoutlets" : 3,
					"outlettype" : [ "int", "", "" ],
					"parameter_enable" : 0,
					"patching_rect" : [ 950.25, 515.0, 46.0, 24.0 ],
					"presentation" : 1,
					"presentation_rect" : [ 426.0, 12.0, 47.0, 22.0 ],
					"rounded" : 0.0,
					"segmented" : 1,
					"tabcolor" : [ 0.23921568627451, 0.23921568627451, 0.23921568627451, 1.0 ],
					"tabs" : [ "=", "|", "?" ],
					"textcolor" : [ 0.847058823529412, 0.847058823529412, 0.847058823529412, 1.0 ]
				}

			}
, 			{
				"box" : 				{
					"id" : "obj-79",
					"maxclass" : "newobj",
					"numinlets" : 1,
					"numoutlets" : 1,
					"outlettype" : [ "" ],
					"patching_rect" : [ 1025.0, 796.0, 70.0, 22.0 ],
					"text" : "loadmess 0"
				}

			}
, 			{
				"box" : 				{
					"id" : "obj-78",
					"maxclass" : "message",
					"numinlets" : 2,
					"numoutlets" : 1,
					"outlettype" : [ "" ],
					"patching_rect" : [ 993.5, 951.166625999999951, 40.0, 22.0 ],
					"text" : "lock 1"
				}

			}
, 			{
				"box" : 				{
					"id" : "obj-77",
					"maxclass" : "message",
					"numinlets" : 2,
					"numoutlets" : 1,
					"outlettype" : [ "" ],
					"patching_rect" : [ 926.0, 979.0, 40.0, 22.0 ],
					"text" : "lock 0"
				}

			}
, 			{
				"box" : 				{
					"id" : "obj-75",
					"maxclass" : "newobj",
					"numinlets" : 1,
					"numoutlets" : 4,
					"outlettype" : [ "bang", "bang", "int", "int" ],
					"patching_rect" : [ 1025.0, 858.5, 50.5, 22.0 ],
					"text" : "t b b i i"
				}

			}
, 			{
				"box" : 				{
					"id" : "obj-74",
					"maxclass" : "newobj",
					"numinlets" : 2,
					"numoutlets" : 1,
					"outlettype" : [ "bang" ],
					"patching_rect" : [ 926.0, 951.166625999999951, 61.0, 22.0 ],
					"text" : "delay 500"
				}

			}
, 			{
				"box" : 				{
					"id" : "obj-70",
					"maxclass" : "textbutton",
					"mode" : 1,
					"numinlets" : 1,
					"numoutlets" : 3,
					"outlettype" : [ "", "", "int" ],
					"parameter_enable" : 0,
					"patching_rect" : [ 1025.0, 826.0, 62.0, 23.0 ],
					"presentation" : 1,
					"presentation_rect" : [ 535.0, 12.0, 36.0, 22.0 ],
					"text" : "sync",
					"texton" : "sync"
				}

			}
, 			{
				"box" : 				{
					"bgcolor" : [ 0.701961, 0.415686, 0.886275, 1.0 ],
					"id" : "obj-50",
					"maxclass" : "newobj",
					"numinlets" : 1,
					"numoutlets" : 0,
					"patching_rect" : [ 993.5, 1025.474365234375, 73.0, 22.0 ],
					"text" : "s grv_global"
				}

			}
, 			{
				"box" : 				{
					"id" : "obj-53",
					"maxclass" : "message",
					"numinlets" : 2,
					"numoutlets" : 1,
					"outlettype" : [ "" ],
					"patching_rect" : [ 1047.0, 951.166625999999951, 84.0, 22.0 ],
					"text" : "timestretch $1"
				}

			}
, 			{
				"box" : 				{
					"id" : "obj-55",
					"maxclass" : "message",
					"numinlets" : 2,
					"numoutlets" : 1,
					"outlettype" : [ "" ],
					"patching_rect" : [ 1080.0, 921.166625999999951, 121.0, 22.0 ],
					"text" : "followglobaltempo $1"
				}

			}
, 			{
				"box" : 				{
					"fontface" : 1,
					"id" : "obj-67",
					"maxclass" : "textbutton",
					"numinlets" : 1,
					"numoutlets" : 3,
					"outlettype" : [ "", "", "int" ],
					"parameter_enable" : 0,
					"patching_rect" : [ 177.141666666666652, 978.0, 38.0, 23.25 ],
					"text" : "<<",
					"texton" : "<<"
				}

			}
, 			{
				"box" : 				{
					"fontface" : 1,
					"id" : "obj-65",
					"maxclass" : "textbutton",
					"mode" : 1,
					"numinlets" : 1,
					"numoutlets" : 3,
					"outlettype" : [ "", "", "int" ],
					"parameter_enable" : 0,
					"patching_rect" : [ 134.391666666666652, 978.0, 38.0, 23.25 ],
					"presentation" : 1,
					"presentation_rect" : [ 573.0, 12.0, 35.0, 22.0 ],
					"text" : ">",
					"texton" : ">"
				}

			}
, 			{
				"box" : 				{
					"id" : "obj-64",
					"maxclass" : "newobj",
					"numinlets" : 1,
					"numoutlets" : 1,
					"outlettype" : [ "" ],
					"patching_rect" : [ 73.391666666666652, 946.0, 82.0, 22.0 ],
					"text" : "loadmess 115"
				}

			}
, 			{
				"box" : 				{
					"id" : "obj-63",
					"maxclass" : "message",
					"numinlets" : 2,
					"numoutlets" : 1,
					"outlettype" : [ "" ],
					"patching_rect" : [ 73.391666666666652, 1006.0, 59.0, 22.0 ],
					"text" : "tempo $1"
				}

			}
, 			{
				"box" : 				{
					"id" : "obj-58",
					"maxclass" : "number",
					"numinlets" : 1,
					"numoutlets" : 2,
					"outlettype" : [ "", "bang" ],
					"parameter_enable" : 0,
					"patching_rect" : [ 73.391666666666652, 978.0, 50.0, 22.0 ],
					"presentation" : 1,
					"presentation_rect" : [ 491.0, 12.0, 42.0, 22.0 ]
				}

			}
, 			{
				"box" : 				{
					"id" : "obj-41",
					"maxclass" : "message",
					"numinlets" : 2,
					"numoutlets" : 1,
					"outlettype" : [ "" ],
					"patching_rect" : [ 185.641666666666652, 1006.0, 29.5, 22.0 ],
					"text" : "0."
				}

			}
, 			{
				"box" : 				{
					"id" : "obj-49",
					"maxclass" : "newobj",
					"numinlets" : 2,
					"numoutlets" : 9,
					"outlettype" : [ "int", "int", "float", "float", "float", "", "int", "float", "" ],
					"patching_rect" : [ 73.391666666666652, 1051.0, 103.0, 22.0 ],
					"text" : "transport"
				}

			}
, 			{
				"box" : 				{
					"id" : "obj-66",
					"maxclass" : "newobj",
					"numinlets" : 4,
					"numoutlets" : 4,
					"outlettype" : [ "bang", "bang", "bang", "" ],
					"patching_rect" : [ 950.25, 561.0, 54.0, 22.0 ],
					"text" : "sel 0 1 2"
				}

			}
, 			{
				"box" : 				{
					"id" : "obj-62",
					"maxclass" : "newobj",
					"numinlets" : 1,
					"numoutlets" : 0,
					"patcher" : 					{
						"fileversion" : 1,
						"appversion" : 						{
							"major" : 8,
							"minor" : 1,
							"revision" : 1,
							"architecture" : "x64",
							"modernui" : 1
						}
,
						"classnamespace" : "box",
						"rect" : [ 155.0, 274.0, 640.0, 480.0 ],
						"bglocked" : 0,
						"openinpresentation" : 1,
						"default_fontsize" : 12.0,
						"default_fontface" : 0,
						"default_fontname" : "Arial",
						"gridonopen" : 1,
						"gridsize" : [ 15.0, 15.0 ],
						"gridsnaponopen" : 1,
						"objectsnaponopen" : 1,
						"statusbarvisible" : 2,
						"toolbarvisible" : 1,
						"lefttoolbarpinned" : 0,
						"toptoolbarpinned" : 0,
						"righttoolbarpinned" : 0,
						"bottomtoolbarpinned" : 0,
						"toolbars_unpinned_last_save" : 0,
						"tallnewobj" : 0,
						"boxanimatetime" : 200,
						"enablehscroll" : 1,
						"enablevscroll" : 1,
						"devicewidth" : 0.0,
						"description" : "",
						"digest" : "",
						"tags" : "",
						"style" : "",
						"subpatcher_template" : "",
						"boxes" : [ 							{
								"box" : 								{
									"id" : "obj-2",
									"linecount" : 3,
									"maxclass" : "textedit",
									"numinlets" : 1,
									"numoutlets" : 4,
									"outlettype" : [ "", "int", "", "" ],
									"parameter_enable" : 0,
									"patching_rect" : [ 163.0, 131.0, 100.0, 50.0 ],
									"presentation" : 1,
									"presentation_linecount" : 3,
									"presentation_rect" : [ 35.5, 37.0, 563.0, 402.0 ],
									"readonly" : 1,
									"text" : "HELP SECTION\n----------------------\n\n"
								}

							}
, 							{
								"box" : 								{
									"comment" : "",
									"id" : "obj-1",
									"index" : 1,
									"maxclass" : "inlet",
									"numinlets" : 0,
									"numoutlets" : 1,
									"outlettype" : [ "" ],
									"patching_rect" : [ 145.0, 75.0, 30.0, 30.0 ]
								}

							}
, 							{
								"box" : 								{
									"id" : "obj-3",
									"maxclass" : "panel",
									"numinlets" : 1,
									"numoutlets" : 0,
									"patching_rect" : [ 127.0, 456.0, 128.0, 128.0 ],
									"presentation" : 1,
									"presentation_rect" : [ -10.0, -7.0, 654.0, 490.0 ]
								}

							}
 ],
						"lines" : [  ]
					}
,
					"patching_rect" : [ 1130.25, 730.0, 71.0, 22.0 ],
					"saved_object_attributes" : 					{
						"description" : "",
						"digest" : "",
						"globalpatchername" : "",
						"tags" : ""
					}
,
					"text" : "p helpsheet"
				}

			}
, 			{
				"box" : 				{
					"id" : "obj-61",
					"maxclass" : "newobj",
					"numinlets" : 1,
					"numoutlets" : 0,
					"patcher" : 					{
						"fileversion" : 1,
						"appversion" : 						{
							"major" : 8,
							"minor" : 1,
							"revision" : 1,
							"architecture" : "x64",
							"modernui" : 1
						}
,
						"classnamespace" : "box",
						"rect" : [ 420.0, 114.0, 509.0, 519.0 ],
						"bglocked" : 0,
						"openinpresentation" : 1,
						"default_fontsize" : 12.0,
						"default_fontface" : 0,
						"default_fontname" : "Arial",
						"gridonopen" : 1,
						"gridsize" : [ 15.0, 15.0 ],
						"gridsnaponopen" : 1,
						"objectsnaponopen" : 1,
						"statusbarvisible" : 2,
						"toolbarvisible" : 1,
						"lefttoolbarpinned" : 0,
						"toptoolbarpinned" : 0,
						"righttoolbarpinned" : 0,
						"bottomtoolbarpinned" : 0,
						"toolbars_unpinned_last_save" : 0,
						"tallnewobj" : 0,
						"boxanimatetime" : 200,
						"enablehscroll" : 1,
						"enablevscroll" : 1,
						"devicewidth" : 0.0,
						"description" : "",
						"digest" : "",
						"tags" : "",
						"style" : "",
						"subpatcher_template" : "",
						"boxes" : [ 							{
								"box" : 								{
									"id" : "obj-1",
									"linecount" : 70,
									"maxclass" : "textedit",
									"numinlets" : 1,
									"numoutlets" : 4,
									"outlettype" : [ "", "int", "", "" ],
									"parameter_enable" : 0,
									"patching_rect" : [ 80.0, 148.0, 100.0, 50.0 ],
									"presentation" : 1,
									"presentation_linecount" : 28,
									"presentation_rect" : [ 31.0, 22.5, 447.0, 474.0 ],
									"readonly" : 1,
									"text" : "# Groovin v0.55\n\n## Overview\n\nA Max/Msp 4+1 channel looper with overdubbing based on groove~ msp object and the karma~, spindrift~ and gigaverb~ externals.\n\nDeveloped on Max 8 and currently OS X only (64-bit).\n\nPlease note that it assumes that you have a set of sample files (..wav or .aif) in `~/Music/samples`.\n\n\n\n## Externals\n\nThis project uses the following externals (OS X 64-bit):\n\n- [karma~](https://cycling74.com/tools/karma-samplerlooper-external): for variabile speed overdubbing and looping.\n\n- [spindrift~](http://www.michaelnorris.info/software/spindrift): for granular synthesis experimentation. \n\n- gigaverb, or more precisely, V. Boehm's [64-bit version](https://github.com/v7b1/gigaverb) of the original by Olaf Matthes implementated by Juhana Sadeharju), for reverb.\n\n"
								}

							}
, 							{
								"box" : 								{
									"comment" : "",
									"id" : "obj-5",
									"index" : 1,
									"maxclass" : "inlet",
									"numinlets" : 0,
									"numoutlets" : 1,
									"outlettype" : [ "" ],
									"patching_rect" : [ 111.0, 96.0, 30.0, 30.0 ]
								}

							}
, 							{
								"box" : 								{
									"id" : "obj-2",
									"maxclass" : "panel",
									"numinlets" : 1,
									"numoutlets" : 0,
									"patching_rect" : [ 13.0, 19.0, 128.0, 128.0 ],
									"presentation" : 1,
									"presentation_rect" : [ -1.0, -1.0, 511.0, 521.0 ]
								}

							}
 ],
						"lines" : [  ]
					}
,
					"patching_rect" : [ 1040.25, 730.0, 78.0, 22.0 ],
					"saved_object_attributes" : 					{
						"description" : "",
						"digest" : "",
						"globalpatchername" : "",
						"tags" : ""
					}
,
					"text" : "p aboutsheet"
				}

			}
, 			{
				"box" : 				{
					"id" : "obj-56",
					"maxclass" : "message",
					"numinlets" : 2,
					"numoutlets" : 1,
					"outlettype" : [ "" ],
					"patching_rect" : [ 1130.25, 629.0, 35.0, 22.0 ],
					"text" : "open"
				}

			}
, 			{
				"box" : 				{
					"id" : "obj-59",
					"maxclass" : "newobj",
					"numinlets" : 1,
					"numoutlets" : 1,
					"outlettype" : [ "" ],
					"patching_rect" : [ 1130.25, 684.0, 51.0, 22.0 ],
					"text" : "pcontrol"
				}

			}
, 			{
				"box" : 				{
					"id" : "obj-52",
					"maxclass" : "message",
					"numinlets" : 2,
					"numoutlets" : 1,
					"outlettype" : [ "" ],
					"patching_rect" : [ 1040.25, 629.0, 35.0, 22.0 ],
					"text" : "open"
				}

			}
, 			{
				"box" : 				{
					"id" : "obj-54",
					"maxclass" : "newobj",
					"numinlets" : 1,
					"numoutlets" : 1,
					"outlettype" : [ "" ],
					"patching_rect" : [ 1040.25, 684.0, 51.0, 22.0 ],
					"text" : "pcontrol"
				}

			}
, 			{
				"box" : 				{
					"id" : "obj-51",
					"maxclass" : "message",
					"numinlets" : 2,
					"numoutlets" : 1,
					"outlettype" : [ "" ],
					"patching_rect" : [ 950.25, 629.0, 35.0, 22.0 ],
					"text" : "open"
				}

			}
, 			{
				"box" : 				{
					"id" : "obj-48",
					"maxclass" : "newobj",
					"numinlets" : 2,
					"numoutlets" : 0,
					"patcher" : 					{
						"fileversion" : 1,
						"appversion" : 						{
							"major" : 8,
							"minor" : 1,
							"revision" : 1,
							"architecture" : "x64",
							"modernui" : 1
						}
,
						"classnamespace" : "box",
						"rect" : [ 427.0, 90.0, 508.0, 280.0 ],
						"bglocked" : 0,
						"openinpresentation" : 1,
						"default_fontsize" : 12.0,
						"default_fontface" : 0,
						"default_fontname" : "Arial",
						"gridonopen" : 1,
						"gridsize" : [ 15.0, 15.0 ],
						"gridsnaponopen" : 1,
						"objectsnaponopen" : 1,
						"statusbarvisible" : 2,
						"toolbarvisible" : 1,
						"lefttoolbarpinned" : 0,
						"toptoolbarpinned" : 0,
						"righttoolbarpinned" : 0,
						"bottomtoolbarpinned" : 0,
						"toolbars_unpinned_last_save" : 0,
						"tallnewobj" : 0,
						"boxanimatetime" : 200,
						"enablehscroll" : 1,
						"enablevscroll" : 1,
						"devicewidth" : 0.0,
						"description" : "",
						"digest" : "",
						"tags" : "",
						"style" : "",
						"subpatcher_template" : "",
						"boxes" : [ 							{
								"box" : 								{
									"fontname" : "Arial",
									"fontsize" : 13.0,
									"id" : "obj-32",
									"linecount" : 2,
									"maxclass" : "comment",
									"numinlets" : 1,
									"numoutlets" : 0,
									"patching_rect" : [ 406.999999999999886, 117.0, 317.0, 36.0 ],
									"presentation" : 1,
									"presentation_linecount" : 2,
									"presentation_rect" : [ 133.999999999999886, 189.0, 317.0, 36.0 ],
									"text" : "remove the known list and opt-out of the\n scanning (going back to the Max normal behavior)",
									"textcolor" : [ 0.847058823529412, 0.847058823529412, 0.847058823529412, 1.0 ]
								}

							}
, 							{
								"box" : 								{
									"fontname" : "Arial",
									"fontsize" : 13.0,
									"id" : "obj-13",
									"maxclass" : "comment",
									"numinlets" : 1,
									"numoutlets" : 0,
									"patching_rect" : [ 406.999999999999886, 13.0, 293.0, 21.0 ],
									"presentation" : 1,
									"presentation_rect" : [ 133.999999999999886, 69.5, 293.0, 21.0 ],
									"text" : "enable \"normal\" scan mode and initiate a scan",
									"textcolor" : [ 0.847058823529412, 0.847058823529412, 0.847058823529412, 1.0 ]
								}

							}
, 							{
								"box" : 								{
									"fontname" : "Arial",
									"fontsize" : 13.0,
									"id" : "obj-25",
									"maxclass" : "comment",
									"numinlets" : 1,
									"numoutlets" : 0,
									"patching_rect" : [ 406.999999999999886, 82.0, 308.0, 21.0 ],
									"presentation" : 1,
									"presentation_rect" : [ 133.999999999999886, 151.0, 308.0, 21.0 ],
									"text" : "delete the existing known list and do a full rescan",
									"textcolor" : [ 0.847058823529412, 0.847058823529412, 0.847058823529412, 1.0 ]
								}

							}
, 							{
								"box" : 								{
									"id" : "obj-11",
									"maxclass" : "message",
									"numinlets" : 2,
									"numoutlets" : 1,
									"outlettype" : [ "" ],
									"patching_rect" : [ 25.999999999999886, 122.0, 44.0, 22.0 ],
									"presentation" : 1,
									"presentation_rect" : [ 70.999999999999886, 198.0, 44.0, 22.0 ],
									"text" : "scan 3"
								}

							}
, 							{
								"box" : 								{
									"id" : "obj-6",
									"maxclass" : "message",
									"numinlets" : 2,
									"numoutlets" : 1,
									"outlettype" : [ "" ],
									"patching_rect" : [ 89.999999999999886, 122.0, 44.0, 22.0 ],
									"presentation" : 1,
									"presentation_rect" : [ 70.999999999999886, 151.0, 44.0, 22.0 ],
									"text" : "scan 2"
								}

							}
, 							{
								"box" : 								{
									"fontname" : "Arial",
									"fontsize" : 13.0,
									"id" : "obj-4",
									"maxclass" : "comment",
									"numinlets" : 1,
									"numoutlets" : 0,
									"patching_rect" : [ 406.999999999999886, 50.0, 295.0, 21.0 ],
									"presentation" : 1,
									"presentation_rect" : [ 133.999999999999886, 111.0, 295.0, 21.0 ],
									"text" : "un-blacklist any failed plugins and rescan them",
									"textcolor" : [ 0.847058823529412, 0.847058823529412, 0.847058823529412, 1.0 ]
								}

							}
, 							{
								"box" : 								{
									"id" : "obj-3",
									"maxclass" : "message",
									"numinlets" : 2,
									"numoutlets" : 1,
									"outlettype" : [ "" ],
									"patching_rect" : [ 151.999999999999886, 122.0, 44.0, 22.0 ],
									"presentation" : 1,
									"presentation_rect" : [ 70.999999999999886, 111.0, 44.0, 22.0 ],
									"text" : "scan 1"
								}

							}
, 							{
								"box" : 								{
									"id" : "obj-5",
									"maxclass" : "comment",
									"numinlets" : 1,
									"numoutlets" : 0,
									"patching_rect" : [ 214.999999999999886, 452.0, 150.0, 20.0 ],
									"presentation" : 1,
									"presentation_rect" : [ 69.999999999999886, 30.0, 150.0, 20.0 ],
									"text" : "Re-scan audio unit plugins",
									"textcolor" : [ 0.996078431372549, 0.996078431372549, 0.996078431372549, 1.0 ]
								}

							}
, 							{
								"box" : 								{
									"comment" : "",
									"id" : "obj-2",
									"index" : 2,
									"maxclass" : "inlet",
									"numinlets" : 0,
									"numoutlets" : 1,
									"outlettype" : [ "" ],
									"patching_rect" : [ 265.499999999999886, 9.0, 30.0, 30.0 ]
								}

							}
, 							{
								"box" : 								{
									"id" : "obj-14",
									"maxclass" : "newobj",
									"numinlets" : 0,
									"numoutlets" : 1,
									"outlettype" : [ "" ],
									"patching_rect" : [ 216.999999999999886, 478.0, 69.0, 22.0 ],
									"text" : "r plugin_list"
								}

							}
, 							{
								"box" : 								{
									"id" : "obj-12",
									"maxclass" : "newobj",
									"numinlets" : 1,
									"numoutlets" : 0,
									"patching_rect" : [ 214.999999999999886, 393.0, 71.0, 22.0 ],
									"text" : "s plugin_list"
								}

							}
, 							{
								"box" : 								{
									"id" : "obj-7",
									"maxclass" : "newobj",
									"numinlets" : 2,
									"numoutlets" : 2,
									"outlettype" : [ "bang", "" ],
									"patching_rect" : [ 167.999999999999886, 282.0, 37.0, 22.0 ],
									"text" : "sel 1."
								}

							}
, 							{
								"box" : 								{
									"id" : "obj-68",
									"maxclass" : "button",
									"numinlets" : 1,
									"numoutlets" : 1,
									"outlettype" : [ "bang" ],
									"parameter_enable" : 0,
									"patching_rect" : [ 381.999999999999886, 198.0, 24.0, 24.0 ]
								}

							}
, 							{
								"box" : 								{
									"floatoutput" : 1,
									"id" : "obj-64",
									"ignoreclick" : 1,
									"knobshape" : 5,
									"maxclass" : "slider",
									"mult" : 0.01,
									"numinlets" : 1,
									"numoutlets" : 1,
									"outlettype" : [ "" ],
									"parameter_enable" : 0,
									"patching_rect" : [ 313.5, 234.0, 59.999999999999886, 21.0 ],
									"presentation" : 1,
									"presentation_rect" : [ 229.44166666666672, 30.0, 61.999999999999886, 20.0 ],
									"size" : 1.0
								}

							}
, 							{
								"box" : 								{
									"fontsize" : 10.0,
									"id" : "obj-62",
									"maxclass" : "textbutton",
									"numinlets" : 1,
									"numoutlets" : 3,
									"outlettype" : [ "", "", "int" ],
									"parameter_enable" : 0,
									"patching_rect" : [ 265.499999999999886, 84.5, 44.0, 22.0 ],
									"text" : "au",
									"texton" : "au"
								}

							}
, 							{
								"box" : 								{
									"fontsize" : 10.0,
									"id" : "obj-61",
									"maxclass" : "textbutton",
									"numinlets" : 1,
									"numoutlets" : 3,
									"outlettype" : [ "", "", "int" ],
									"parameter_enable" : 0,
									"patching_rect" : [ 25.999999999999886, 84.5, 44.0, 22.0 ],
									"text" : "scan",
									"texton" : "scan"
								}

							}
, 							{
								"box" : 								{
									"fontsize" : 10.0,
									"id" : "obj-8",
									"items" : [ "3-Band EQ", ",", "914 Mk 2", ",", "Alternator", ",", "Array", ",", "AUAudioFilePlayer", ",", "AUBandpass", ",", "AUDelay", ",", "AUDistortion", ",", "AUDynamicsProcessor", ",", "AUFilter", ",", "AUGraphicEQ", ",", "AUHighShelfFilter", ",", "AUHipass", ",", "AULowpass", ",", "AULowShelfFilter", ",", "AUMatrixReverb", ",", "AUMIDISynth", ",", "AUMultibandCompressor", ",", "AUNBandEQ", ",", "AUNetReceive", ",", "AUNetSend", ",", "AUNewPitch", ",", "AUParametricEQ", ",", "AUPeakLimiter", ",", "AUPitch", ",", "AUReverb2", ",", "AURogerBeep", ",", "AURoundTripAAC", ",", "AUSampleDelay", ",", "AUSampler", ",", "AUScheduledSoundPlayer", ",", "AUSoundFieldPanner", ",", "AUSpeechSynthesis", ",", "AUSphericalHeadPanner", ",", "AUVectorPanner", ",", "Axon 2", ",", "Beatformer", ",", "Bidule FX (sidechain)", ",", "Bidule FX", ",", "Bidule MFX", ",", "Bidule", ",", "Big Goat", ",", "Bitcrush", ",", "Blackhole (No MIDI)", ",", "Blackhole", ",", "Blend", ",", "Blindfold EQ", ",", "Blue Face", ",", "Bluejay", ",", "Brusfri", ",", "Captain Beat", ",", "Captain Chords", ",", "Captain Deep", ",", "Captain Melody", ",", "Captain Play", ",", "Carve EQ", ",", "Cassette", ",", "Chorus_Effect", ",", "Clonemeld", ",", "Cloud Machine", ",", "Cluster", ",", "Comb Filter", ",", "Comet", ",", "Compressor", ",", "Corrosion", ",", "Cream", ",", "Crossover", ",", "Crystallizer", ",", "Cthulhu", ",", "Curve2", ",", "DAW Cassette", ",", "Decapitator", ",", "Degrader", ",", "Delay", ",", "Deleight", ",", "Devil-Loc Deluxe", ",", "Devil-Loc", ",", "Dexed", ",", "Dipole", ",", "Disperser", ",", "Dispersion", ",", "Distortion 1", ",", "Distortion", ",", "DLSMusicDevice", ",", "Drone Piano", ",", "Droplet", ",", "Dubstation 2", ",", "EchoBoy Jr", ",", "EchoBoy", ",", "Echoes T7E", ",", "EffectRack", ",", "Eidolon", ",", "Emission", ",", "Ensemble", ",", "Enso", ",", "Eos 2", ",", "Eternal", ",", "Europa by Reason", ",", "Falcon", ",", "Fathoms", ",", "Faturator", ",", "FF Pro-C 2", ",", "FF Pro-Q 3", ",", "FF Pro-R", ",", "Filter", ",", "FilterFreak1", ",", "FilterFreak2", ",", "Filterjam", ",", "FilterShaper3", ",", "Filterstation2", ",", "Flanger", ",", "Flow II", ",", "Fog Convolver", ",", "Foomph", ",", "Formant Filter", ",", "Fraction", ",", "FreeAMP", ",", "Frequency Shifter", ",", "Frostbite 2", ",", "FuzzPlus3", ",", "Gaffel", ",", "Gain", ",", "Gate", ",", "GotoEQ", ",", "Grain Streamer", ",", "GrainSpace", ",", "Grand Finale", ",", "Granule", ",", "Granulizer 2", ",", "H3000 Factory", ",", "Haas", ",", "Haaze 2", ",", "HalfTime", ",", "Harmonic Maximizer", ",", "Heavy Pedal", ",", "Hexonator", ",", "Hillman", ",", "Hologram", ",", "HRTFPanner", ",", "Idee Fixer", ",", "Inertia", ",", "Insight 2", ",", "Instinct", ",", "iZotope DDLY Dynamic Delay", ",", "iZotope Mobius Filter", ",", "iZotope Stutter Edit", ",", "iZotope Trash 2", ",", "kHs ONE", ",", "Kleverb", ",", "Ladder Filter", ",", "Latin Percussion", ",", "LDC2 Compander", ",", "Limiter", ",", "Little AlterBoy", ",", "Little MicroShift", ",", "Little Plate", ",", "Little PrimalTap", ",", "Little Radiator", ",", "Low Filter", ",", "Luminance", ",", "Malfunction II", ",", "MangledVerb", ",", "Markus 88 v151", ",", "Metaplugin", ",", "MetapluginSynth", ",", "MicroShift", ",", "Microtonic Multi", ",", "Microtonic", ",", "Midi Madness 3", ",", "MidiShaper", ",", "MidSide", ",", "Mimik", ",", "MODALplugin", ",", "Modley", ",", "Modular FX", ",", "Modular", ",", "Molecule", ",", "Multipass", ",", "Multitude", ",", "Nectar 3 Elements", ",", "Nectar 3", ",", "Neutron 3 Compressor", ",", "Neutron 3 Elements", ",", "Neutron 3 Equalizer", ",", "Neutron 3 Exciter", ",", "Neutron 3 Gate", ",", "Neutron 3 Sculptor", ",", "Neutron 3 Transient Shaper", ",", "Neutron 3 Visual Mixer", ",", "Neutron 3", ",", "Nimbus", ",", "Northern Boarder", ",", "Nouveau Mellow", ",", "Nuxx", ",", "Octavlord", ",", "Outer Space", ",", "Ozone 9 Dynamic EQ", ",", "Ozone 9 Dynamics", ",", "Ozone 9 Equalizer", ",", "Ozone 9 Exciter", ",", "Ozone 9 Imager", ",", "Ozone 9 Low End Focus", ",", "Ozone 9 Master Rebalance", ",", "Ozone 9 Match EQ", ",", "Ozone 9 Maximizer", ",", "Ozone 9 Spectral Shaper", ",", "Ozone 9 Vintage Compressor", ",", "Ozone 9 Vintage EQ", ",", "Ozone 9 Vintage Limiter", ",", "Ozone 9 Vintage Tape", ",", "Ozone 9", ",", "Ozone Imager 2", ",", "Padshop", ",", "Palindrome", ",", "PanMan", ",", "Parallax", ",", "Pastfabric", ",", "Pastoral Piano", ",", "Phase Distortion", ",", "Phase Plant", ",", "PhaseMistress", ",", "Phaser", ",", "Pigments", ",", "Pitch Shifter", ",", "Plectrik", ",", "Polaris", ",", "Portal", ",", "Pre X7", ",", "PrimalTap", ",", "Protoverb", ",", "Push", ",", "Quanta", ",", "R4", ",", "Radiator", ",", "Radio", ",", "Raum", ",", "Re-Function", ",", "Reaktor 6 MFX", ",", "Reaktor 6", ",", "REAMP", ",", "Regrader", ",", "Regroover Pro", ",", "Relay", ",", "Reshuffle", ",", "Resonator", ",", "Rev PLATE-140", ",", "Reverb", ",", "Reverser", ",", "Rhythmiq", ",", "Ring Mod", ",", "Robotizer", ",", "Room Piano v2", ",", "Rust", ",", "RX 7 Breath Control", ",", "RX 7 Connect", ",", "RX 7 De-click", ",", "RX 7 De-clip", ",", "RX 7 De-crackle", ",", "RX 7 De-ess", ",", "RX 7 De-hum", ",", "RX 7 De-plosive", ",", "RX 7 De-reverb", ",", "RX 7 Monitor", ",", "RX 7 Mouth De-click", ",", "RX 7 Spectral De-noise", ",", "RX 7 Voice De-noise", ",", "SendIt", ",", "Sequential", ",", "Serato Sample", ",", "Serum", ",", "SerumFX", ",", "ShaperBox 2", ",", "Shift", ",", "Side Filter", ",", "Sie-Q", ",", "Singularity", ",", "SketchCassette", ",", "Slice EQ", ",", "Snap Heap", ",", "Solveig", ",", "Spectral Averaging", ",", "Spectral Bin Shift", ",", "Spectral Blurring", ",", "Spectral DroneMaker", ",", "Spectral Emergence", ",", "Spectral Filterbank", ",", "Spectral Freezing", ",", "Spectral Gate And Hold", ",", "Spectral Gliding Filters", ",", "Spectral Granulation", ",", "Spectral Harmonizer", ",", "Spectral Partial Glide", ",", "Spectral Pitch Shift", ",", "Spectral Pulsing", ",", "Spectral Shimmer", ",", "Spectral Shuffle", ",", "Spectral Stretch", ",", "Spectral Tracing", ",", "Spectral Weave", ",", "Speektra", ",", "Splitch", ",", "Springs", ",", "Stereo", ",", "Stream", ",", "Stutter Edit", ",", "Suntron", ",", "Super Filterbank", ",", "Surge", ",", "Svep", ",", "Switch", ",", "SyndtSphere", ",", "Synth1", ",", "SynthMaster 2.9 Effect", ",", "SynthMaster 2.9 Instrument", ",", "SynthMaster One Effect", ",", "SynthMaster One Instrument", ",", "TAL Reverb 4 Plugin", ",", "Tape Stop", ",", "Texture", ",", "Thales Model I v", ",", "The Abuser", ",", "The Mangle", ",", "Tonal Balance Control 2", ",", "Tonal Balance Control", ",", "Torsion", ",", "Trance Gate", ",", "Transient Shaper", ",", "Tremolator", ",", "TS-1 Transient Shaper", ",", "TTAP", ",", "Tube Modulator", ",", "Turbo", ",", "UltraTap", ",", "Unfiltered Audio Dent 2", ",", "Unfiltered Audio Fault", ",", "Unfiltered Audio Indent 2", ",", "Unfiltered Audio Instant Delay", ",", "Unfiltered Audio LION", ",", "Unfiltered Audio Sandman Pro", ",", "Unfiltered Audio SpecOps", ",", "Unfiltered Audio Triad", ",", "Union", ",", "UVIWorkstation", ",", "ValhallaDelay", ",", "ValhallaFreqEcho", ",", "ValhallaPlate", ",", "ValhallaRoom", ",", "ValhallaShimmer", ",", "ValhallaSpaceModulator", ",", "ValhallaUberMod", ",", "ValhallaVintageVerb", ",", "Vanisher", ",", "VCV Bridge", ",", "Verv", ",", "VocalSynth 2", ",", "Washout", ",", "Weave", ",", "Whirl", ",", "WOV", ",", "XenoVerb", ",", "Zerone" ],
									"maxclass" : "umenu",
									"numinlets" : 1,
									"numoutlets" : 3,
									"outlettype" : [ "int", "", "" ],
									"parameter_enable" : 0,
									"patching_rect" : [ 216.999999999999886, 519.0, 100.0, 20.0 ],
									"presentation" : 1,
									"presentation_rect" : [ 309.449999999999875, 30.0, 117.550000000000011, 20.0 ]
								}

							}
, 							{
								"box" : 								{
									"id" : "obj-9",
									"maxclass" : "comment",
									"numinlets" : 1,
									"numoutlets" : 0,
									"patching_rect" : [ 324.5, 519.0, 123.0, 20.0 ],
									"style" : "helpfile_label",
									"text" : "example plugin menu"
								}

							}
, 							{
								"box" : 								{
									"id" : "obj-10",
									"maxclass" : "comment",
									"numinlets" : 1,
									"numoutlets" : 0,
									"patching_rect" : [ 313.5, 260.0, 61.0, 20.0 ],
									"style" : "helpfile_label",
									"text" : "progress"
								}

							}
, 							{
								"box" : 								{
									"format" : 6,
									"id" : "obj-15",
									"maxclass" : "flonum",
									"maximum" : 1.0,
									"minimum" : 0.0,
									"numinlets" : 1,
									"numoutlets" : 2,
									"outlettype" : [ "", "bang" ],
									"parameter_enable" : 0,
									"patching_rect" : [ 248.999999999999886, 234.0, 50.0, 22.0 ]
								}

							}
, 							{
								"box" : 								{
									"id" : "obj-16",
									"maxclass" : "newobj",
									"numinlets" : 1,
									"numoutlets" : 4,
									"outlettype" : [ "float", "", "", "" ],
									"patching_rect" : [ 248.999999999999886, 198.0, 125.0, 22.0 ],
									"text" : "unpack 0. s s s"
								}

							}
, 							{
								"box" : 								{
									"id" : "obj-17",
									"maxclass" : "comment",
									"numinlets" : 1,
									"numoutlets" : 0,
									"patching_rect" : [ 297.999999999999886, 176.0, 76.0, 20.0 ],
									"style" : "helpfile_label",
									"text" : "Scan status"
								}

							}
, 							{
								"box" : 								{
									"id" : "obj-18",
									"maxclass" : "message",
									"numinlets" : 2,
									"numoutlets" : 1,
									"outlettype" : [ "" ],
									"patching_rect" : [ 381.999999999999886, 318.0, 37.0, 22.0 ],
									"text" : "clear"
								}

							}
, 							{
								"box" : 								{
									"id" : "obj-43",
									"maxclass" : "newobj",
									"numinlets" : 1,
									"numoutlets" : 1,
									"outlettype" : [ "" ],
									"patching_rect" : [ 214.999999999999886, 318.0, 104.0, 22.0 ],
									"text" : "prepend append"
								}

							}
, 							{
								"box" : 								{
									"id" : "obj-48",
									"maxclass" : "message",
									"numinlets" : 2,
									"numoutlets" : 1,
									"outlettype" : [ "" ],
									"patching_rect" : [ 265.499999999999886, 122.0, 39.0, 22.0 ],
									"text" : "listau"
								}

							}
, 							{
								"box" : 								{
									"id" : "obj-49",
									"maxclass" : "newobj",
									"numinlets" : 2,
									"numoutlets" : 2,
									"outlettype" : [ "", "" ],
									"patching_rect" : [ 214.999999999999886, 282.0, 82.0, 22.0 ],
									"text" : "route plug_au"
								}

							}
, 							{
								"box" : 								{
									"id" : "obj-50",
									"maxclass" : "message",
									"numinlets" : 2,
									"numoutlets" : 1,
									"outlettype" : [ "" ],
									"patching_rect" : [ 214.999999999999886, 122.0, 44.0, 22.0 ],
									"presentation" : 1,
									"presentation_rect" : [ 70.999999999999886, 71.0, 44.0, 22.0 ],
									"text" : "scan 0"
								}

							}
, 							{
								"box" : 								{
									"id" : "obj-26",
									"maxclass" : "newobj",
									"numinlets" : 1,
									"numoutlets" : 2,
									"outlettype" : [ "", "" ],
									"patching_rect" : [ 214.999999999999886, 167.0, 53.0, 22.0 ],
									"text" : "vstscan"
								}

							}
, 							{
								"box" : 								{
									"comment" : "",
									"id" : "obj-1",
									"index" : 1,
									"maxclass" : "inlet",
									"numinlets" : 0,
									"numoutlets" : 1,
									"outlettype" : [ "bang" ],
									"patching_rect" : [ 25.999999999999886, 9.0, 30.0, 30.0 ]
								}

							}
, 							{
								"box" : 								{
									"id" : "obj-19",
									"maxclass" : "panel",
									"numinlets" : 1,
									"numoutlets" : 0,
									"patching_rect" : [ 45.0, 363.0, 128.0, 128.0 ],
									"presentation" : 1,
									"presentation_rect" : [ 0.0, -4.0, 510.0, 292.0 ]
								}

							}
 ],
						"lines" : [ 							{
								"patchline" : 								{
									"destination" : [ "obj-61", 0 ],
									"source" : [ "obj-1", 0 ]
								}

							}
, 							{
								"patchline" : 								{
									"destination" : [ "obj-26", 0 ],
									"midpoints" : [ 35.499999999999886, 155.0, 224.499999999999886, 155.0 ],
									"order" : 1,
									"source" : [ "obj-11", 0 ]
								}

							}
, 							{
								"patchline" : 								{
									"destination" : [ "obj-68", 0 ],
									"midpoints" : [ 35.499999999999886, 154.5, 391.499999999999886, 154.5 ],
									"order" : 0,
									"source" : [ "obj-11", 0 ]
								}

							}
, 							{
								"patchline" : 								{
									"destination" : [ "obj-8", 0 ],
									"source" : [ "obj-14", 0 ]
								}

							}
, 							{
								"patchline" : 								{
									"destination" : [ "obj-64", 0 ],
									"midpoints" : [ 258.499999999999886, 266.0, 306.75, 266.0, 306.75, 223.0, 323.0, 223.0 ],
									"order" : 0,
									"source" : [ "obj-15", 0 ]
								}

							}
, 							{
								"patchline" : 								{
									"destination" : [ "obj-7", 0 ],
									"midpoints" : [ 258.499999999999886, 268.5, 177.499999999999886, 268.5 ],
									"order" : 1,
									"source" : [ "obj-15", 0 ]
								}

							}
, 							{
								"patchline" : 								{
									"destination" : [ "obj-15", 0 ],
									"source" : [ "obj-16", 0 ]
								}

							}
, 							{
								"patchline" : 								{
									"destination" : [ "obj-12", 0 ],
									"midpoints" : [ 391.499999999999886, 355.5, 224.499999999999886, 355.5 ],
									"source" : [ "obj-18", 0 ]
								}

							}
, 							{
								"patchline" : 								{
									"destination" : [ "obj-62", 0 ],
									"source" : [ "obj-2", 0 ]
								}

							}
, 							{
								"patchline" : 								{
									"destination" : [ "obj-16", 0 ],
									"source" : [ "obj-26", 1 ]
								}

							}
, 							{
								"patchline" : 								{
									"destination" : [ "obj-49", 0 ],
									"source" : [ "obj-26", 0 ]
								}

							}
, 							{
								"patchline" : 								{
									"destination" : [ "obj-26", 0 ],
									"midpoints" : [ 161.499999999999886, 155.0, 224.499999999999886, 155.0 ],
									"order" : 1,
									"source" : [ "obj-3", 0 ]
								}

							}
, 							{
								"patchline" : 								{
									"destination" : [ "obj-68", 0 ],
									"midpoints" : [ 161.499999999999886, 155.5, 391.499999999999886, 155.5 ],
									"order" : 0,
									"source" : [ "obj-3", 0 ]
								}

							}
, 							{
								"patchline" : 								{
									"destination" : [ "obj-12", 0 ],
									"source" : [ "obj-43", 0 ]
								}

							}
, 							{
								"patchline" : 								{
									"destination" : [ "obj-26", 0 ],
									"midpoints" : [ 274.999999999999886, 155.0, 224.499999999999886, 155.0 ],
									"source" : [ "obj-48", 0 ]
								}

							}
, 							{
								"patchline" : 								{
									"destination" : [ "obj-43", 0 ],
									"source" : [ "obj-49", 0 ]
								}

							}
, 							{
								"patchline" : 								{
									"destination" : [ "obj-26", 0 ],
									"order" : 1,
									"source" : [ "obj-50", 0 ]
								}

							}
, 							{
								"patchline" : 								{
									"destination" : [ "obj-68", 0 ],
									"midpoints" : [ 224.499999999999886, 154.0, 391.499999999999886, 154.0 ],
									"order" : 0,
									"source" : [ "obj-50", 0 ]
								}

							}
, 							{
								"patchline" : 								{
									"destination" : [ "obj-26", 0 ],
									"midpoints" : [ 99.499999999999886, 154.0, 224.499999999999886, 154.0 ],
									"order" : 1,
									"source" : [ "obj-6", 0 ]
								}

							}
, 							{
								"patchline" : 								{
									"destination" : [ "obj-68", 0 ],
									"midpoints" : [ 99.499999999999886, 155.5, 391.499999999999886, 155.5 ],
									"order" : 0,
									"source" : [ "obj-6", 0 ]
								}

							}
, 							{
								"patchline" : 								{
									"destination" : [ "obj-11", 0 ],
									"source" : [ "obj-61", 0 ]
								}

							}
, 							{
								"patchline" : 								{
									"destination" : [ "obj-48", 0 ],
									"order" : 1,
									"source" : [ "obj-62", 0 ]
								}

							}
, 							{
								"patchline" : 								{
									"destination" : [ "obj-68", 0 ],
									"midpoints" : [ 274.999999999999886, 115.75, 391.499999999999886, 115.75 ],
									"order" : 0,
									"source" : [ "obj-62", 0 ]
								}

							}
, 							{
								"patchline" : 								{
									"destination" : [ "obj-18", 0 ],
									"midpoints" : [ 391.499999999999886, 314.5, 391.499999999999886, 314.5 ],
									"source" : [ "obj-68", 0 ]
								}

							}
, 							{
								"patchline" : 								{
									"destination" : [ "obj-62", 0 ],
									"midpoints" : [ 177.499999999999886, 316.0, 15.749999999999886, 316.0, 15.749999999999886, 73.5, 274.999999999999886, 73.5 ],
									"source" : [ "obj-7", 0 ]
								}

							}
 ],
						"styles" : [ 							{
								"name" : "AudioStatus_Menu",
								"default" : 								{
									"bgfillcolor" : 									{
										"type" : "color",
										"color" : [ 0.294118, 0.313726, 0.337255, 1 ],
										"color1" : [ 0.454902, 0.462745, 0.482353, 0 ],
										"color2" : [ 0.290196, 0.309804, 0.301961, 1 ],
										"angle" : 270,
										"proportion" : 0.39,
										"autogradient" : 0
									}

								}
,
								"parentstyle" : "",
								"multi" : 0
							}
, 							{
								"name" : "ksliderWhite",
								"default" : 								{
									"color" : [ 1, 1, 1, 1 ]
								}
,
								"parentstyle" : "",
								"multi" : 0
							}
, 							{
								"name" : "messageBlue",
								"default" : 								{
									"bgfillcolor" : 									{
										"type" : "gradient",
										"color" : [ 0.290196, 0.309804, 0.301961, 1.0 ],
										"color1" : [ 0.317647, 0.654902, 0.976471, 1.0 ],
										"color2" : [ 0.290196, 0.309804, 0.301961, 1.0 ],
										"angle" : 270.0,
										"proportion" : 0.660494,
										"autogradient" : 0
									}

								}
,
								"parentstyle" : "",
								"multi" : 0
							}
, 							{
								"name" : "newobjBlue-1",
								"default" : 								{
									"accentcolor" : [ 0.317647, 0.654902, 0.976471, 1 ]
								}
,
								"parentstyle" : "",
								"multi" : 0
							}
, 							{
								"name" : "newobjGreen-1",
								"default" : 								{
									"accentcolor" : [ 0, 0.533333, 0.168627, 1 ]
								}
,
								"parentstyle" : "",
								"multi" : 0
							}
, 							{
								"name" : "numberGold-1",
								"default" : 								{
									"accentcolor" : [ 0.764706, 0.592157, 0.101961, 1 ]
								}
,
								"parentstyle" : "",
								"multi" : 0
							}
 ]
					}
,
					"patching_rect" : [ 950.25, 730.0, 80.0, 22.0 ],
					"saved_object_attributes" : 					{
						"description" : "",
						"digest" : "",
						"globalpatchername" : "",
						"tags" : ""
					}
,
					"text" : "p configsheet"
				}

			}
, 			{
				"box" : 				{
					"id" : "obj-46",
					"maxclass" : "newobj",
					"numinlets" : 1,
					"numoutlets" : 1,
					"outlettype" : [ "" ],
					"patching_rect" : [ 950.25, 684.0, 51.0, 22.0 ],
					"text" : "pcontrol"
				}

			}
, 			{
				"box" : 				{
					"id" : "obj-47",
					"maxclass" : "newobj",
					"numinlets" : 1,
					"numoutlets" : 1,
					"outlettype" : [ "bang" ],
					"patching_rect" : [ 107.0, 805.5, 58.0, 22.0 ],
					"text" : "loadbang"
				}

			}
, 			{
				"box" : 				{
					"id" : "obj-45",
					"maxclass" : "message",
					"numinlets" : 2,
					"numoutlets" : 1,
					"outlettype" : [ "" ],
					"patching_rect" : [ 107.0, 836.0, 125.0, 22.0 ],
					"text" : "0 0 1 1 0 1 2 0 1 3 0 1"
				}

			}
, 			{
				"box" : 				{
					"columns" : 4,
					"id" : "obj-43",
					"maxclass" : "matrixctrl",
					"numinlets" : 1,
					"numoutlets" : 2,
					"outlettype" : [ "list", "list" ],
					"parameter_enable" : 0,
					"patching_rect" : [ 107.0, 876.5, 66.0, 50.0 ],
					"presentation" : 1,
					"presentation_rect" : [ 709.833333333333371, 12.0, 41.0, 31.0 ],
					"rows" : 3
				}

			}
, 			{
				"box" : 				{
					"id" : "obj-39",
					"maxclass" : "newobj",
					"numinlets" : 4,
					"numoutlets" : 4,
					"outlettype" : [ "signal", "signal", "signal", "list" ],
					"patching_rect" : [ 12.0, 876.5, 68.0, 22.0 ],
					"text" : "matrix~ 4 3"
				}

			}
, 			{
				"box" : 				{
					"id" : "obj-40",
					"maxclass" : "comment",
					"numinlets" : 1,
					"numoutlets" : 0,
					"patching_rect" : [ 826.25, 24.0, 46.0, 20.0 ],
					"presentation" : 1,
					"presentation_rect" : [ 633.500000000000114, 17.5, 63.25, 20.0 ],
					"text" : "v0.55",
					"textcolor" : [ 0.513725490196078, 0.470588235294118, 0.470588235294118, 1.0 ],
					"textjustification" : 2
				}

			}
, 			{
				"box" : 				{
					"fontname" : "Arial",
					"fontsize" : 13.0,
					"id" : "obj-23",
					"maxclass" : "newobj",
					"numinlets" : 1,
					"numoutlets" : 1,
					"outlettype" : [ "" ],
					"patching_rect" : [ 714.0, 1103.5, 55.0, 23.0 ],
					"text" : "pcontrol"
				}

			}
, 			{
				"box" : 				{
					"fontname" : "Arial",
					"fontsize" : 13.0,
					"id" : "obj-8",
					"maxclass" : "message",
					"numinlets" : 2,
					"numoutlets" : 1,
					"outlettype" : [ "" ],
					"patching_rect" : [ 714.0, 1041.5, 179.0, 23.0 ],
					"text" : "load groovin_modular.maxpat"
				}

			}
, 			{
				"box" : 				{
					"fontname" : "Arial",
					"fontsize" : 13.0,
					"id" : "obj-12",
					"maxclass" : "message",
					"numinlets" : 2,
					"numoutlets" : 1,
					"outlettype" : [ "" ],
					"patching_rect" : [ 580.5, 1041.5, 126.0, 23.0 ],
					"text" : "load groovin.maxpat"
				}

			}
, 			{
				"box" : 				{
					"fontface" : 1,
					"fontname" : "Arial",
					"fontsize" : 13.0,
					"id" : "obj-15",
					"maxclass" : "number",
					"numinlets" : 1,
					"numoutlets" : 2,
					"outlettype" : [ "", "bang" ],
					"parameter_enable" : 0,
					"patching_rect" : [ 661.5, 968.166625999999951, 54.0, 23.0 ],
					"triangle" : 0,
					"triscale" : 0.9
				}

			}
, 			{
				"box" : 				{
					"fontname" : "Arial",
					"fontsize" : 13.0,
					"id" : "obj-19",
					"maxclass" : "newobj",
					"numinlets" : 5,
					"numoutlets" : 5,
					"outlettype" : [ "bang", "bang", "bang", "bang", "" ],
					"patching_rect" : [ 661.5, 995.166625999999951, 229.0, 23.0 ],
					"text" : "select 1 2 3 5"
				}

			}
, 			{
				"box" : 				{
					"fontname" : "Arial",
					"fontsize" : 13.0,
					"id" : "obj-27",
					"maxclass" : "newobj",
					"numinlets" : 1,
					"numoutlets" : 0,
					"patcher" : 					{
						"fileversion" : 1,
						"appversion" : 						{
							"major" : 8,
							"minor" : 1,
							"revision" : 1,
							"architecture" : "x64",
							"modernui" : 1
						}
,
						"classnamespace" : "box",
						"rect" : [ 70.0, 135.0, 807.0, 320.0 ],
						"bglocked" : 0,
						"openinpresentation" : 0,
						"default_fontsize" : 11.595186999999999,
						"default_fontface" : 0,
						"default_fontname" : "Arial",
						"gridonopen" : 1,
						"gridsize" : [ 15.0, 15.0 ],
						"gridsnaponopen" : 1,
						"objectsnaponopen" : 1,
						"statusbarvisible" : 2,
						"toolbarvisible" : 1,
						"lefttoolbarpinned" : 0,
						"toptoolbarpinned" : 0,
						"righttoolbarpinned" : 0,
						"bottomtoolbarpinned" : 0,
						"toolbars_unpinned_last_save" : 0,
						"tallnewobj" : 0,
						"boxanimatetime" : 200,
						"enablehscroll" : 1,
						"enablevscroll" : 1,
						"devicewidth" : 0.0,
						"description" : "",
						"digest" : "",
						"tags" : "",
						"style" : "",
						"subpatcher_template" : "",
						"boxes" : [ 							{
								"box" : 								{
									"fontname" : "Arial",
									"fontsize" : 13.0,
									"id" : "obj-3",
									"linecount" : 4,
									"maxclass" : "comment",
									"numinlets" : 1,
									"numoutlets" : 0,
									"patching_rect" : [ 16.0, 11.0, 476.0, 65.0 ],
									"text" : "Docs go here\n\n\nHow to..."
								}

							}
, 							{
								"box" : 								{
									"comment" : "",
									"hidden" : 1,
									"id" : "obj-1",
									"index" : 1,
									"maxclass" : "inlet",
									"numinlets" : 0,
									"numoutlets" : 1,
									"outlettype" : [ "" ],
									"patching_rect" : [ 623.0, 11.0, 15.0, 15.0 ]
								}

							}
 ],
						"lines" : [  ]
					}
,
					"patching_rect" : [ 917.5, 1103.5, 83.0, 23.0 ],
					"saved_object_attributes" : 					{
						"description" : "",
						"digest" : "",
						"fontsize" : 11.595186999999999,
						"globalpatchername" : "",
						"tags" : ""
					}
,
					"text" : "patcher docs"
				}

			}
, 			{
				"box" : 				{
					"fontname" : "Arial",
					"fontsize" : 13.0,
					"id" : "obj-22",
					"maxclass" : "newobj",
					"numinlets" : 1,
					"numoutlets" : 1,
					"outlettype" : [ "" ],
					"patching_rect" : [ 917.5, 1076.5, 55.0, 23.0 ],
					"text" : "pcontrol"
				}

			}
, 			{
				"box" : 				{
					"fontname" : "Arial",
					"fontsize" : 13.0,
					"id" : "obj-25",
					"maxclass" : "message",
					"numinlets" : 2,
					"numoutlets" : 1,
					"outlettype" : [ "" ],
					"patching_rect" : [ 917.5, 1041.5, 37.0, 23.0 ],
					"text" : "open"
				}

			}
, 			{
				"box" : 				{
					"fontname" : "Arial",
					"fontsize" : 13.0,
					"id" : "obj-31",
					"maxclass" : "newobj",
					"numinlets" : 2,
					"numoutlets" : 2,
					"outlettype" : [ "bang", "" ],
					"patching_rect" : [ 471.5, 960.166625999999951, 56.0, 23.0 ],
					"text" : "select 1"
				}

			}
, 			{
				"box" : 				{
					"fontname" : "Arial",
					"fontsize" : 13.0,
					"id" : "obj-33",
					"maxclass" : "message",
					"numinlets" : 2,
					"numoutlets" : 1,
					"outlettype" : [ "" ],
					"patching_rect" : [ 471.5, 987.5, 40.0, 23.0 ],
					"text" : "open"
				}

			}
, 			{
				"box" : 				{
					"fontname" : "Arial",
					"fontsize" : 13.0,
					"id" : "obj-34",
					"maxclass" : "newobj",
					"numinlets" : 1,
					"numoutlets" : 1,
					"outlettype" : [ "" ],
					"patching_rect" : [ 471.5, 1014.5, 58.0, 23.0 ],
					"text" : "pcontrol"
				}

			}
, 			{
				"box" : 				{
					"fontname" : "Arial",
					"fontsize" : 13.0,
					"id" : "obj-35",
					"maxclass" : "newobj",
					"numinlets" : 1,
					"numoutlets" : 0,
					"patcher" : 					{
						"fileversion" : 1,
						"appversion" : 						{
							"major" : 8,
							"minor" : 1,
							"revision" : 1,
							"architecture" : "x64",
							"modernui" : 1
						}
,
						"classnamespace" : "box",
						"rect" : [ 229.0, 463.0, 337.0, 202.0 ],
						"bglocked" : 0,
						"openinpresentation" : 1,
						"default_fontsize" : 11.595186999999999,
						"default_fontface" : 0,
						"default_fontname" : "Arial",
						"gridonopen" : 1,
						"gridsize" : [ 15.0, 15.0 ],
						"gridsnaponopen" : 1,
						"objectsnaponopen" : 1,
						"statusbarvisible" : 2,
						"toolbarvisible" : 0,
						"lefttoolbarpinned" : 0,
						"toptoolbarpinned" : 0,
						"righttoolbarpinned" : 0,
						"bottomtoolbarpinned" : 0,
						"toolbars_unpinned_last_save" : 0,
						"tallnewobj" : 0,
						"boxanimatetime" : 200,
						"enablehscroll" : 1,
						"enablevscroll" : 1,
						"devicewidth" : 0.0,
						"description" : "",
						"digest" : "",
						"tags" : "",
						"style" : "",
						"subpatcher_template" : "",
						"boxes" : [ 							{
								"box" : 								{
									"fontname" : "Arial",
									"fontsize" : 11.595186999999999,
									"id" : "obj-26",
									"maxclass" : "newobj",
									"numinlets" : 1,
									"numoutlets" : 2,
									"outlettype" : [ "", "" ],
									"patching_rect" : [ 344.0, 397.5, 67.0, 21.0 ],
									"save" : [ "#N", "thispatcher", ";", "#Q", "end", ";" ],
									"text" : "thispatcher"
								}

							}
, 							{
								"box" : 								{
									"fontname" : "Arial",
									"fontsize" : 11.595186999999999,
									"id" : "obj-25",
									"maxclass" : "newobj",
									"numinlets" : 2,
									"numoutlets" : 1,
									"outlettype" : [ "" ],
									"patching_rect" : [ 344.0, 347.5, 40.0, 21.0 ],
									"text" : "round"
								}

							}
, 							{
								"box" : 								{
									"fontname" : "Arial",
									"fontsize" : 11.595186999999999,
									"id" : "obj-22",
									"maxclass" : "message",
									"numinlets" : 2,
									"numoutlets" : 1,
									"outlettype" : [ "" ],
									"patching_rect" : [ 344.0, 373.5, 210.0, 21.0 ],
									"text" : "window size $1 $2 $3 $4, window exec"
								}

							}
, 							{
								"box" : 								{
									"fontname" : "Arial",
									"fontsize" : 11.595186999999999,
									"id" : "obj-21",
									"maxclass" : "newobj",
									"numinlets" : 1,
									"numoutlets" : 2,
									"outlettype" : [ "bang", "bang" ],
									"patching_rect" : [ 344.0, 95.5, 158.0, 21.0 ],
									"text" : "b"
								}

							}
, 							{
								"box" : 								{
									"fontname" : "Arial",
									"fontsize" : 11.595186999999999,
									"id" : "obj-20",
									"maxclass" : "newobj",
									"numinlets" : 2,
									"numoutlets" : 2,
									"outlettype" : [ "", "" ],
									"patching_rect" : [ 344.0, 321.5, 56.0, 21.0 ],
									"text" : "zl join"
								}

							}
, 							{
								"box" : 								{
									"fontname" : "Arial",
									"fontsize" : 11.595186999999999,
									"id" : "obj-19",
									"maxclass" : "newobj",
									"numinlets" : 2,
									"numoutlets" : 1,
									"outlettype" : [ "" ],
									"patching_rect" : [ 381.0, 279.5, 158.0, 21.0 ],
									"text" : "vexpr $f1 + $f2"
								}

							}
, 							{
								"box" : 								{
									"fontname" : "Arial",
									"fontsize" : 11.595186999999999,
									"id" : "obj-18",
									"maxclass" : "newobj",
									"numinlets" : 2,
									"numoutlets" : 1,
									"outlettype" : [ "" ],
									"patching_rect" : [ 344.0, 250.5, 158.0, 21.0 ],
									"text" : "vexpr $f1 - $f2"
								}

							}
, 							{
								"box" : 								{
									"fontname" : "Arial",
									"fontsize" : 11.595186999999999,
									"id" : "obj-17",
									"maxclass" : "newobj",
									"numinlets" : 1,
									"numoutlets" : 1,
									"outlettype" : [ "" ],
									"patching_rect" : [ 483.0, 177.5, 86.0, 21.0 ],
									"text" : "vexpr $i1 * 0.5"
								}

							}
, 							{
								"box" : 								{
									"fontname" : "Arial",
									"fontsize" : 11.595186999999999,
									"id" : "obj-14",
									"maxclass" : "newobj",
									"numinlets" : 1,
									"numoutlets" : 1,
									"outlettype" : [ "" ],
									"patching_rect" : [ 344.0, 205.5, 86.0, 21.0 ],
									"text" : "vexpr $i1 * 0.5"
								}

							}
, 							{
								"box" : 								{
									"fontname" : "Arial",
									"fontsize" : 11.595186999999999,
									"id" : "obj-12",
									"maxclass" : "newobj",
									"numinlets" : 2,
									"numoutlets" : 2,
									"outlettype" : [ "", "" ],
									"patching_rect" : [ 344.0, 177.5, 56.0, 21.0 ],
									"text" : "zl slice 2"
								}

							}
, 							{
								"box" : 								{
									"fontname" : "Arial",
									"fontsize" : 11.595186999999999,
									"id" : "obj-10",
									"maxclass" : "newobj",
									"numinlets" : 2,
									"numoutlets" : 2,
									"outlettype" : [ "", "" ],
									"patching_rect" : [ 483.0, 146.5, 84.0, 21.0 ],
									"text" : "zl reg 336 202"
								}

							}
, 							{
								"box" : 								{
									"fontname" : "Arial",
									"fontsize" : 11.595186999999999,
									"id" : "obj-8",
									"maxclass" : "newobj",
									"numinlets" : 1,
									"numoutlets" : 1,
									"outlettype" : [ "bang" ],
									"patching_rect" : [ 344.0, 68.5, 58.0, 21.0 ],
									"text" : "loadbang"
								}

							}
, 							{
								"box" : 								{
									"fontname" : "Arial",
									"fontsize" : 11.595186999999999,
									"id" : "obj-5",
									"maxclass" : "newobj",
									"numinlets" : 1,
									"numoutlets" : 2,
									"outlettype" : [ "list", "list" ],
									"patching_rect" : [ 344.0, 123.5, 67.0, 21.0 ],
									"text" : "screensize"
								}

							}
, 							{
								"box" : 								{
									"comment" : "",
									"hidden" : 1,
									"id" : "obj-1",
									"index" : 1,
									"maxclass" : "inlet",
									"numinlets" : 0,
									"numoutlets" : 1,
									"outlettype" : [ "" ],
									"patching_rect" : [ 413.0, 21.0, 25.0, 25.0 ]
								}

							}
, 							{
								"box" : 								{
									"fontname" : "Arial",
									"fontsize" : 11.595186999999999,
									"id" : "obj-2",
									"maxclass" : "comment",
									"numinlets" : 1,
									"numoutlets" : 0,
									"patching_rect" : [ 46.0, 66.0, 225.0, 19.0 ],
									"presentation" : 1,
									"presentation_rect" : [ 55.0, 66.0, 225.0, 19.0 ],
									"text" : "Tools for Layering sounds.."
								}

							}
, 							{
								"box" : 								{
									"fontname" : "Arial",
									"fontsize" : 11.595186999999999,
									"id" : "obj-3",
									"maxclass" : "comment",
									"numinlets" : 1,
									"numoutlets" : 0,
									"patching_rect" : [ 46.0, 25.0, 127.0, 19.0 ],
									"presentation" : 1,
									"presentation_rect" : [ 55.0, 25.0, 127.0, 19.0 ],
									"text" : "Groovin version1.0"
								}

							}
, 							{
								"box" : 								{
									"fontname" : "Arial",
									"fontsize" : 11.595186999999999,
									"id" : "obj-4",
									"maxclass" : "comment",
									"numinlets" : 1,
									"numoutlets" : 0,
									"patching_rect" : [ 40.0, 169.0, 234.0, 19.0 ],
									"presentation" : 1,
									"presentation_rect" : [ 48.0, 169.0, 234.0, 19.0 ],
									"text" : "v.01 2019 sa"
								}

							}
, 							{
								"box" : 								{
									"angle" : 0.0,
									"grad1" : [ 0.74902, 0.788235, 0.929412, 0.470588 ],
									"grad2" : [ 0.658824, 0.658824, 0.721569, 0.501961 ],
									"id" : "obj-6",
									"maxclass" : "panel",
									"mode" : 1,
									"numinlets" : 1,
									"numoutlets" : 0,
									"patching_rect" : [ 0.0, 0.0, 336.0, 202.0 ],
									"presentation" : 1,
									"presentation_rect" : [ 0.0, 0.0, 336.0, 202.0 ],
									"proportion" : 0.39,
									"rounded" : 0
								}

							}
 ],
						"lines" : [ 							{
								"patchline" : 								{
									"destination" : [ "obj-17", 0 ],
									"source" : [ "obj-10", 0 ]
								}

							}
, 							{
								"patchline" : 								{
									"destination" : [ "obj-14", 0 ],
									"source" : [ "obj-12", 1 ]
								}

							}
, 							{
								"patchline" : 								{
									"destination" : [ "obj-18", 0 ],
									"order" : 1,
									"source" : [ "obj-14", 0 ]
								}

							}
, 							{
								"patchline" : 								{
									"destination" : [ "obj-19", 0 ],
									"order" : 0,
									"source" : [ "obj-14", 0 ]
								}

							}
, 							{
								"patchline" : 								{
									"destination" : [ "obj-18", 1 ],
									"order" : 1,
									"source" : [ "obj-17", 0 ]
								}

							}
, 							{
								"patchline" : 								{
									"destination" : [ "obj-19", 1 ],
									"order" : 0,
									"source" : [ "obj-17", 0 ]
								}

							}
, 							{
								"patchline" : 								{
									"destination" : [ "obj-20", 0 ],
									"source" : [ "obj-18", 0 ]
								}

							}
, 							{
								"patchline" : 								{
									"destination" : [ "obj-20", 1 ],
									"source" : [ "obj-19", 0 ]
								}

							}
, 							{
								"patchline" : 								{
									"destination" : [ "obj-25", 0 ],
									"source" : [ "obj-20", 0 ]
								}

							}
, 							{
								"patchline" : 								{
									"destination" : [ "obj-10", 0 ],
									"source" : [ "obj-21", 1 ]
								}

							}
, 							{
								"patchline" : 								{
									"destination" : [ "obj-5", 0 ],
									"source" : [ "obj-21", 0 ]
								}

							}
, 							{
								"patchline" : 								{
									"destination" : [ "obj-26", 0 ],
									"source" : [ "obj-22", 0 ]
								}

							}
, 							{
								"patchline" : 								{
									"destination" : [ "obj-22", 0 ],
									"source" : [ "obj-25", 0 ]
								}

							}
, 							{
								"patchline" : 								{
									"destination" : [ "obj-12", 0 ],
									"source" : [ "obj-5", 0 ]
								}

							}
, 							{
								"patchline" : 								{
									"destination" : [ "obj-21", 0 ],
									"source" : [ "obj-8", 0 ]
								}

							}
 ]
					}
,
					"patching_rect" : [ 471.5, 1041.5, 93.0, 23.0 ],
					"saved_object_attributes" : 					{
						"description" : "",
						"digest" : "",
						"fontsize" : 11.595186999999999,
						"globalpatchername" : "",
						"tags" : ""
					}
,
					"text" : "patcher About"
				}

			}
, 			{
				"box" : 				{
					"id" : "obj-36",
					"maxclass" : "newobj",
					"numinlets" : 1,
					"numoutlets" : 1,
					"outlettype" : [ "" ],
					"patching_rect" : [ 471.5, 896.5, 70.0, 22.0 ],
					"text" : "loadmess 0"
				}

			}
, 			{
				"box" : 				{
					"id" : "obj-37",
					"maxclass" : "newobj",
					"numinlets" : 1,
					"numoutlets" : 5,
					"outlettype" : [ "int", "int", "int", "int", "int" ],
					"patching_rect" : [ 471.5, 926.166625999999951, 209.0, 22.0 ],
					"save" : [ "#N", "menubar", 5, 0, ";", "#X", "about", "About", "Groovin", ";", "#X", "closeitem", ";", "#X", "menutitle", 5, "Modules", ";", "#X", "item", 5, 1, "Basic", ";", "#X", "item", 5, 2, "Modular", ";", "#X", "item", 5, 3, "Granular", ";", "#X", "item", 5, 4, "-", ";", "#X", "item", 5, 5, "Documentation", ";", "#X", "end", ";" ],
					"text" : "menubar 5"
				}

			}
, 			{
				"box" : 				{
					"id" : "obj-38",
					"maxclass" : "newobj",
					"numinlets" : 1,
					"numoutlets" : 0,
					"patching_rect" : [ 790.0, 858.5, 67.0, 22.0 ],
					"saved_object_attributes" : 					{
						"allwindowsactive" : 0,
						"appicon_mac" : "Macintosh HD:/Users/sa/Documents/Max 8/Projects/Groovin/media/groovin.icns",
						"appicon_win" : "",
						"audiosupport" : 1,
						"bundleidentifier" : "me.shax.groovin",
						"cantclosetoplevelpatchers" : 1,
						"cefsupport" : 0,
						"copysupport" : 0,
						"database" : 0,
						"extensions" : 1,
						"gensupport" : 0,
						"midisupport" : 1,
						"noloadbangdefeating" : 1,
						"overdrive" : 0,
						"preffilename" : "Groovin Preferences",
						"searchformissingfiles" : 1,
						"statusvisible" : 0,
						"usesearchpath" : 0
					}
,
					"text" : "standalone"
				}

			}
, 			{
				"box" : 				{
					"id" : "obj-30",
					"maxclass" : "newobj",
					"numinlets" : 1,
					"numoutlets" : 2,
					"outlettype" : [ "", "" ],
					"patching_rect" : [ 839.0, 479.0, 67.0, 22.0 ],
					"save" : [ "#N", "thispatcher", ";", "#Q", "end", ";" ],
					"text" : "thispatcher"
				}

			}
, 			{
				"box" : 				{
					"id" : "obj-29",
					"maxclass" : "newobj",
					"numinlets" : 1,
					"numoutlets" : 1,
					"outlettype" : [ "" ],
					"patching_rect" : [ 863.0, 344.0, 355.0, 22.0 ],
					"text" : "sprintf script sendbox channel4 replace grv_chan_%s_bp.maxpat"
				}

			}
, 			{
				"box" : 				{
					"id" : "obj-28",
					"maxclass" : "newobj",
					"numinlets" : 1,
					"numoutlets" : 1,
					"outlettype" : [ "" ],
					"patching_rect" : [ 863.0, 261.0, 355.0, 22.0 ],
					"text" : "sprintf script sendbox channel3 replace grv_chan_%s_bp.maxpat"
				}

			}
, 			{
				"box" : 				{
					"id" : "obj-26",
					"maxclass" : "newobj",
					"numinlets" : 1,
					"numoutlets" : 1,
					"outlettype" : [ "" ],
					"patching_rect" : [ 863.0, 172.0, 355.0, 22.0 ],
					"text" : "sprintf script sendbox channel2 replace grv_chan_%s_bp.maxpat"
				}

			}
, 			{
				"box" : 				{
					"id" : "obj-21",
					"maxclass" : "newobj",
					"numinlets" : 1,
					"numoutlets" : 1,
					"outlettype" : [ "" ],
					"patching_rect" : [ 863.0, 92.0, 355.0, 22.0 ],
					"text" : "sprintf script sendbox channel1 replace grv_chan_%s_bp.maxpat"
				}

			}
, 			{
				"box" : 				{
					"fontsize" : 11.0,
					"id" : "obj-24",
					"items" : [ "loop1", ",", "loop2", ",", "loop3", ",", "grain1", ",", "instr1", ",", "instr2" ],
					"maxclass" : "umenu",
					"numinlets" : 1,
					"numoutlets" : 3,
					"outlettype" : [ "int", "", "" ],
					"parameter_enable" : 0,
					"patching_rect" : [ 863.0, 308.0, 62.0, 21.0 ],
					"presentation" : 1,
					"presentation_rect" : [ 260.0, 12.0, 54.0, 21.0 ]
				}

			}
, 			{
				"box" : 				{
					"fontsize" : 11.0,
					"id" : "obj-17",
					"items" : [ "loop1", ",", "loop2", ",", "loop3", ",", "grain1", ",", "instr1", ",", "instr2" ],
					"maxclass" : "umenu",
					"numinlets" : 1,
					"numoutlets" : 3,
					"outlettype" : [ "int", "", "" ],
					"parameter_enable" : 0,
					"patching_rect" : [ 863.0, 222.0, 62.0, 21.0 ],
					"presentation" : 1,
					"presentation_rect" : [ 180.0, 12.0, 54.0, 21.0 ]
				}

			}
, 			{
				"box" : 				{
					"fontsize" : 11.0,
					"id" : "obj-16",
					"items" : [ "loop1", ",", "loop2", ",", "loop3", ",", "grain1", ",", "instr1", ",", "instr2" ],
					"maxclass" : "umenu",
					"numinlets" : 1,
					"numoutlets" : 3,
					"outlettype" : [ "int", "", "" ],
					"parameter_enable" : 0,
					"patching_rect" : [ 863.0, 135.0, 62.0, 21.0 ],
					"presentation" : 1,
					"presentation_rect" : [ 100.0, 12.0, 54.0, 21.0 ]
				}

			}
, 			{
				"box" : 				{
					"fontsize" : 11.0,
					"id" : "obj-13",
					"items" : [ "loop1", ",", "loop2", ",", "loop3", ",", "grain1", ",", "instr1", ",", "instr2" ],
					"maxclass" : "umenu",
					"numinlets" : 1,
					"numoutlets" : 3,
					"outlettype" : [ "int", "", "" ],
					"parameter_enable" : 0,
					"patching_rect" : [ 863.0, 55.5, 62.0, 21.0 ],
					"presentation" : 1,
					"presentation_rect" : [ 20.0, 12.0, 54.0, 21.0 ]
				}

			}
, 			{
				"box" : 				{
					"id" : "obj-5",
					"lastchannelcount" : 0,
					"maxclass" : "live.gain~",
					"numinlets" : 2,
					"numoutlets" : 5,
					"orientation" : 1,
					"outlettype" : [ "signal", "signal", "", "float", "list" ],
					"parameter_enable" : 1,
					"patching_rect" : [ 251.5, 894.5, 129.0, 26.0 ],
					"presentation" : 1,
					"presentation_rect" : [ 464.333333333333371, 713.5, 239.0, 26.0 ],
					"saved_attribute_attributes" : 					{
						"valueof" : 						{
							"parameter_mmin" : -70.0,
							"parameter_longname" : "live.gain~",
							"parameter_mmax" : 6.0,
							"parameter_shortname" : "live.gain~",
							"parameter_type" : 0,
							"parameter_unitstyle" : 4
						}

					}
,
					"showname" : 0,
					"shownumber" : 0,
					"textcolor" : [ 0.996078431372549, 0.996078431372549, 0.996078431372549, 1.0 ],
					"varname" : "live.gain~"
				}

			}
, 			{
				"box" : 				{
					"id" : "obj-20",
					"maxclass" : "textbutton",
					"numinlets" : 1,
					"numoutlets" : 3,
					"outlettype" : [ "", "", "int" ],
					"parameter_enable" : 0,
					"patching_rect" : [ 876.0, 824.0, 100.0, 20.0 ],
					"presentation" : 1,
					"presentation_rect" : [ 653.5, 740.5, 49.0, 21.0 ],
					"text" : "settings",
					"texton" : "settings"
				}

			}
, 			{
				"box" : 				{
					"id" : "obj-3",
					"maxclass" : "ezdac~",
					"numinlets" : 2,
					"numoutlets" : 0,
					"patching_rect" : [ 329.5, 1055.5, 45.0, 45.0 ],
					"presentation" : 1,
					"presentation_rect" : [ 707.333333333333371, 720.0, 38.5, 38.5 ]
				}

			}
, 			{
				"box" : 				{
					"id" : "obj-7",
					"maxclass" : "textbutton",
					"mode" : 1,
					"numinlets" : 1,
					"numoutlets" : 3,
					"outlettype" : [ "", "", "int" ],
					"parameter_enable" : 0,
					"patching_rect" : [ 297.0, 946.0, 45.0, 23.0 ],
					"presentation" : 1,
					"presentation_rect" : [ 505.500000000000114, 740.5, 45.0, 23.0 ],
					"text" : "REC",
					"texton" : "REC",
					"textoncolor" : [ 0.996078431372549, 0.388235294117647, 0.388235294117647, 1.0 ]
				}

			}
, 			{
				"box" : 				{
					"fontsize" : 13.0,
					"id" : "obj-14",
					"maxclass" : "message",
					"numinlets" : 2,
					"numoutlets" : 1,
					"outlettype" : [ "" ],
					"patching_rect" : [ 311.0, 1012.5, 76.0, 23.0 ],
					"presentation" : 1,
					"presentation_rect" : [ 552.500000000000114, 740.5, 99.0, 23.0 ],
					"text" : "0 0 0 0",
					"textjustification" : 1
				}

			}
, 			{
				"box" : 				{
					"fontname" : "Arial",
					"fontsize" : 13.0,
					"id" : "obj-32",
					"maxclass" : "message",
					"numinlets" : 2,
					"numoutlets" : 1,
					"outlettype" : [ "" ],
					"patching_rect" : [ 355.5, 946.0, 38.0, 23.0 ],
					"presentation" : 1,
					"presentation_rect" : [ 464.500000000000114, 740.5, 39.0, 23.0 ],
					"text" : "open"
				}

			}
, 			{
				"box" : 				{
					"angle" : 270.0,
					"grad1" : [ 0.254901960784314, 0.254901960784314, 0.254901960784314, 1.0 ],
					"grad2" : [ 0.2, 0.2, 0.2, 1.0 ],
					"id" : "obj-4",
					"maxclass" : "panel",
					"mode" : 1,
					"numinlets" : 1,
					"numoutlets" : 0,
					"patching_rect" : [ 566.0, 825.0, 291.0, 18.0 ],
					"presentation" : 1,
					"presentation_rect" : [ 456.91666666666697, 710.375, 293.08333333333303, 57.625 ],
					"proportion" : 0.5
				}

			}
, 			{
				"box" : 				{
					"bgmode" : 0,
					"border" : 0,
					"clickthrough" : 0,
					"enablehscroll" : 0,
					"enablevscroll" : 0,
					"id" : "obj-11",
					"lockeddragscroll" : 0,
					"maxclass" : "bpatcher",
					"name" : "grv_chan_karma_bp.maxpat",
					"numinlets" : 1,
					"numoutlets" : 1,
					"offset" : [ 0.0, 0.0 ],
					"outlettype" : [ "signal" ],
					"patching_rect" : [ 36.0, 691.0, 779.0, 105.0 ],
					"presentation" : 1,
					"presentation_rect" : [ 15.0, 594.0, 750.0, 111.0 ],
					"varname" : "mixer",
					"viewvisibility" : 1
				}

			}
, 			{
				"box" : 				{
					"bgmode" : 0,
					"border" : 0,
					"clickthrough" : 0,
					"enablehscroll" : 0,
					"enablevscroll" : 0,
					"id" : "obj-9",
					"lockeddragscroll" : 0,
					"maxclass" : "bpatcher",
					"name" : "grv_fx_reverb_bp.maxpat",
					"numinlets" : 1,
					"numoutlets" : 2,
					"offset" : [ 0.0, 0.0 ],
					"outlettype" : [ "signal", "signal" ],
					"patching_rect" : [ 247.0, 824.0, 280.0, 47.0 ],
					"presentation" : 1,
					"presentation_rect" : [ 15.0, 721.0, 438.0, 48.0 ],
					"viewvisibility" : 1
				}

			}
, 			{
				"box" : 				{
					"id" : "obj-57",
					"maxclass" : "newobj",
					"numinlets" : 3,
					"numoutlets" : 3,
					"outlettype" : [ "signal", "", "signal" ],
					"patcher" : 					{
						"fileversion" : 1,
						"appversion" : 						{
							"major" : 8,
							"minor" : 1,
							"revision" : 1,
							"architecture" : "x64",
							"modernui" : 1
						}
,
						"classnamespace" : "box",
						"rect" : [ 84.0, 104.0, 640.0, 480.0 ],
						"bglocked" : 0,
						"openinpresentation" : 0,
						"default_fontsize" : 12.0,
						"default_fontface" : 0,
						"default_fontname" : "Arial",
						"gridonopen" : 1,
						"gridsize" : [ 15.0, 15.0 ],
						"gridsnaponopen" : 1,
						"objectsnaponopen" : 1,
						"statusbarvisible" : 2,
						"toolbarvisible" : 1,
						"lefttoolbarpinned" : 0,
						"toptoolbarpinned" : 0,
						"righttoolbarpinned" : 0,
						"bottomtoolbarpinned" : 0,
						"toolbars_unpinned_last_save" : 0,
						"tallnewobj" : 0,
						"boxanimatetime" : 200,
						"enablehscroll" : 1,
						"enablevscroll" : 1,
						"devicewidth" : 0.0,
						"description" : "",
						"digest" : "",
						"tags" : "",
						"style" : "",
						"subpatcher_template" : "",
						"boxes" : [ 							{
								"box" : 								{
									"fontface" : 0,
									"fontname" : "Arial",
									"fontsize" : 13.0,
									"id" : "obj-8",
									"maxclass" : "number~",
									"mode" : 2,
									"numinlets" : 2,
									"numoutlets" : 2,
									"outlettype" : [ "signal", "float" ],
									"patching_rect" : [ 183.0, 208.0, 59.0, 23.0 ],
									"sig" : 0.0
								}

							}
, 							{
								"box" : 								{
									"id" : "obj-11",
									"maxclass" : "newobj",
									"numinlets" : 1,
									"numoutlets" : 1,
									"outlettype" : [ "" ],
									"patching_rect" : [ 223.0, 258.0, 129.0, 22.0 ],
									"text" : "translate ms hh:mm:ss"
								}

							}
, 							{
								"box" : 								{
									"fontname" : "Arial",
									"fontsize" : 13.0,
									"id" : "obj-33",
									"maxclass" : "newobj",
									"numinlets" : 2,
									"numoutlets" : 1,
									"outlettype" : [ "signal" ],
									"patching_rect" : [ 183.0, 168.5, 84.0, 23.0 ],
									"text" : "sfrecord~ 2"
								}

							}
, 							{
								"box" : 								{
									"id" : "obj-16",
									"maxclass" : "newobj",
									"numinlets" : 3,
									"numoutlets" : 1,
									"outlettype" : [ "signal" ],
									"patching_rect" : [ 359.5, 86.0, 91.0, 22.0 ],
									"text" : "clip~ -0.95 0.95"
								}

							}
, 							{
								"box" : 								{
									"id" : "obj-15",
									"maxclass" : "newobj",
									"numinlets" : 3,
									"numoutlets" : 1,
									"outlettype" : [ "signal" ],
									"patching_rect" : [ 84.25, 86.0, 91.0, 22.0 ],
									"text" : "clip~ -0.95 0.95"
								}

							}
, 							{
								"box" : 								{
									"comment" : "",
									"id" : "obj-51",
									"index" : 2,
									"maxclass" : "inlet",
									"numinlets" : 0,
									"numoutlets" : 1,
									"outlettype" : [ "" ],
									"patching_rect" : [ 183.0, 26.0, 30.0, 30.0 ]
								}

							}
, 							{
								"box" : 								{
									"comment" : "",
									"id" : "obj-52",
									"index" : 1,
									"maxclass" : "inlet",
									"numinlets" : 0,
									"numoutlets" : 1,
									"outlettype" : [ "signal" ],
									"patching_rect" : [ 84.25, 26.0, 30.0, 30.0 ]
								}

							}
, 							{
								"box" : 								{
									"comment" : "",
									"id" : "obj-53",
									"index" : 3,
									"maxclass" : "inlet",
									"numinlets" : 0,
									"numoutlets" : 1,
									"outlettype" : [ "signal" ],
									"patching_rect" : [ 359.5, 26.0, 30.0, 30.0 ]
								}

							}
, 							{
								"box" : 								{
									"comment" : "",
									"id" : "obj-54",
									"index" : 1,
									"maxclass" : "outlet",
									"numinlets" : 1,
									"numoutlets" : 0,
									"patching_rect" : [ 84.25, 329.0, 30.0, 30.0 ]
								}

							}
, 							{
								"box" : 								{
									"comment" : "",
									"id" : "obj-55",
									"index" : 2,
									"maxclass" : "outlet",
									"numinlets" : 1,
									"numoutlets" : 0,
									"patching_rect" : [ 223.0, 329.0, 30.0, 30.0 ]
								}

							}
, 							{
								"box" : 								{
									"comment" : "",
									"id" : "obj-56",
									"index" : 3,
									"maxclass" : "outlet",
									"numinlets" : 1,
									"numoutlets" : 0,
									"patching_rect" : [ 359.5, 329.0, 30.0, 30.0 ]
								}

							}
 ],
						"lines" : [ 							{
								"patchline" : 								{
									"destination" : [ "obj-55", 0 ],
									"source" : [ "obj-11", 0 ]
								}

							}
, 							{
								"patchline" : 								{
									"destination" : [ "obj-33", 0 ],
									"order" : 0,
									"source" : [ "obj-15", 0 ]
								}

							}
, 							{
								"patchline" : 								{
									"destination" : [ "obj-54", 0 ],
									"order" : 1,
									"source" : [ "obj-15", 0 ]
								}

							}
, 							{
								"patchline" : 								{
									"destination" : [ "obj-33", 1 ],
									"order" : 1,
									"source" : [ "obj-16", 0 ]
								}

							}
, 							{
								"patchline" : 								{
									"destination" : [ "obj-56", 0 ],
									"order" : 0,
									"source" : [ "obj-16", 0 ]
								}

							}
, 							{
								"patchline" : 								{
									"destination" : [ "obj-8", 0 ],
									"source" : [ "obj-33", 0 ]
								}

							}
, 							{
								"patchline" : 								{
									"destination" : [ "obj-33", 0 ],
									"source" : [ "obj-51", 0 ]
								}

							}
, 							{
								"patchline" : 								{
									"destination" : [ "obj-15", 0 ],
									"source" : [ "obj-52", 0 ]
								}

							}
, 							{
								"patchline" : 								{
									"destination" : [ "obj-16", 0 ],
									"source" : [ "obj-53", 0 ]
								}

							}
, 							{
								"patchline" : 								{
									"destination" : [ "obj-11", 0 ],
									"source" : [ "obj-8", 1 ]
								}

							}
 ]
					}
,
					"patching_rect" : [ 293.0, 982.5, 118.0, 22.0 ],
					"saved_object_attributes" : 					{
						"description" : "",
						"digest" : "",
						"globalpatchername" : "",
						"tags" : ""
					}
,
					"text" : "p audio_recorder"
				}

			}
, 			{
				"box" : 				{
					"id" : "obj-18",
					"linecount" : 2,
					"maxclass" : "message",
					"numinlets" : 2,
					"numoutlets" : 1,
					"outlettype" : [ "" ],
					"patching_rect" : [ 876.0, 858.5, 64.0, 35.0 ],
					"text" : ";\rdsp open"
				}

			}
, 			{
				"box" : 				{
					"bgmode" : 0,
					"border" : 0,
					"clickthrough" : 0,
					"enablehscroll" : 0,
					"enablevscroll" : 0,
					"id" : "obj-10",
					"lockeddragscroll" : 0,
					"maxclass" : "bpatcher",
					"name" : "grv_chan_loop2_bp.maxpat",
					"numinlets" : 0,
					"numoutlets" : 1,
					"offset" : [ 0.0, 0.0 ],
					"outlettype" : [ "signal" ],
					"patching_rect" : [ 36.0, 529.0, 779.0, 149.0 ],
					"presentation" : 1,
					"presentation_rect" : [ 15.0, 452.0, 750.0, 135.0 ],
					"varname" : "channel4",
					"viewvisibility" : 1
				}

			}
, 			{
				"box" : 				{
					"bgmode" : 0,
					"border" : 0,
					"clickthrough" : 0,
					"enablehscroll" : 0,
					"enablevscroll" : 0,
					"id" : "obj-6",
					"lockeddragscroll" : 0,
					"maxclass" : "bpatcher",
					"name" : "grv_chan_loop1_bp.maxpat",
					"numinlets" : 0,
					"numoutlets" : 1,
					"offset" : [ 0.0, 0.0 ],
					"outlettype" : [ "signal" ],
					"patching_rect" : [ 36.0, 359.0, 779.0, 149.0 ],
					"presentation" : 1,
					"presentation_rect" : [ 15.0, 315.0, 750.0, 135.0 ],
					"varname" : "channel3",
					"viewvisibility" : 1
				}

			}
, 			{
				"box" : 				{
					"bgmode" : 0,
					"border" : 0,
					"clickthrough" : 0,
					"enablehscroll" : 0,
					"enablevscroll" : 0,
					"id" : "obj-2",
					"lockeddragscroll" : 0,
					"maxclass" : "bpatcher",
					"name" : "grv_chan_loop1_bp.maxpat",
					"numinlets" : 0,
					"numoutlets" : 1,
					"offset" : [ 0.0, 0.0 ],
					"outlettype" : [ "signal" ],
					"patching_rect" : [ 36.0, 191.0, 779.0, 148.0 ],
					"presentation" : 1,
					"presentation_rect" : [ 15.0, 178.0, 750.0, 135.0 ],
					"varname" : "channel2",
					"viewvisibility" : 1
				}

			}
, 			{
				"box" : 				{
					"bgmode" : 0,
					"border" : 0,
					"clickthrough" : 0,
					"enablehscroll" : 0,
					"enablevscroll" : 0,
					"id" : "obj-1",
					"lockeddragscroll" : 1,
					"maxclass" : "bpatcher",
					"name" : "grv_chan_loop1_bp.maxpat",
					"numinlets" : 0,
					"numoutlets" : 1,
					"offset" : [ 0.0, 0.0 ],
					"outlettype" : [ "signal" ],
					"patching_rect" : [ 36.0, 24.0, 779.0, 149.0 ],
					"presentation" : 1,
					"presentation_rect" : [ 15.0, 43.0, 750.0, 133.0 ],
					"varname" : "channel1",
					"viewvisibility" : 1
				}

			}
, 			{
				"box" : 				{
					"angle" : 270.0,
					"bgcolor" : [ 0.105882352941176, 0.105882352941176, 0.105882352941176, 1.0 ],
					"id" : "obj-44",
					"maxclass" : "panel",
					"mode" : 0,
					"numinlets" : 1,
					"numoutlets" : 0,
					"patching_rect" : [ 566.0, 850.0, 198.0, 21.0 ],
					"presentation" : 1,
					"presentation_rect" : [ -26.0, -9.0, 798.0, 788.0 ],
					"proportion" : 0.5
				}

			}
 ],
		"lines" : [ 			{
				"patchline" : 				{
					"destination" : [ "obj-39", 3 ],
					"source" : [ "obj-10", 0 ]
				}

			}
, 			{
				"patchline" : 				{
					"destination" : [ "obj-9", 0 ],
					"source" : [ "obj-11", 0 ]
				}

			}
, 			{
				"patchline" : 				{
					"destination" : [ "obj-23", 0 ],
					"source" : [ "obj-12", 0 ]
				}

			}
, 			{
				"patchline" : 				{
					"destination" : [ "obj-21", 0 ],
					"midpoints" : [ 894.0, 84.75, 872.5, 84.75 ],
					"source" : [ "obj-13", 1 ]
				}

			}
, 			{
				"patchline" : 				{
					"destination" : [ "obj-19", 0 ],
					"midpoints" : [ 671.0, 992.166625999999951, 671.0, 992.166625999999951 ],
					"source" : [ "obj-15", 0 ]
				}

			}
, 			{
				"patchline" : 				{
					"destination" : [ "obj-26", 0 ],
					"midpoints" : [ 894.0, 164.0, 872.5, 164.0 ],
					"source" : [ "obj-16", 1 ]
				}

			}
, 			{
				"patchline" : 				{
					"destination" : [ "obj-28", 0 ],
					"midpoints" : [ 894.0, 252.0, 872.5, 252.0 ],
					"source" : [ "obj-17", 1 ]
				}

			}
, 			{
				"patchline" : 				{
					"destination" : [ "obj-12", 0 ],
					"source" : [ "obj-19", 0 ]
				}

			}
, 			{
				"patchline" : 				{
					"destination" : [ "obj-25", 0 ],
					"source" : [ "obj-19", 3 ]
				}

			}
, 			{
				"patchline" : 				{
					"destination" : [ "obj-8", 0 ],
					"source" : [ "obj-19", 1 ]
				}

			}
, 			{
				"patchline" : 				{
					"destination" : [ "obj-18", 0 ],
					"source" : [ "obj-20", 0 ]
				}

			}
, 			{
				"patchline" : 				{
					"destination" : [ "obj-30", 0 ],
					"midpoints" : [ 872.5, 125.5, 848.5, 125.5 ],
					"source" : [ "obj-21", 0 ]
				}

			}
, 			{
				"patchline" : 				{
					"destination" : [ "obj-27", 0 ],
					"source" : [ "obj-22", 0 ]
				}

			}
, 			{
				"patchline" : 				{
					"destination" : [ "obj-29", 0 ],
					"midpoints" : [ 894.0, 336.5, 872.5, 336.5 ],
					"source" : [ "obj-24", 1 ]
				}

			}
, 			{
				"patchline" : 				{
					"destination" : [ "obj-22", 0 ],
					"source" : [ "obj-25", 0 ]
				}

			}
, 			{
				"patchline" : 				{
					"destination" : [ "obj-30", 0 ],
					"midpoints" : [ 872.5, 209.5, 848.5, 209.5 ],
					"source" : [ "obj-26", 0 ]
				}

			}
, 			{
				"patchline" : 				{
					"destination" : [ "obj-30", 0 ],
					"midpoints" : [ 872.5, 295.0, 848.5, 295.0 ],
					"source" : [ "obj-28", 0 ]
				}

			}
, 			{
				"patchline" : 				{
					"destination" : [ "obj-30", 0 ],
					"midpoints" : [ 872.5, 379.5, 848.5, 379.5 ],
					"source" : [ "obj-29", 0 ]
				}

			}
, 			{
				"patchline" : 				{
					"destination" : [ "obj-33", 0 ],
					"source" : [ "obj-31", 0 ]
				}

			}
, 			{
				"patchline" : 				{
					"destination" : [ "obj-57", 1 ],
					"midpoints" : [ 365.0, 975.25, 352.0, 975.25 ],
					"source" : [ "obj-32", 0 ]
				}

			}
, 			{
				"patchline" : 				{
					"destination" : [ "obj-34", 0 ],
					"source" : [ "obj-33", 0 ]
				}

			}
, 			{
				"patchline" : 				{
					"destination" : [ "obj-35", 0 ],
					"source" : [ "obj-34", 0 ]
				}

			}
, 			{
				"patchline" : 				{
					"destination" : [ "obj-37", 0 ],
					"source" : [ "obj-36", 0 ]
				}

			}
, 			{
				"patchline" : 				{
					"destination" : [ "obj-15", 0 ],
					"source" : [ "obj-37", 4 ]
				}

			}
, 			{
				"patchline" : 				{
					"destination" : [ "obj-31", 0 ],
					"source" : [ "obj-37", 0 ]
				}

			}
, 			{
				"patchline" : 				{
					"destination" : [ "obj-11", 0 ],
					"source" : [ "obj-39", 0 ]
				}

			}
, 			{
				"patchline" : 				{
					"destination" : [ "obj-5", 1 ],
					"order" : 0,
					"source" : [ "obj-39", 2 ]
				}

			}
, 			{
				"patchline" : 				{
					"destination" : [ "obj-5", 0 ],
					"order" : 1,
					"source" : [ "obj-39", 2 ]
				}

			}
, 			{
				"patchline" : 				{
					"destination" : [ "obj-9", 0 ],
					"source" : [ "obj-39", 1 ]
				}

			}
, 			{
				"patchline" : 				{
					"destination" : [ "obj-49", 1 ],
					"midpoints" : [ 195.141666666666652, 1040.5, 166.891666666666652, 1040.5 ],
					"source" : [ "obj-41", 0 ]
				}

			}
, 			{
				"patchline" : 				{
					"destination" : [ "obj-66", 0 ],
					"source" : [ "obj-42", 0 ]
				}

			}
, 			{
				"patchline" : 				{
					"destination" : [ "obj-39", 0 ],
					"source" : [ "obj-43", 0 ]
				}

			}
, 			{
				"patchline" : 				{
					"destination" : [ "obj-43", 0 ],
					"source" : [ "obj-45", 0 ]
				}

			}
, 			{
				"patchline" : 				{
					"destination" : [ "obj-48", 0 ],
					"source" : [ "obj-46", 0 ]
				}

			}
, 			{
				"patchline" : 				{
					"destination" : [ "obj-45", 0 ],
					"source" : [ "obj-47", 0 ]
				}

			}
, 			{
				"patchline" : 				{
					"destination" : [ "obj-57", 2 ],
					"midpoints" : [ 288.5, 936.75, 401.5, 936.75 ],
					"source" : [ "obj-5", 1 ]
				}

			}
, 			{
				"patchline" : 				{
					"destination" : [ "obj-57", 0 ],
					"midpoints" : [ 261.0, 974.75, 302.5, 974.75 ],
					"source" : [ "obj-5", 0 ]
				}

			}
, 			{
				"patchline" : 				{
					"destination" : [ "obj-46", 0 ],
					"source" : [ "obj-51", 0 ]
				}

			}
, 			{
				"patchline" : 				{
					"destination" : [ "obj-54", 0 ],
					"source" : [ "obj-52", 0 ]
				}

			}
, 			{
				"patchline" : 				{
					"destination" : [ "obj-50", 0 ],
					"midpoints" : [ 1056.5, 1014.320495617187476, 1003.0, 1014.320495617187476 ],
					"source" : [ "obj-53", 0 ]
				}

			}
, 			{
				"patchline" : 				{
					"destination" : [ "obj-61", 0 ],
					"source" : [ "obj-54", 0 ]
				}

			}
, 			{
				"patchline" : 				{
					"destination" : [ "obj-50", 0 ],
					"midpoints" : [ 1089.5, 1014.320495617187476, 1003.0, 1014.320495617187476 ],
					"source" : [ "obj-55", 0 ]
				}

			}
, 			{
				"patchline" : 				{
					"destination" : [ "obj-59", 0 ],
					"source" : [ "obj-56", 0 ]
				}

			}
, 			{
				"patchline" : 				{
					"destination" : [ "obj-14", 1 ],
					"source" : [ "obj-57", 1 ]
				}

			}
, 			{
				"patchline" : 				{
					"destination" : [ "obj-3", 1 ],
					"midpoints" : [ 401.5, 1044.5, 365.0, 1044.5 ],
					"source" : [ "obj-57", 2 ]
				}

			}
, 			{
				"patchline" : 				{
					"destination" : [ "obj-3", 0 ],
					"midpoints" : [ 302.5, 1045.5, 339.0, 1045.5 ],
					"source" : [ "obj-57", 0 ]
				}

			}
, 			{
				"patchline" : 				{
					"destination" : [ "obj-63", 0 ],
					"source" : [ "obj-58", 0 ]
				}

			}
, 			{
				"patchline" : 				{
					"destination" : [ "obj-62", 0 ],
					"source" : [ "obj-59", 0 ]
				}

			}
, 			{
				"patchline" : 				{
					"destination" : [ "obj-39", 2 ],
					"source" : [ "obj-6", 0 ]
				}

			}
, 			{
				"patchline" : 				{
					"destination" : [ "obj-49", 0 ],
					"source" : [ "obj-63", 0 ]
				}

			}
, 			{
				"patchline" : 				{
					"destination" : [ "obj-58", 0 ],
					"source" : [ "obj-64", 0 ]
				}

			}
, 			{
				"patchline" : 				{
					"destination" : [ "obj-49", 0 ],
					"source" : [ "obj-65", 0 ]
				}

			}
, 			{
				"patchline" : 				{
					"destination" : [ "obj-51", 0 ],
					"source" : [ "obj-66", 0 ]
				}

			}
, 			{
				"patchline" : 				{
					"destination" : [ "obj-52", 0 ],
					"source" : [ "obj-66", 1 ]
				}

			}
, 			{
				"patchline" : 				{
					"destination" : [ "obj-56", 0 ],
					"source" : [ "obj-66", 2 ]
				}

			}
, 			{
				"patchline" : 				{
					"destination" : [ "obj-41", 0 ],
					"source" : [ "obj-67", 0 ]
				}

			}
, 			{
				"patchline" : 				{
					"destination" : [ "obj-48", 0 ],
					"midpoints" : [ 848.5, 709.0, 959.75, 709.0 ],
					"source" : [ "obj-68", 0 ]
				}

			}
, 			{
				"patchline" : 				{
					"destination" : [ "obj-57", 1 ],
					"midpoints" : [ 306.5, 975.25, 352.0, 975.25 ],
					"source" : [ "obj-7", 0 ]
				}

			}
, 			{
				"patchline" : 				{
					"destination" : [ "obj-75", 0 ],
					"source" : [ "obj-70", 0 ]
				}

			}
, 			{
				"patchline" : 				{
					"destination" : [ "obj-48", 1 ],
					"midpoints" : [ 872.5, 722.5, 1020.75, 722.5 ],
					"source" : [ "obj-71", 0 ]
				}

			}
, 			{
				"patchline" : 				{
					"destination" : [ "obj-77", 0 ],
					"midpoints" : [ 935.5, 966.083312999999976, 935.5, 966.083312999999976 ],
					"source" : [ "obj-74", 0 ]
				}

			}
, 			{
				"patchline" : 				{
					"destination" : [ "obj-53", 0 ],
					"midpoints" : [ 1055.5, 905.833312999999976, 1056.5, 905.833312999999976 ],
					"source" : [ "obj-75", 2 ]
				}

			}
, 			{
				"patchline" : 				{
					"destination" : [ "obj-55", 0 ],
					"midpoints" : [ 1066.0, 905.833312999999976, 1089.5, 905.833312999999976 ],
					"source" : [ "obj-75", 3 ]
				}

			}
, 			{
				"patchline" : 				{
					"destination" : [ "obj-74", 0 ],
					"midpoints" : [ 1034.5, 905.833312999999976, 935.5, 905.833312999999976 ],
					"source" : [ "obj-75", 0 ]
				}

			}
, 			{
				"patchline" : 				{
					"destination" : [ "obj-78", 0 ],
					"midpoints" : [ 1045.0, 905.833312999999976, 1003.0, 905.833312999999976 ],
					"source" : [ "obj-75", 1 ]
				}

			}
, 			{
				"patchline" : 				{
					"destination" : [ "obj-50", 0 ],
					"midpoints" : [ 935.5, 1012.7371826171875, 1003.0, 1012.7371826171875 ],
					"source" : [ "obj-77", 0 ]
				}

			}
, 			{
				"patchline" : 				{
					"destination" : [ "obj-50", 0 ],
					"midpoints" : [ 1003.0, 989.320495617187476, 1003.0, 989.320495617187476 ],
					"source" : [ "obj-78", 0 ]
				}

			}
, 			{
				"patchline" : 				{
					"destination" : [ "obj-70", 0 ],
					"source" : [ "obj-79", 0 ]
				}

			}
, 			{
				"patchline" : 				{
					"destination" : [ "obj-23", 0 ],
					"source" : [ "obj-8", 0 ]
				}

			}
, 			{
				"patchline" : 				{
					"destination" : [ "obj-83", 0 ],
					"midpoints" : [ 894.25, 431.0, 872.75, 431.0 ],
					"source" : [ "obj-81", 1 ]
				}

			}
, 			{
				"patchline" : 				{
					"destination" : [ "obj-30", 0 ],
					"midpoints" : [ 872.75, 469.0, 848.5, 469.0 ],
					"source" : [ "obj-83", 0 ]
				}

			}
, 			{
				"patchline" : 				{
					"destination" : [ "obj-5", 1 ],
					"source" : [ "obj-9", 1 ]
				}

			}
, 			{
				"patchline" : 				{
					"destination" : [ "obj-5", 0 ],
					"source" : [ "obj-9", 0 ]
				}

			}
 ],
		"parameters" : 		{
			"obj-5" : [ "live.gain~", "live.gain~", 0 ],
			"obj-10::obj-3::obj-1" : [ "vst~[3]", "vst~", 0 ],
			"parameterbanks" : 			{

			}

		}
,
		"dependency_cache" : [ 			{
				"name" : "grv_chan_loop1_bp.maxpat",
				"bootpath" : "~/Documents/Max 8/Projects/Groovin/patchers",
				"patcherrelativepath" : ".",
				"type" : "JSON",
				"implicit" : 1
			}
, 			{
				"name" : "grv_fx_delay_bp.maxpat",
				"bootpath" : "~/Documents/Max 8/Projects/Groovin/patchers",
				"patcherrelativepath" : ".",
				"type" : "JSON",
				"implicit" : 1
			}
, 			{
				"name" : "M4L.vdelay~.maxpat",
				"bootpath" : "C74:/patchers/m4l/Tools resources",
				"type" : "JSON",
				"implicit" : 1
			}
, 			{
				"name" : "grv_filter_biquad_bp.maxpat",
				"bootpath" : "~/Documents/Max 8/Projects/Groovin/patchers",
				"patcherrelativepath" : ".",
				"type" : "JSON",
				"implicit" : 1
			}
, 			{
				"name" : "grv_mod_loop_bp.maxpat",
				"bootpath" : "~/Documents/Max 8/Projects/Groovin/patchers",
				"patcherrelativepath" : ".",
				"type" : "JSON",
				"implicit" : 1
			}
, 			{
				"name" : "wfmodes.png",
				"bootpath" : "~/Documents/Max 8/Projects/Groovin/media",
				"patcherrelativepath" : "../media",
				"type" : "PNG",
				"implicit" : 1
			}
, 			{
				"name" : "wfknob.png",
				"bootpath" : "~/Documents/Max 8/Projects/Groovin/media",
				"patcherrelativepath" : "../media",
				"type" : "PNG",
				"implicit" : 1
			}
, 			{
				"name" : "sl.ui_sample_menu.maxpat",
				"bootpath" : "~/Documents/Max 8/Projects/Groovin/patchers",
				"patcherrelativepath" : ".",
				"type" : "JSON",
				"implicit" : 1
			}
, 			{
				"name" : "grv_chan_loop3_bp.maxpat",
				"bootpath" : "~/Documents/Max 8/Projects/Groovin/patchers",
				"patcherrelativepath" : ".",
				"type" : "JSON",
				"implicit" : 1
			}
, 			{
				"name" : "grv_fx_plugin3_bp.maxpat",
				"bootpath" : "~/Documents/Max 8/Projects/Groovin/patchers",
				"patcherrelativepath" : ".",
				"type" : "JSON",
				"implicit" : 1
			}
, 			{
				"name" : "grv_chan_loop2_bp.maxpat",
				"bootpath" : "~/Documents/Max 8/Projects/Groovin/patchers",
				"patcherrelativepath" : ".",
				"type" : "JSON",
				"implicit" : 1
			}
, 			{
				"name" : "grv_fx_plugin2_bp.maxpat",
				"bootpath" : "~/Documents/Max 8/Projects/Groovin/patchers",
				"patcherrelativepath" : ".",
				"type" : "JSON",
				"implicit" : 1
			}
, 			{
				"name" : "grv_fx_reverb_bp.maxpat",
				"bootpath" : "~/Documents/Max 8/Projects/Groovin/patchers",
				"patcherrelativepath" : ".",
				"type" : "JSON",
				"implicit" : 1
			}
, 			{
				"name" : "grv_chan_karma_bp.maxpat",
				"bootpath" : "~/Documents/Max 8/Projects/Groovin/patchers",
				"patcherrelativepath" : ".",
				"type" : "JSON",
				"implicit" : 1
			}
, 			{
				"name" : "grv_filter_cascade_bp.maxpat",
				"bootpath" : "~/Documents/Max 8/Projects/Groovin/patchers",
				"patcherrelativepath" : ".",
				"type" : "JSON",
				"implicit" : 1
			}
, 			{
				"name" : "grv_mod_karma_bp.maxpat",
				"bootpath" : "~/Documents/Max 8/Projects/Groovin/patchers",
				"patcherrelativepath" : ".",
				"type" : "JSON",
				"implicit" : 1
			}
, 			{
				"name" : "gigaverb~.mxo",
				"type" : "iLaX"
			}
, 			{
				"name" : "karma~.mxo",
				"type" : "iLaX"
			}
 ],
		"autosave" : 0,
		"boxgroups" : [ 			{
				"boxes" : [ "obj-5", "obj-4", "obj-32", "obj-7", "obj-14", "obj-20", "obj-3" ]
			}
 ],
		"styles" : [ 			{
				"name" : "AudioStatus_Menu",
				"default" : 				{
					"bgfillcolor" : 					{
						"type" : "color",
						"color" : [ 0.294118, 0.313726, 0.337255, 1 ],
						"color1" : [ 0.454902, 0.462745, 0.482353, 0 ],
						"color2" : [ 0.290196, 0.309804, 0.301961, 1 ],
						"angle" : 270,
						"proportion" : 0.39,
						"autogradient" : 0
					}

				}
,
				"parentstyle" : "",
				"multi" : 0
			}
, 			{
				"name" : "ksliderWhite",
				"default" : 				{
					"color" : [ 1, 1, 1, 1 ]
				}
,
				"parentstyle" : "",
				"multi" : 0
			}
, 			{
				"name" : "messageBlue",
				"default" : 				{
					"bgfillcolor" : 					{
						"type" : "gradient",
						"color" : [ 0.290196, 0.309804, 0.301961, 1.0 ],
						"color1" : [ 0.317647, 0.654902, 0.976471, 1.0 ],
						"color2" : [ 0.290196, 0.309804, 0.301961, 1.0 ],
						"angle" : 270.0,
						"proportion" : 0.660494,
						"autogradient" : 0
					}

				}
,
				"parentstyle" : "",
				"multi" : 0
			}
, 			{
				"name" : "newobjBlue-1",
				"default" : 				{
					"accentcolor" : [ 0.317647, 0.654902, 0.976471, 1 ]
				}
,
				"parentstyle" : "",
				"multi" : 0
			}
, 			{
				"name" : "newobjGreen-1",
				"default" : 				{
					"accentcolor" : [ 0, 0.533333, 0.168627, 1 ]
				}
,
				"parentstyle" : "",
				"multi" : 0
			}
, 			{
				"name" : "numberGold-1",
				"default" : 				{
					"accentcolor" : [ 0.764706, 0.592157, 0.101961, 1 ]
				}
,
				"parentstyle" : "",
				"multi" : 0
			}
 ]
	}

}
