{
	"patcher" : 	{
		"fileversion" : 1,
		"appversion" : 		{
			"major" : 8,
			"minor" : 3,
			"revision" : 1,
			"architecture" : "x64",
			"modernui" : 1
		}
,
		"classnamespace" : "box",
		"rect" : [ 646.0, 79.0, 581.0, 756.0 ],
		"bglocked" : 0,
		"openinpresentation" : 1,
		"default_fontsize" : 12.0,
		"default_fontface" : 0,
		"default_fontname" : "Arial",
		"gridonopen" : 1,
		"gridsize" : [ 15.0, 15.0 ],
		"gridsnaponopen" : 1,
		"objectsnaponopen" : 1,
		"statusbarvisible" : 2,
		"toolbarvisible" : 1,
		"lefttoolbarpinned" : 0,
		"toptoolbarpinned" : 0,
		"righttoolbarpinned" : 0,
		"bottomtoolbarpinned" : 0,
		"toolbars_unpinned_last_save" : 0,
		"tallnewobj" : 0,
		"boxanimatetime" : 200,
		"enablehscroll" : 1,
		"enablevscroll" : 1,
		"devicewidth" : 0.0,
		"description" : "",
		"digest" : "",
		"tags" : "",
		"style" : "",
		"subpatcher_template" : "",
		"assistshowspatchername" : 0,
		"boxes" : [ 			{
				"box" : 				{
					"id" : "obj-5",
					"maxclass" : "message",
					"numinlets" : 2,
					"numoutlets" : 1,
					"outlettype" : [ "" ],
					"patching_rect" : [ 218.0, 116.0, 63.0, 22.0 ],
					"text" : "bypass $1"
				}

			}
, 			{
				"box" : 				{
					"fontsize" : 12.0,
					"id" : "obj-24",
					"maxclass" : "comment",
					"numinlets" : 1,
					"numoutlets" : 0,
					"patching_rect" : [ 55.5, 267.0, 149.0, 20.0 ],
					"presentation" : 1,
					"presentation_rect" : [ 276.0, 0.0, 51.0, 20.0 ],
					"text" : "spread",
					"textcolor" : [ 0.996078431372549, 0.996078431372549, 0.996078431372549, 1.0 ],
					"textjustification" : 1
				}

			}
, 			{
				"box" : 				{
					"fontsize" : 12.0,
					"id" : "obj-21",
					"maxclass" : "comment",
					"numinlets" : 1,
					"numoutlets" : 0,
					"patching_rect" : [ 55.5, 447.0, 151.0, 20.0 ],
					"presentation" : 1,
					"presentation_rect" : [ 66.0, 0.0, 51.0, 20.0 ],
					"text" : "dry",
					"textcolor" : [ 0.996078431372549, 0.996078431372549, 0.996078431372549, 1.0 ],
					"textjustification" : 1
				}

			}
, 			{
				"box" : 				{
					"fontsize" : 12.0,
					"id" : "obj-15",
					"maxclass" : "comment",
					"numinlets" : 1,
					"numoutlets" : 0,
					"patching_rect" : [ 52.5, 567.0, 156.0, 20.0 ],
					"presentation" : 1,
					"presentation_rect" : [ 432.0, 0.0, 51.0, 20.0 ],
					"text" : "tail",
					"textcolor" : [ 0.996078431372549, 0.996078431372549, 0.996078431372549, 1.0 ],
					"textjustification" : 1
				}

			}
, 			{
				"box" : 				{
					"fontsize" : 12.0,
					"id" : "obj-22",
					"maxclass" : "comment",
					"numinlets" : 1,
					"numoutlets" : 0,
					"patching_rect" : [ 58.5, 507.0, 150.0, 20.0 ],
					"presentation" : 1,
					"presentation_rect" : [ 380.0, 0.0, 51.0, 20.0 ],
					"text" : "early",
					"textcolor" : [ 0.996078431372549, 0.996078431372549, 0.996078431372549, 1.0 ],
					"textjustification" : 1
				}

			}
, 			{
				"box" : 				{
					"fontsize" : 12.0,
					"id" : "obj-10",
					"maxclass" : "comment",
					"numinlets" : 1,
					"numoutlets" : 0,
					"patching_rect" : [ 55.5, 327.0, 148.0, 20.0 ],
					"presentation" : 1,
					"presentation_rect" : [ 328.0, 0.0, 51.0, 20.0 ],
					"text" : "bwidth",
					"textcolor" : [ 0.996078431372549, 0.996078431372549, 0.996078431372549, 1.0 ],
					"textjustification" : 1
				}

			}
, 			{
				"box" : 				{
					"fontsize" : 12.0,
					"id" : "obj-23",
					"maxclass" : "comment",
					"numinlets" : 1,
					"numoutlets" : 0,
					"patching_rect" : [ 55.5, 207.0, 149.0, 20.0 ],
					"presentation" : 1,
					"presentation_rect" : [ 224.0, 0.0, 51.0, 20.0 ],
					"text" : "revtime",
					"textcolor" : [ 0.996078431372549, 0.996078431372549, 0.996078431372549, 1.0 ],
					"textjustification" : 1
				}

			}
, 			{
				"box" : 				{
					"fontsize" : 12.0,
					"id" : "obj-7",
					"maxclass" : "comment",
					"numinlets" : 1,
					"numoutlets" : 0,
					"patching_rect" : [ 55.5, 387.0, 150.0, 20.0 ],
					"presentation" : 1,
					"presentation_rect" : [ 171.0, 0.0, 51.0, 20.0 ],
					"text" : "damp",
					"textcolor" : [ 0.996078431372549, 0.996078431372549, 0.996078431372549, 1.0 ],
					"textjustification" : 1
				}

			}
, 			{
				"box" : 				{
					"fontsize" : 12.0,
					"id" : "obj-6",
					"maxclass" : "comment",
					"numinlets" : 1,
					"numoutlets" : 0,
					"patching_rect" : [ 55.5, 147.0, 150.0, 20.0 ],
					"presentation" : 1,
					"presentation_rect" : [ 119.0, 0.0, 51.0, 20.0 ],
					"text" : "size",
					"textcolor" : [ 0.996078431372549, 0.996078431372549, 0.996078431372549, 1.0 ],
					"textjustification" : 1
				}

			}
, 			{
				"box" : 				{
					"id" : "obj-17",
					"maxclass" : "newobj",
					"numinlets" : 2,
					"numoutlets" : 1,
					"outlettype" : [ "int" ],
					"patching_rect" : [ 218.0, 88.0, 33.0, 22.0 ],
					"text" : "== 1"
				}

			}
, 			{
				"box" : 				{
					"id" : "obj-14",
					"maxclass" : "preset",
					"numinlets" : 1,
					"numoutlets" : 5,
					"outlettype" : [ "preset", "int", "preset", "int", "" ],
					"patching_rect" : [ 181.0, 700.0, 52.0, 56.0 ],
					"presentation" : 1,
					"presentation_rect" : [ 1.0, 1.0, 64.0, 27.0 ]
				}

			}
, 			{
				"box" : 				{
					"id" : "obj-13",
					"maxclass" : "newobj",
					"numinlets" : 1,
					"numoutlets" : 1,
					"outlettype" : [ "" ],
					"patching_rect" : [ 181.0, 650.0, 70.0, 22.0 ],
					"text" : "loadmess 1"
				}

			}
, 			{
				"box" : 				{
					"id" : "obj-3",
					"maxclass" : "textbutton",
					"mode" : 1,
					"numinlets" : 1,
					"numoutlets" : 3,
					"outlettype" : [ "", "", "int" ],
					"parameter_enable" : 0,
					"patching_rect" : [ 218.0, 60.0, 53.0, 23.0 ],
					"presentation" : 1,
					"presentation_rect" : [ 1.0, 23.0, 64.0, 22.0 ],
					"text" : "bypass",
					"texton" : "bypass"
				}

			}
, 			{
				"box" : 				{
					"id" : "obj-12",
					"maxclass" : "newobj",
					"numinlets" : 1,
					"numoutlets" : 1,
					"outlettype" : [ "bang" ],
					"patching_rect" : [ 218.0, 34.5, 58.0, 22.0 ],
					"text" : "loadbang"
				}

			}
, 			{
				"box" : 				{
					"comment" : "",
					"id" : "obj-9",
					"index" : 0,
					"maxclass" : "inlet",
					"numinlets" : 0,
					"numoutlets" : 1,
					"outlettype" : [ "" ],
					"patching_rect" : [ 475.0, 30.5, 30.0, 30.0 ]
				}

			}
, 			{
				"box" : 				{
					"comment" : "",
					"id" : "obj-8",
					"index" : 0,
					"maxclass" : "inlet",
					"numinlets" : 0,
					"numoutlets" : 1,
					"outlettype" : [ "" ],
					"patching_rect" : [ 335.0, 30.5, 30.0, 30.0 ]
				}

			}
, 			{
				"box" : 				{
					"comment" : "",
					"id" : "obj-2",
					"index" : 0,
					"maxclass" : "outlet",
					"numinlets" : 1,
					"numoutlets" : 0,
					"patching_rect" : [ 276.0, 706.0, 30.0, 30.0 ]
				}

			}
, 			{
				"box" : 				{
					"comment" : "",
					"id" : "obj-1",
					"index" : 0,
					"maxclass" : "outlet",
					"numinlets" : 1,
					"numoutlets" : 0,
					"patching_rect" : [ 357.0, 706.0, 30.0, 30.0 ]
				}

			}
, 			{
				"box" : 				{
					"fontname" : "Lato",
					"fontsize" : 12.0,
					"format" : 6,
					"id" : "obj-104",
					"maxclass" : "flonum",
					"maximum" : 100.0,
					"minimum" : 0.0,
					"numinlets" : 1,
					"numoutlets" : 2,
					"outlettype" : [ "", "bang" ],
					"parameter_enable" : 0,
					"patching_rect" : [ 218.0, 267.0, 50.0, 23.0 ],
					"presentation" : 1,
					"presentation_rect" : [ 276.0, 22.0, 50.0, 23.0 ]
				}

			}
, 			{
				"box" : 				{
					"fontname" : "Lato",
					"fontsize" : 12.0,
					"id" : "obj-105",
					"maxclass" : "message",
					"numinlets" : 2,
					"numoutlets" : 1,
					"outlettype" : [ "" ],
					"patching_rect" : [ 218.0, 297.0, 65.0, 23.0 ],
					"text" : "spread $1"
				}

			}
, 			{
				"box" : 				{
					"fontname" : "Lato",
					"fontsize" : 12.0,
					"format" : 6,
					"id" : "obj-106",
					"maxclass" : "flonum",
					"maximum" : 1.0,
					"minimum" : 0.0,
					"numinlets" : 1,
					"numoutlets" : 2,
					"outlettype" : [ "", "bang" ],
					"parameter_enable" : 0,
					"patching_rect" : [ 218.0, 447.0, 50.0, 23.0 ],
					"presentation" : 1,
					"presentation_rect" : [ 67.0, 22.0, 50.0, 23.0 ]
				}

			}
, 			{
				"box" : 				{
					"fontname" : "Lato",
					"fontsize" : 12.0,
					"id" : "obj-107",
					"maxclass" : "message",
					"numinlets" : 2,
					"numoutlets" : 1,
					"outlettype" : [ "" ],
					"patching_rect" : [ 218.0, 477.0, 45.0, 23.0 ],
					"text" : "dry $1"
				}

			}
, 			{
				"box" : 				{
					"fontname" : "Lato",
					"fontsize" : 12.0,
					"format" : 6,
					"id" : "obj-108",
					"maxclass" : "flonum",
					"maximum" : 1.0,
					"minimum" : 0.0,
					"numinlets" : 1,
					"numoutlets" : 2,
					"outlettype" : [ "", "bang" ],
					"parameter_enable" : 0,
					"patching_rect" : [ 218.0, 567.0, 50.0, 23.0 ],
					"presentation" : 1,
					"presentation_rect" : [ 432.0, 22.0, 50.0, 23.0 ]
				}

			}
, 			{
				"box" : 				{
					"fontname" : "Lato",
					"fontsize" : 12.0,
					"id" : "obj-109",
					"maxclass" : "message",
					"numinlets" : 2,
					"numoutlets" : 1,
					"outlettype" : [ "" ],
					"patching_rect" : [ 218.0, 597.0, 43.0, 23.0 ],
					"text" : "tail $1"
				}

			}
, 			{
				"box" : 				{
					"fontname" : "Lato",
					"fontsize" : 12.0,
					"format" : 6,
					"id" : "obj-110",
					"maxclass" : "flonum",
					"maximum" : 1.0,
					"minimum" : 0.0,
					"numinlets" : 1,
					"numoutlets" : 2,
					"outlettype" : [ "", "bang" ],
					"parameter_enable" : 0,
					"patching_rect" : [ 218.0, 507.0, 50.0, 23.0 ],
					"presentation" : 1,
					"presentation_rect" : [ 379.0, 22.0, 50.0, 23.0 ]
				}

			}
, 			{
				"box" : 				{
					"fontname" : "Lato",
					"fontsize" : 12.0,
					"id" : "obj-111",
					"maxclass" : "message",
					"numinlets" : 2,
					"numoutlets" : 1,
					"outlettype" : [ "" ],
					"patching_rect" : [ 218.0, 537.0, 54.0, 23.0 ],
					"text" : "early $1"
				}

			}
, 			{
				"box" : 				{
					"fontname" : "Lato",
					"fontsize" : 12.0,
					"format" : 6,
					"id" : "obj-112",
					"maxclass" : "flonum",
					"minimum" : 0.1,
					"numinlets" : 1,
					"numoutlets" : 2,
					"outlettype" : [ "", "bang" ],
					"parameter_enable" : 0,
					"patching_rect" : [ 218.0, 207.0, 50.0, 23.0 ],
					"presentation" : 1,
					"presentation_rect" : [ 224.0, 22.0, 50.0, 23.0 ]
				}

			}
, 			{
				"box" : 				{
					"fontname" : "Lato",
					"fontsize" : 12.0,
					"id" : "obj-113",
					"maxclass" : "message",
					"numinlets" : 2,
					"numoutlets" : 1,
					"outlettype" : [ "" ],
					"patching_rect" : [ 218.0, 237.0, 68.0, 23.0 ],
					"text" : "revtime $1"
				}

			}
, 			{
				"box" : 				{
					"fontname" : "Lato",
					"fontsize" : 12.0,
					"format" : 6,
					"id" : "obj-114",
					"maxclass" : "flonum",
					"maximum" : 300.0,
					"minimum" : 0.1,
					"numinlets" : 1,
					"numoutlets" : 2,
					"outlettype" : [ "", "bang" ],
					"parameter_enable" : 0,
					"patching_rect" : [ 218.0, 147.0, 50.0, 23.0 ],
					"presentation" : 1,
					"presentation_rect" : [ 120.0, 22.0, 50.0, 23.0 ]
				}

			}
, 			{
				"box" : 				{
					"fontname" : "Lato",
					"fontsize" : 12.0,
					"id" : "obj-115",
					"maxclass" : "message",
					"numinlets" : 2,
					"numoutlets" : 1,
					"outlettype" : [ "" ],
					"patching_rect" : [ 218.0, 177.0, 78.0, 23.0 ],
					"text" : "roomsize $1"
				}

			}
, 			{
				"box" : 				{
					"fontname" : "Lato",
					"fontsize" : 12.0,
					"format" : 6,
					"id" : "obj-116",
					"maxclass" : "flonum",
					"maximum" : 1.0,
					"minimum" : 0.0,
					"numinlets" : 1,
					"numoutlets" : 2,
					"outlettype" : [ "", "bang" ],
					"parameter_enable" : 0,
					"patching_rect" : [ 218.0, 387.0, 50.0, 23.0 ],
					"presentation" : 1,
					"presentation_rect" : [ 172.0, 22.0, 50.0, 23.0 ]
				}

			}
, 			{
				"box" : 				{
					"fontname" : "Lato",
					"fontsize" : 12.0,
					"id" : "obj-117",
					"maxclass" : "message",
					"numinlets" : 2,
					"numoutlets" : 1,
					"outlettype" : [ "" ],
					"patching_rect" : [ 218.0, 417.0, 75.0, 23.0 ],
					"text" : "damping $1"
				}

			}
, 			{
				"box" : 				{
					"fontname" : "Lato",
					"fontsize" : 12.0,
					"format" : 6,
					"id" : "obj-11",
					"maxclass" : "flonum",
					"maximum" : 1.0,
					"minimum" : 0.0,
					"numinlets" : 1,
					"numoutlets" : 2,
					"outlettype" : [ "", "bang" ],
					"parameter_enable" : 0,
					"patching_rect" : [ 218.0, 327.0, 50.0, 23.0 ],
					"presentation" : 1,
					"presentation_rect" : [ 328.0, 22.0, 50.0, 23.0 ]
				}

			}
, 			{
				"box" : 				{
					"fontname" : "Lato",
					"fontsize" : 12.0,
					"id" : "obj-118",
					"maxclass" : "message",
					"numinlets" : 2,
					"numoutlets" : 1,
					"outlettype" : [ "" ],
					"patching_rect" : [ 218.0, 357.0, 84.0, 23.0 ],
					"text" : "bandwidth $1"
				}

			}
, 			{
				"box" : 				{
					"fontname" : "Lato",
					"fontsize" : 12.0,
					"id" : "obj-95",
					"maxclass" : "newobj",
					"numinlets" : 2,
					"numoutlets" : 2,
					"outlettype" : [ "signal", "signal" ],
					"patcher" : 					{
						"fileversion" : 1,
						"appversion" : 						{
							"major" : 8,
							"minor" : 3,
							"revision" : 1,
							"architecture" : "x64",
							"modernui" : 1
						}
,
						"classnamespace" : "dsp.gen",
						"rect" : [ 659.0, 93.0, 738.0, 773.0 ],
						"bglocked" : 0,
						"openinpresentation" : 0,
						"default_fontsize" : 12.0,
						"default_fontface" : 0,
						"default_fontname" : "Lato",
						"gridonopen" : 1,
						"gridsize" : [ 15.0, 15.0 ],
						"gridsnaponopen" : 1,
						"objectsnaponopen" : 1,
						"statusbarvisible" : 2,
						"toolbarvisible" : 1,
						"lefttoolbarpinned" : 0,
						"toptoolbarpinned" : 0,
						"righttoolbarpinned" : 0,
						"bottomtoolbarpinned" : 0,
						"toolbars_unpinned_last_save" : 0,
						"tallnewobj" : 0,
						"boxanimatetime" : 200,
						"enablehscroll" : 1,
						"enablevscroll" : 1,
						"devicewidth" : 0.0,
						"description" : "",
						"digest" : "",
						"tags" : "",
						"style" : "",
						"subpatcher_template" : "",
						"assistshowspatchername" : 0,
						"boxes" : [ 							{
								"box" : 								{
									"code" : "Param bypass(0, max=1, min=0);\nParam revtime(11, min=0.1);\nParam tail(0.25, max=1, min=0);\nParam damping(0.7, max=1, min=0);\nParam roomsize(75, max=300, min=0.1);\nParam dry(1, max=1, min=0);\nParam spread(23, max=100, min=0);\nParam bandwidth(0.5, max=1, min=0);\nParam early(0.25, max=1, min=0);\nDelay delay_1(48000);\nDelay delay_2(48000);\nDelay delay_3(48000);\nDelay delay_4(48000);\nDelay delay_5(48000);\nDelay delay_6(12000);\nDelay delay_7(10000);\nDelay delay_8(6000);\nDelay delay_9(16000);\nDelay delay_10(15000);\nDelay delay_11(7000);\nDelay delay_12(5000);\nHistory history_13(0);\nHistory history_14(0);\nHistory history_15(0);\nHistory history_16(0);\nHistory history_17(0);\nif (bypass == 0) {\n    expr_18 = ((roomsize * samplerate)) / 340;\n    expr_19 = pow(0.001, 1 / ((revtime * samplerate)));\n    mul_20 = expr_18 * 0.81649;\n    expr_21 = -(pow(expr_19, mul_20));\n    add_22 = expr_18 + 5;\n    expr_23 = pow(expr_19, add_22);\n    mul_24 = expr_18 * 1;\n    expr_25 = -(pow(expr_19, mul_24));\n    mul_26 = expr_18 * 0.7071;\n    expr_27 = -(pow(expr_19, mul_26));\n    mul_28 = expr_18 * 0.63245;\n    expr_29 = -(pow(expr_19, mul_28));\n    rsub_30 = 1 - bandwidth;\n    mul_31 = in2 * dry;\n    mul_32 = in1 * dry;\n    mul_33 = ((in1 + in2)) * 0.707;\n    mix_34 = mix(mul_33, history_13, rsub_30);\n    mul_35 = expr_18 * 0.3;\n    add_36 = mul_35 + 5;\n    expr_37 = pow(expr_19, add_36);\n    mul_38 = expr_18 * 0.155;\n    add_39 = mul_38 + 5;\n    expr_40 = pow(expr_19, add_39);\n    mul_41 = expr_18 * 0.41;\n    add_42 = mul_41 + 5;\n    expr_43 = pow(expr_19, add_42);\n    tap_44 = delay_1.read(mul_28);\n    mul_45 = tap_44 * expr_29;\n    mix_46 = mix(mul_45, history_14, damping);\n    tap_47 = delay_2.read(mul_24);\n    mul_48 = tap_47 * expr_25;\n    mix_49 = mix(mul_48, history_15, damping);\n    tap_50 = delay_3.read(mul_20);\n    mul_51 = tap_50 * expr_21;\n    mix_52 = mix(mul_51, history_16, damping);\n    tap_53 = delay_4.read(mul_26);\n    mul_54 = tap_53 * expr_27;\n    mix_55 = mix(mul_54, history_17, damping);\n    mul_56 = expr_18 * 0.000527;\n    int_57 = int(mul_56);\n    tap_58 = delay_5.read(add_42);\n    tap_59 = delay_5.read(add_36);\n    tap_60 = delay_5.read(add_39);\n    tap_61 = delay_5.read(add_22);\n    mul_62 = tap_61 * expr_23;\n    mul_63 = tap_58 * expr_43;\n    mul_64 = tap_59 * expr_37;\n    mul_65 = tap_60 * expr_40;\n    mul_66 = spread * -0.380445;\n    add_67 = mul_66 + 931;\n    rsub_68 = 1341 - add_67;\n    mul_69 = int_57 * rsub_68;\n    tap_70 = delay_6.read(mul_69);\n    mul_71 = tap_70 * 0.625;\n    mul_72 = spread * 0.376623;\n    add_73 = mul_72 + 931;\n    rsub_74 = 1341 - add_73;\n    mul_75 = int_57 * rsub_74;\n    tap_76 = delay_7.read(mul_75);\n    mul_77 = tap_76 * 0.625;\n    add_78 = mix_49 + mix_52;\n    add_79 = mix_55 + mix_46;\n    add_80 = add_78 + add_79;\n    mul_81 = add_80 * 0.5;\n    add_82 = mul_81 + mul_62;\n    sub_83 = add_78 - add_79;\n    mul_84 = sub_83 * 0.5;\n    add_85 = mul_84 + mul_63;\n    sub_86 = mix_49 - mix_52;\n    sub_87 = mix_55 - mix_46;\n    sub_88 = sub_86 - sub_87;\n    mul_89 = sub_88 * 0.5;\n    add_90 = mul_89 + mul_64;\n    add_91 = sub_86 + sub_87;\n    rsub_92 = 0 - add_91;\n    mul_93 = rsub_92 * 0.5;\n    add_94 = mul_93 + mul_65;\n    mul_95 = expr_18 * 0.110732;\n    tap_96 = delay_8.read(mul_95);\n    mul_97 = spread * -0.568366;\n    add_98 = mul_97 + 369;\n    rsub_99 = add_67 - add_98;\n    mul_100 = int_57 * rsub_99;\n    tap_101 = delay_9.read(mul_100);\n    mul_102 = tap_101 * 0.625;\n    mul_103 = spread * 0.125541;\n    add_104 = mul_103 + 369;\n    rsub_105 = add_73 - add_104;\n    mul_106 = int_57 * rsub_105;\n    tap_107 = delay_10.read(mul_106);\n    mul_108 = tap_107 * 0.625;\n    mul_109 = tap_96 * 0.75;\n    sub_110 = mix_34 - mul_109;\n    mul_111 = sub_110 * 0.75;\n    add_112 = mul_111 + tap_96;\n    add_113 = mul_97 + 159;\n    mul_114 = int_57 * add_113;\n    tap_115 = delay_11.read(mul_114);\n    mul_116 = tap_115 * 0.75;\n    add_117 = mul_103 + 159;\n    mul_118 = int_57 * add_117;\n    tap_119 = delay_12.read(mul_118);\n    mul_120 = tap_119 * 0.75;\n    mul_121 = mul_84 * tail;\n    mul_122 = mul_93 * tail;\n    add_123 = mul_121 + mul_122;\n    mul_124 = mul_89 * tail;\n    mul_125 = mul_81 * tail;\n    add_126 = mul_124 + mul_125;\n    sub_127 = add_123 - add_126;\n    mul_128 = mul_63 * early;\n    mul_129 = mul_65 * early;\n    add_130 = mul_128 + mul_129;\n    mul_131 = mul_64 * early;\n    mul_132 = mul_62 * early;\n    add_133 = mul_131 + mul_132;\n    sub_134 = add_130 - add_133;\n    add_135 = sub_127 + sub_134;\n    add_136 = add_135 + in2;\n    sub_137 = add_136 - mul_116;\n    mul_138 = sub_137 * 0.75;\n    add_139 = mul_138 + tap_115;\n    sub_140 = add_139 - mul_102;\n    mul_141 = sub_140 * 0.625;\n    add_142 = mul_141 + tap_101;\n    sub_143 = add_142 - mul_71;\n    mul_144 = sub_143 * 0.625;\n    add_145 = mul_144 + tap_70;\n    out2 = mul_31 + add_145;\n    add_146 = add_135 + in1;\n    sub_147 = add_146 - mul_120;\n    mul_148 = sub_147 * 0.75;\n    add_149 = mul_148 + tap_119;\n    sub_150 = add_149 - mul_108;\n    mul_151 = sub_150 * 0.625;\n    add_152 = mul_151 + tap_107;\n    sub_153 = add_152 - mul_77;\n    mul_154 = sub_153 * 0.625;\n    add_155 = mul_154 + tap_76;\n    out1 = mul_32 + add_155;\n    history_13_next_156 = fixdenorm(mix_34);\n    history_14_next_157 = fixdenorm(mix_46);\n    history_15_next_158 = fixdenorm(mix_49);\n    history_16_next_159 = fixdenorm(mix_52);\n    history_17_next_160 = fixdenorm(mix_55);\n    delay_1.write(add_82);\n    history_17 = history_17_next_160;\n    history_16 = history_16_next_159;\n    history_15 = history_15_next_158;\n    history_14 = history_14_next_157;\n    history_13 = history_13_next_156;\n    delay_12.write(sub_147);\n    delay_11.write(sub_137);\n    delay_10.write(sub_150);\n    delay_9.write(sub_140);\n    delay_8.write(sub_110);\n    delay_7.write(sub_153);\n    delay_6.write(sub_143);\n    delay_5.write(add_112);\n    delay_4.write(add_94);\n    delay_3.write(add_90);\n    delay_2.write(add_85);\n}\nelse {\n    out1 = in1;\n    out2 = in2;\n}",
									"fontface" : 0,
									"fontname" : "<Monospaced>",
									"fontsize" : 12.0,
									"id" : "obj-2",
									"maxclass" : "codebox",
									"numinlets" : 2,
									"numoutlets" : 2,
									"outlettype" : [ "", "" ],
									"patching_rect" : [ 217.5, 55.0, 343.0, 635.0 ]
								}

							}
, 							{
								"box" : 								{
									"fontname" : "Lato",
									"fontsize" : 12.0,
									"id" : "obj-297",
									"maxclass" : "newobj",
									"numinlets" : 0,
									"numoutlets" : 1,
									"outlettype" : [ "" ],
									"patching_rect" : [ 217.5, 10.0, 30.0, 23.0 ],
									"text" : "in 1"
								}

							}
, 							{
								"box" : 								{
									"fontname" : "Lato",
									"fontsize" : 12.0,
									"id" : "obj-211",
									"maxclass" : "newobj",
									"numinlets" : 1,
									"numoutlets" : 0,
									"patching_rect" : [ 541.5, 717.0, 38.0, 23.0 ],
									"text" : "out 2"
								}

							}
, 							{
								"box" : 								{
									"fontname" : "Lato",
									"fontsize" : 12.0,
									"id" : "obj-210",
									"maxclass" : "newobj",
									"numinlets" : 1,
									"numoutlets" : 0,
									"patching_rect" : [ 217.5, 717.0, 38.0, 23.0 ],
									"text" : "out 1"
								}

							}
, 							{
								"box" : 								{
									"fontname" : "Lato",
									"fontsize" : 12.0,
									"id" : "obj-1",
									"maxclass" : "newobj",
									"numinlets" : 0,
									"numoutlets" : 1,
									"outlettype" : [ "" ],
									"patching_rect" : [ 541.5, 14.0, 30.0, 23.0 ],
									"text" : "in 2"
								}

							}
 ],
						"lines" : [ 							{
								"patchline" : 								{
									"destination" : [ "obj-2", 1 ],
									"source" : [ "obj-1", 0 ]
								}

							}
, 							{
								"patchline" : 								{
									"destination" : [ "obj-210", 0 ],
									"source" : [ "obj-2", 0 ]
								}

							}
, 							{
								"patchline" : 								{
									"destination" : [ "obj-211", 0 ],
									"source" : [ "obj-2", 1 ]
								}

							}
, 							{
								"patchline" : 								{
									"destination" : [ "obj-2", 0 ],
									"source" : [ "obj-297", 0 ]
								}

							}
 ],
						"bgcolor" : [ 0.9, 0.9, 0.9, 1.0 ],
						"editing_bgcolor" : [ 0.9, 0.9, 0.9, 1.0 ]
					}
,
					"patching_rect" : [ 316.0, 635.0, 49.0, 23.0 ],
					"text" : "gen~"
				}

			}
 ],
		"lines" : [ 			{
				"patchline" : 				{
					"destination" : [ "obj-105", 0 ],
					"source" : [ "obj-104", 0 ]
				}

			}
, 			{
				"patchline" : 				{
					"destination" : [ "obj-95", 0 ],
					"midpoints" : [ 227.5, 322.0, 325.5, 322.0 ],
					"source" : [ "obj-105", 0 ]
				}

			}
, 			{
				"patchline" : 				{
					"destination" : [ "obj-107", 0 ],
					"source" : [ "obj-106", 0 ]
				}

			}
, 			{
				"patchline" : 				{
					"destination" : [ "obj-95", 0 ],
					"midpoints" : [ 227.5, 502.0, 325.5, 502.0 ],
					"source" : [ "obj-107", 0 ]
				}

			}
, 			{
				"patchline" : 				{
					"destination" : [ "obj-109", 0 ],
					"source" : [ "obj-108", 0 ]
				}

			}
, 			{
				"patchline" : 				{
					"destination" : [ "obj-95", 0 ],
					"midpoints" : [ 227.5, 622.0, 325.5, 622.0 ],
					"source" : [ "obj-109", 0 ]
				}

			}
, 			{
				"patchline" : 				{
					"destination" : [ "obj-118", 0 ],
					"source" : [ "obj-11", 0 ]
				}

			}
, 			{
				"patchline" : 				{
					"destination" : [ "obj-111", 0 ],
					"source" : [ "obj-110", 0 ]
				}

			}
, 			{
				"patchline" : 				{
					"destination" : [ "obj-95", 0 ],
					"midpoints" : [ 227.5, 562.0, 325.5, 562.0 ],
					"source" : [ "obj-111", 0 ]
				}

			}
, 			{
				"patchline" : 				{
					"destination" : [ "obj-113", 0 ],
					"source" : [ "obj-112", 0 ]
				}

			}
, 			{
				"patchline" : 				{
					"destination" : [ "obj-95", 0 ],
					"midpoints" : [ 227.5, 262.0, 325.5, 262.0 ],
					"source" : [ "obj-113", 0 ]
				}

			}
, 			{
				"patchline" : 				{
					"destination" : [ "obj-115", 0 ],
					"source" : [ "obj-114", 0 ]
				}

			}
, 			{
				"patchline" : 				{
					"destination" : [ "obj-95", 0 ],
					"midpoints" : [ 227.5, 202.0, 325.5, 202.0 ],
					"source" : [ "obj-115", 0 ]
				}

			}
, 			{
				"patchline" : 				{
					"destination" : [ "obj-117", 0 ],
					"source" : [ "obj-116", 0 ]
				}

			}
, 			{
				"patchline" : 				{
					"destination" : [ "obj-95", 0 ],
					"midpoints" : [ 227.5, 442.0, 325.5, 442.0 ],
					"source" : [ "obj-117", 0 ]
				}

			}
, 			{
				"patchline" : 				{
					"destination" : [ "obj-95", 0 ],
					"midpoints" : [ 227.5, 382.0, 325.5, 382.0 ],
					"source" : [ "obj-118", 0 ]
				}

			}
, 			{
				"patchline" : 				{
					"destination" : [ "obj-3", 0 ],
					"source" : [ "obj-12", 0 ]
				}

			}
, 			{
				"patchline" : 				{
					"destination" : [ "obj-14", 0 ],
					"source" : [ "obj-13", 0 ]
				}

			}
, 			{
				"patchline" : 				{
					"destination" : [ "obj-5", 0 ],
					"source" : [ "obj-17", 0 ]
				}

			}
, 			{
				"patchline" : 				{
					"destination" : [ "obj-17", 0 ],
					"source" : [ "obj-3", 0 ]
				}

			}
, 			{
				"patchline" : 				{
					"destination" : [ "obj-95", 0 ],
					"midpoints" : [ 227.5, 141.0, 325.5, 141.0 ],
					"source" : [ "obj-5", 0 ]
				}

			}
, 			{
				"patchline" : 				{
					"destination" : [ "obj-95", 0 ],
					"source" : [ "obj-8", 0 ]
				}

			}
, 			{
				"patchline" : 				{
					"destination" : [ "obj-95", 1 ],
					"source" : [ "obj-9", 0 ]
				}

			}
, 			{
				"patchline" : 				{
					"destination" : [ "obj-1", 0 ],
					"order" : 0,
					"source" : [ "obj-95", 0 ]
				}

			}
, 			{
				"patchline" : 				{
					"destination" : [ "obj-2", 0 ],
					"order" : 1,
					"source" : [ "obj-95", 0 ]
				}

			}
 ],
		"dependency_cache" : [  ],
		"autosave" : 0
	}

}
