{
	"patcher" : 	{
		"fileversion" : 1,
		"appversion" : 		{
			"major" : 8,
			"minor" : 1,
			"revision" : 1,
			"architecture" : "x64",
			"modernui" : 1
		}
,
		"classnamespace" : "box",
		"rect" : [ 295.0, 102.0, 243.0, 437.0 ],
		"bglocked" : 0,
		"openinpresentation" : 1,
		"default_fontsize" : 12.0,
		"default_fontface" : 0,
		"default_fontname" : "Arial",
		"gridonopen" : 1,
		"gridsize" : [ 15.0, 15.0 ],
		"gridsnaponopen" : 1,
		"objectsnaponopen" : 1,
		"statusbarvisible" : 2,
		"toolbarvisible" : 1,
		"lefttoolbarpinned" : 0,
		"toptoolbarpinned" : 0,
		"righttoolbarpinned" : 0,
		"bottomtoolbarpinned" : 0,
		"toolbars_unpinned_last_save" : 0,
		"tallnewobj" : 0,
		"boxanimatetime" : 200,
		"enablehscroll" : 1,
		"enablevscroll" : 1,
		"devicewidth" : 0.0,
		"description" : "",
		"digest" : "",
		"tags" : "",
		"style" : "",
		"subpatcher_template" : "",
		"boxes" : [ 			{
				"box" : 				{
					"comment" : "",
					"id" : "obj-25",
					"index" : 0,
					"maxclass" : "outlet",
					"numinlets" : 1,
					"numoutlets" : 0,
					"patching_rect" : [ 96.854166666666686, 586.0, 30.0, 30.0 ]
				}

			}
, 			{
				"box" : 				{
					"comment" : "",
					"id" : "obj-16",
					"index" : 0,
					"maxclass" : "inlet",
					"numinlets" : 0,
					"numoutlets" : 1,
					"outlettype" : [ "" ],
					"patching_rect" : [ 102.854166666666686, 95.0, 30.0, 30.0 ]
				}

			}
, 			{
				"box" : 				{
					"id" : "obj-80",
					"maxclass" : "newobj",
					"numinlets" : 2,
					"numoutlets" : 1,
					"outlettype" : [ "" ],
					"patching_rect" : [ 1055.375, 777.0, 29.5, 22.0 ],
					"text" : "join"
				}

			}
, 			{
				"box" : 				{
					"id" : "obj-79",
					"maxclass" : "newobj",
					"numinlets" : 1,
					"numoutlets" : 3,
					"outlettype" : [ "bang", "float", "int" ],
					"patching_rect" : [ 1050.125, 732.0, 40.0, 22.0 ],
					"text" : "t b f 0"
				}

			}
, 			{
				"box" : 				{
					"id" : "obj-78",
					"maxclass" : "message",
					"numinlets" : 2,
					"numoutlets" : 1,
					"outlettype" : [ "" ],
					"patching_rect" : [ 1173.0, 599.0, 50.0, 22.0 ],
					"text" : "2"
				}

			}
, 			{
				"box" : 				{
					"id" : "obj-76",
					"maxclass" : "message",
					"numinlets" : 2,
					"numoutlets" : 1,
					"outlettype" : [ "" ],
					"patching_rect" : [ 1049.0625, 551.0, 41.0, 22.0 ],
					"text" : "set $1"
				}

			}
, 			{
				"box" : 				{
					"id" : "obj-75",
					"maxclass" : "gswitch",
					"numinlets" : 3,
					"numoutlets" : 1,
					"outlettype" : [ "" ],
					"parameter_enable" : 0,
					"patching_rect" : [ 964.5625, 334.5, 41.0, 32.0 ]
				}

			}
, 			{
				"box" : 				{
					"id" : "obj-73",
					"maxclass" : "newobj",
					"numinlets" : 1,
					"numoutlets" : 3,
					"outlettype" : [ "bang", "float", "int" ],
					"patching_rect" : [ 940.0625, 728.0, 40.0, 22.0 ],
					"text" : "t b f 0"
				}

			}
, 			{
				"box" : 				{
					"id" : "obj-68",
					"maxclass" : "message",
					"numinlets" : 2,
					"numoutlets" : 1,
					"outlettype" : [ "" ],
					"patching_rect" : [ 869.25, 623.0, 50.0, 22.0 ],
					"text" : "3"
				}

			}
, 			{
				"box" : 				{
					"id" : "obj-61",
					"maxclass" : "message",
					"numinlets" : 2,
					"numoutlets" : 1,
					"outlettype" : [ "" ],
					"patching_rect" : [ 873.75, 545.0, 41.0, 22.0 ],
					"text" : "set $1"
				}

			}
, 			{
				"box" : 				{
					"id" : "obj-58",
					"maxclass" : "newobj",
					"numinlets" : 2,
					"numoutlets" : 1,
					"outlettype" : [ "" ],
					"patching_rect" : [ 869.25, 770.0, 29.5, 22.0 ],
					"text" : "join"
				}

			}
, 			{
				"box" : 				{
					"id" : "obj-53",
					"maxclass" : "newobj",
					"numinlets" : 2,
					"numoutlets" : 1,
					"outlettype" : [ "int" ],
					"patching_rect" : [ 134.020833333333371, 667.77118644067798, 29.5, 22.0 ],
					"text" : "+ 1"
				}

			}
, 			{
				"box" : 				{
					"id" : "obj-54",
					"maxclass" : "newobj",
					"numinlets" : 1,
					"numoutlets" : 3,
					"outlettype" : [ "int", "int", "int" ],
					"patching_rect" : [ 134.020833333333371, 697.0, 40.0, 22.0 ],
					"text" : "t i i 1"
				}

			}
, 			{
				"box" : 				{
					"id" : "obj-43",
					"maxclass" : "newobj",
					"numinlets" : 2,
					"numoutlets" : 1,
					"outlettype" : [ "int" ],
					"patching_rect" : [ 311.125, 671.77118644067798, 29.5, 22.0 ],
					"text" : "+ 1"
				}

			}
, 			{
				"box" : 				{
					"id" : "obj-32",
					"maxclass" : "newobj",
					"numinlets" : 1,
					"numoutlets" : 3,
					"outlettype" : [ "int", "int", "int" ],
					"patching_rect" : [ 419.125, 680.0, 40.0, 22.0 ],
					"text" : "t i i 1"
				}

			}
, 			{
				"box" : 				{
					"id" : "obj-23",
					"maxclass" : "newobj",
					"numinlets" : 1,
					"numoutlets" : 3,
					"outlettype" : [ "", "", "" ],
					"patching_rect" : [ 1049.0625, 452.0, 41.0, 22.0 ],
					"text" : "unjoin"
				}

			}
, 			{
				"box" : 				{
					"id" : "obj-22",
					"maxclass" : "newobj",
					"numinlets" : 1,
					"numoutlets" : 3,
					"outlettype" : [ "", "", "" ],
					"patching_rect" : [ 910.5, 457.0, 41.0, 22.0 ],
					"text" : "unjoin"
				}

			}
, 			{
				"box" : 				{
					"id" : "obj-18",
					"maxclass" : "newobj",
					"numinlets" : 3,
					"numoutlets" : 3,
					"outlettype" : [ "", "", "" ],
					"patching_rect" : [ 966.0625, 416.0, 81.0, 22.0 ],
					"text" : "routepass 1 2"
				}

			}
, 			{
				"box" : 				{
					"id" : "obj-17",
					"maxclass" : "newobj",
					"numinlets" : 2,
					"numoutlets" : 1,
					"outlettype" : [ "" ],
					"patching_rect" : [ 318.999999999999886, 799.0, 29.5, 22.0 ],
					"text" : "join"
				}

			}
, 			{
				"box" : 				{
					"fontsize" : 10.0,
					"id" : "obj-14",
					"items" : "<empty>",
					"maxclass" : "umenu",
					"numinlets" : 1,
					"numoutlets" : 3,
					"outlettype" : [ "int", "", "" ],
					"parameter_enable" : 0,
					"patching_rect" : [ 311.125, 638.77118644067798, 100.0, 20.0 ],
					"presentation" : 1,
					"presentation_rect" : [ 72.0625, 108.0, 70.0, 20.0 ]
				}

			}
, 			{
				"box" : 				{
					"id" : "obj-15",
					"maxclass" : "message",
					"numinlets" : 2,
					"numoutlets" : 1,
					"outlettype" : [ "" ],
					"patching_rect" : [ 134.020833333333371, 732.0, 42.0, 22.0 ],
					"text" : "get $1"
				}

			}
, 			{
				"box" : 				{
					"fontname" : "Arial",
					"fontsize" : 13.0,
					"format" : 6,
					"id" : "obj-63",
					"maxclass" : "flonum",
					"numinlets" : 1,
					"numoutlets" : 2,
					"outlettype" : [ "", "bang" ],
					"parameter_enable" : 0,
					"patching_rect" : [ 367.0625, 767.0, 54.0, 23.0 ]
				}

			}
, 			{
				"box" : 				{
					"fontname" : "Arial",
					"fontsize" : 13.0,
					"id" : "obj-64",
					"maxclass" : "number",
					"numinlets" : 1,
					"numoutlets" : 2,
					"outlettype" : [ "", "bang" ],
					"parameter_enable" : 0,
					"patching_rect" : [ 257.0625, 767.0, 53.0, 23.0 ]
				}

			}
, 			{
				"box" : 				{
					"fontname" : "Arial",
					"fontsize" : 13.0,
					"id" : "obj-65",
					"maxclass" : "newobj",
					"numinlets" : 1,
					"numoutlets" : 2,
					"outlettype" : [ "int", "float" ],
					"patching_rect" : [ 257.0625, 738.0, 129.0, 23.0 ],
					"text" : "unpack 0 0."
				}

			}
, 			{
				"box" : 				{
					"fontname" : "Arial",
					"fontsize" : 13.0,
					"id" : "obj-70",
					"linecount" : 2,
					"maxclass" : "comment",
					"numinlets" : 1,
					"numoutlets" : 0,
					"patching_rect" : [ 180.5, 774.0, 71.0, 36.0 ],
					"text" : "parameter index"
				}

			}
, 			{
				"box" : 				{
					"fontname" : "Arial",
					"fontsize" : 13.0,
					"id" : "obj-71",
					"maxclass" : "comment",
					"numinlets" : 1,
					"numoutlets" : 0,
					"patching_rect" : [ 433.5, 774.0, 72.0, 21.0 ],
					"text" : "value (0-1)"
				}

			}
, 			{
				"box" : 				{
					"id" : "obj-11",
					"maxclass" : "newobj",
					"numinlets" : 6,
					"numoutlets" : 1,
					"outlettype" : [ "" ],
					"patching_rect" : [ 1084.0625, 492.0, 97.0, 22.0 ],
					"text" : "scale 0. 1. 0 127"
				}

			}
, 			{
				"box" : 				{
					"id" : "obj-7",
					"maxclass" : "newobj",
					"numinlets" : 6,
					"numoutlets" : 1,
					"outlettype" : [ "" ],
					"patching_rect" : [ 921.5, 492.0, 97.0, 22.0 ],
					"text" : "scale 0. 1. 0 127"
				}

			}
, 			{
				"box" : 				{
					"fontname" : "Arial",
					"fontsize" : 13.0,
					"id" : "obj-6",
					"maxclass" : "message",
					"numinlets" : 2,
					"numoutlets" : 1,
					"outlettype" : [ "" ],
					"patching_rect" : [ 172.0, 243.5, 52.0, 23.0 ],
					"text" : "params"
				}

			}
, 			{
				"box" : 				{
					"fontsize" : 13.0,
					"id" : "obj-2",
					"maxclass" : "newobj",
					"numinlets" : 1,
					"numoutlets" : 1,
					"outlettype" : [ "" ],
					"patching_rect" : [ 134.020833333333371, 561.77118644067798, 112.0, 23.0 ],
					"text" : "prepend append"
				}

			}
, 			{
				"box" : 				{
					"fontsize" : 10.0,
					"id" : "obj-5",
					"items" : "<empty>",
					"maxclass" : "umenu",
					"numinlets" : 1,
					"numoutlets" : 3,
					"outlettype" : [ "int", "", "" ],
					"parameter_enable" : 0,
					"patching_rect" : [ 134.020833333333371, 638.77118644067798, 100.0, 20.0 ],
					"presentation" : 1,
					"presentation_rect" : [ 1.0625, 108.0, 70.0, 20.0 ]
				}

			}
, 			{
				"box" : 				{
					"id" : "obj-52",
					"maxclass" : "newobj",
					"numinlets" : 1,
					"numoutlets" : 3,
					"outlettype" : [ "bang", "bang", "" ],
					"patching_rect" : [ 505.999999999999886, 404.0, 51.0, 22.0 ],
					"text" : "t b b s"
				}

			}
, 			{
				"box" : 				{
					"id" : "obj-51",
					"maxclass" : "newobj",
					"numinlets" : 2,
					"numoutlets" : 1,
					"outlettype" : [ "int" ],
					"patching_rect" : [ 338.5625, 594.0, 29.5, 22.0 ],
					"text" : "+ 1"
				}

			}
, 			{
				"box" : 				{
					"id" : "obj-50",
					"maxclass" : "message",
					"numinlets" : 2,
					"numoutlets" : 1,
					"outlettype" : [ "" ],
					"patching_rect" : [ 521.999999999999886, 521.0, 35.0, 22.0 ],
					"text" : "clear"
				}

			}
, 			{
				"box" : 				{
					"fontsize" : 13.0,
					"id" : "obj-42",
					"maxclass" : "newobj",
					"numinlets" : 1,
					"numoutlets" : 1,
					"outlettype" : [ "" ],
					"patching_rect" : [ 338.5625, 521.0, 112.0, 23.0 ],
					"text" : "prepend append"
				}

			}
, 			{
				"box" : 				{
					"fontsize" : 10.0,
					"id" : "obj-41",
					"items" : "<empty>",
					"maxclass" : "umenu",
					"numinlets" : 1,
					"numoutlets" : 3,
					"outlettype" : [ "int", "", "" ],
					"parameter_enable" : 0,
					"patching_rect" : [ 338.5625, 561.77118644067798, 100.0, 20.0 ],
					"presentation" : 1,
					"presentation_rect" : [ 72.0625, 22.0, 70.0, 20.0 ]
				}

			}
, 			{
				"box" : 				{
					"fontname" : "Arial",
					"fontsize" : 13.0,
					"id" : "obj-40",
					"maxclass" : "message",
					"numinlets" : 2,
					"numoutlets" : 1,
					"outlettype" : [ "" ],
					"patching_rect" : [ 172.0, 317.5, 75.0, 23.0 ],
					"text" : "pgmnames"
				}

			}
, 			{
				"box" : 				{
					"format" : 6,
					"id" : "obj-37",
					"maxclass" : "flonum",
					"numinlets" : 1,
					"numoutlets" : 2,
					"outlettype" : [ "", "bang" ],
					"parameter_enable" : 0,
					"patching_rect" : [ 1050.125, 691.0, 50.0, 22.0 ]
				}

			}
, 			{
				"box" : 				{
					"id" : "obj-38",
					"maxclass" : "newobj",
					"numinlets" : 6,
					"numoutlets" : 1,
					"outlettype" : [ "" ],
					"patching_rect" : [ 1050.125, 657.0, 97.0, 22.0 ],
					"text" : "scale 0 127 0. 1."
				}

			}
, 			{
				"box" : 				{
					"format" : 6,
					"id" : "obj-36",
					"maxclass" : "flonum",
					"numinlets" : 1,
					"numoutlets" : 2,
					"outlettype" : [ "", "bang" ],
					"parameter_enable" : 0,
					"patching_rect" : [ 935.0625, 691.0, 50.0, 22.0 ]
				}

			}
, 			{
				"box" : 				{
					"id" : "obj-34",
					"maxclass" : "newobj",
					"numinlets" : 6,
					"numoutlets" : 1,
					"outlettype" : [ "" ],
					"patching_rect" : [ 935.0625, 657.0, 97.0, 22.0 ],
					"text" : "scale 0 127 0. 1."
				}

			}
, 			{
				"box" : 				{
					"id" : "obj-24",
					"maxclass" : "pictslider",
					"numinlets" : 2,
					"numoutlets" : 2,
					"outlettype" : [ "int", "int" ],
					"parameter_enable" : 0,
					"patching_rect" : [ 935.0625, 532.77118644067798, 100.0, 100.0 ],
					"presentation" : 1,
					"presentation_rect" : [ 51.0625, 43.0, 91.0, 64.0 ]
				}

			}
, 			{
				"box" : 				{
					"id" : "obj-20",
					"maxclass" : "newobj",
					"numinlets" : 1,
					"numoutlets" : 2,
					"outlettype" : [ "", "bang" ],
					"patching_rect" : [ 465.5, 81.0, 31.0, 22.0 ],
					"text" : "t s b"
				}

			}
, 			{
				"box" : 				{
					"id" : "obj-28",
					"maxclass" : "newobj",
					"numinlets" : 1,
					"numoutlets" : 1,
					"outlettype" : [ "" ],
					"patching_rect" : [ 465.5, 132.0, 76.0, 22.0 ],
					"text" : "sprintf list%s"
				}

			}
, 			{
				"box" : 				{
					"align" : 1,
					"fontsize" : 10.0,
					"id" : "obj-19",
					"items" : [ "au", ",", "vst", ",", "vst3" ],
					"maxclass" : "umenu",
					"numinlets" : 1,
					"numoutlets" : 3,
					"outlettype" : [ "int", "", "" ],
					"parameter_enable" : 0,
					"patching_rect" : [ 449.5, 46.0, 51.0, 20.0 ],
					"presentation" : 1,
					"presentation_rect" : [ 1.0625, 1.0, 49.0, 20.0 ],
					"textjustification" : 1
				}

			}
, 			{
				"box" : 				{
					"fontsize" : 13.0,
					"id" : "obj-21",
					"maxclass" : "message",
					"numinlets" : 2,
					"numoutlets" : 1,
					"outlettype" : [ "" ],
					"patching_rect" : [ 667.0, 317.5, 37.0, 23.0 ],
					"text" : "clear"
				}

			}
, 			{
				"box" : 				{
					"fontsize" : 13.0,
					"id" : "obj-8",
					"maxclass" : "newobj",
					"numinlets" : 1,
					"numoutlets" : 1,
					"outlettype" : [ "" ],
					"patching_rect" : [ 465.499999999999886, 272.0, 112.0, 23.0 ],
					"text" : "prepend append"
				}

			}
, 			{
				"box" : 				{
					"fontsize" : 13.0,
					"id" : "obj-12",
					"maxclass" : "newobj",
					"numinlets" : 4,
					"numoutlets" : 4,
					"outlettype" : [ "", "", "", "" ],
					"patching_rect" : [ 465.499999999999886, 217.0, 199.0, 23.0 ],
					"text" : "route plug_vst plug_au plug_vst3"
				}

			}
, 			{
				"box" : 				{
					"fontsize" : 13.0,
					"id" : "obj-13",
					"maxclass" : "newobj",
					"numinlets" : 1,
					"numoutlets" : 2,
					"outlettype" : [ "", "" ],
					"patching_rect" : [ 465.499999999999886, 183.0, 58.0, 23.0 ],
					"text" : "vstscan"
				}

			}
, 			{
				"box" : 				{
					"comment" : "",
					"id" : "obj-4",
					"index" : 0,
					"maxclass" : "inlet",
					"numinlets" : 0,
					"numoutlets" : 1,
					"outlettype" : [ "" ],
					"patching_rect" : [ 11.854166666666686, 95.0, 30.0, 30.0 ]
				}

			}
, 			{
				"box" : 				{
					"id" : "obj-10",
					"maxclass" : "newobj",
					"numinlets" : 0,
					"numoutlets" : 1,
					"outlettype" : [ "" ],
					"patching_rect" : [ 486.999999999999886, 317.5, 69.0, 22.0 ],
					"text" : "r plugin_list"
				}

			}
, 			{
				"box" : 				{
					"fontsize" : 10.0,
					"id" : "obj-59",
					"maxclass" : "textbutton",
					"numinlets" : 1,
					"numoutlets" : 3,
					"outlettype" : [ "", "", "int" ],
					"parameter_enable" : 0,
					"patching_rect" : [ 207.5, 373.0, 67.0, 22.0 ],
					"presentation" : 1,
					"presentation_rect" : [ 1.0625, 43.0, 48.687500166666609, 22.0 ],
					"text" : "plugin",
					"texton" : "plugin"
				}

			}
, 			{
				"box" : 				{
					"fontsize" : 10.0,
					"id" : "obj-29",
					"maxclass" : "textbutton",
					"mode" : 1,
					"numinlets" : 1,
					"numoutlets" : 3,
					"outlettype" : [ "", "", "int" ],
					"parameter_enable" : 0,
					"patching_rect" : [ 292.0625, 372.5, 47.0, 22.0 ],
					"presentation" : 1,
					"presentation_rect" : [ 1.0625, 87.0, 48.687500166666609, 20.0 ],
					"text" : "disable",
					"texton" : "disable"
				}

			}
, 			{
				"box" : 				{
					"fontsize" : 10.0,
					"id" : "obj-30",
					"maxclass" : "textbutton",
					"mode" : 1,
					"numinlets" : 1,
					"numoutlets" : 3,
					"outlettype" : [ "", "", "int" ],
					"parameter_enable" : 0,
					"patching_rect" : [ 367.0625, 373.0, 55.0, 22.0 ],
					"presentation" : 1,
					"presentation_rect" : [ 1.0625, 66.0, 48.687500166666609, 20.0 ],
					"text" : "bypass",
					"texton" : "bypass"
				}

			}
, 			{
				"box" : 				{
					"fontsize" : 12.0,
					"id" : "obj-31",
					"maxclass" : "newobj",
					"numinlets" : 1,
					"numoutlets" : 1,
					"outlettype" : [ "" ],
					"patching_rect" : [ 367.0625, 317.5, 70.0, 22.0 ],
					"text" : "loadmess 1"
				}

			}
, 			{
				"box" : 				{
					"fontname" : "Arial",
					"fontsize" : 12.0,
					"id" : "obj-46",
					"maxclass" : "message",
					"numinlets" : 2,
					"numoutlets" : 1,
					"outlettype" : [ "" ],
					"patching_rect" : [ 367.0625, 414.0, 65.0, 22.0 ],
					"text" : "bypass $1"
				}

			}
, 			{
				"box" : 				{
					"fontname" : "Arial",
					"fontsize" : 12.0,
					"id" : "obj-39",
					"maxclass" : "message",
					"numinlets" : 2,
					"numoutlets" : 1,
					"outlettype" : [ "" ],
					"patching_rect" : [ 292.0625, 414.0, 65.0, 22.0 ],
					"text" : "disable $1"
				}

			}
, 			{
				"box" : 				{
					"fontname" : "Arial",
					"fontsize" : 12.0,
					"id" : "obj-47",
					"maxclass" : "message",
					"numinlets" : 2,
					"numoutlets" : 1,
					"outlettype" : [ "" ],
					"patching_rect" : [ 207.5, 414.0, 67.0, 22.0 ],
					"text" : "open"
				}

			}
, 			{
				"box" : 				{
					"fontsize" : 10.0,
					"id" : "obj-3",
					"items" : [ "3-Band EQ", ",", "914 Mk 2", ",", "Alternator", ",", "Array", ",", "AUAudioFilePlayer", ",", "AUBandpass", ",", "AUDelay", ",", "AUDistortion", ",", "AUDynamicsProcessor", ",", "AUFilter", ",", "AUGraphicEQ", ",", "AUHighShelfFilter", ",", "AUHipass", ",", "AULowpass", ",", "AULowShelfFilter", ",", "AUMatrixReverb", ",", "AUMIDISynth", ",", "AUMultibandCompressor", ",", "AUNBandEQ", ",", "AUNetReceive", ",", "AUNetSend", ",", "AUNewPitch", ",", "AUParametricEQ", ",", "AUPeakLimiter", ",", "AUPitch", ",", "AUReverb2", ",", "AURogerBeep", ",", "AURoundTripAAC", ",", "AUSampleDelay", ",", "AUSampler", ",", "AUScheduledSoundPlayer", ",", "AUSoundFieldPanner", ",", "AUSpeechSynthesis", ",", "AUSphericalHeadPanner", ",", "AUVectorPanner", ",", "Axon 2", ",", "Beatformer", ",", "Bidule FX (sidechain)", ",", "Bidule FX", ",", "Bidule MFX", ",", "Bidule", ",", "Big Goat", ",", "Bitcrush", ",", "Blackhole (No MIDI)", ",", "Blackhole", ",", "Blend", ",", "Blindfold EQ", ",", "Blue Face", ",", "Bluejay", ",", "Brusfri", ",", "Captain Beat", ",", "Captain Chords", ",", "Captain Deep", ",", "Captain Melody", ",", "Captain Play", ",", "Carve EQ", ",", "Cassette", ",", "Chorus_Effect", ",", "Clonemeld", ",", "Cloud Machine", ",", "Cluster", ",", "Comb Filter", ",", "Comet", ",", "Compressor", ",", "Corrosion", ",", "Cream", ",", "Crystallizer", ",", "Cthulhu", ",", "Curve2", ",", "DAW Cassette", ",", "Decapitator", ",", "Degrader", ",", "Delay", ",", "Deleight", ",", "Devil-Loc Deluxe", ",", "Devil-Loc", ",", "Dexed", ",", "Dipole", ",", "Disperser", ",", "Dispersion", ",", "Distortion 1", ",", "Distortion", ",", "DLSMusicDevice", ",", "Drone Piano", ",", "Droplet", ",", "Dubstation 2", ",", "EchoBoy Jr", ",", "EchoBoy", ",", "Echoes T7E", ",", "EffectRack", ",", "Eidolon", ",", "Emission", ",", "Ensemble", ",", "Enso", ",", "Eos 2", ",", "Eternal", ",", "Europa by Reason", ",", "Falcon", ",", "Fathoms", ",", "Faturator", ",", "Filter", ",", "FilterFreak1", ",", "FilterFreak2", ",", "Filterjam", ",", "FilterShaper3", ",", "Filterstation2", ",", "Flanger", ",", "Flow II", ",", "Fog Convolver", ",", "Foomph", ",", "Formant Filter", ",", "Fraction", ",", "FreeAMP", ",", "Frequency Shifter", ",", "Frostbite 2", ",", "FuzzPlus3", ",", "Gaffel", ",", "Gain", ",", "Gate", ",", "GotoEQ", ",", "Grain Streamer", ",", "GrainSpace", ",", "Grand Finale", ",", "Granule", ",", "Granulizer 2", ",", "H3000 Factory", ",", "Haas", ",", "Haaze 2", ",", "HalfTime", ",", "Harmonic Maximizer", ",", "Heavy Pedal", ",", "Hexonator", ",", "Hillman", ",", "Hologram", ",", "HRTFPanner", ",", "Idee Fixer", ",", "Inertia", ",", "Insight 2", ",", "Instinct", ",", "iZotope DDLY Dynamic Delay", ",", "iZotope Mobius Filter", ",", "iZotope Stutter Edit", ",", "iZotope Trash 2", ",", "kHs ONE", ",", "Kleverb", ",", "Ladder Filter", ",", "Latin Percussion", ",", "LDC2 Compander", ",", "Limiter", ",", "Little AlterBoy", ",", "Little MicroShift", ",", "Little Plate", ",", "Little PrimalTap", ",", "Little Radiator", ",", "Low Filter", ",", "Luminance", ",", "Malfunction II", ",", "MangledVerb", ",", "Markus 88 v151", ",", "MicroShift", ",", "Microtonic Multi", ",", "Microtonic", ",", "Midi Madness 3", ",", "MidiShaper", ",", "Mimik", ",", "Modley", ",", "Modular FX", ",", "Modular", ",", "Molecule", ",", "Multipass", ",", "Multitude", ",", "Nectar 3 Elements", ",", "Nectar 3", ",", "Neutron 3 Compressor", ",", "Neutron 3 Elements", ",", "Neutron 3 Equalizer", ",", "Neutron 3 Exciter", ",", "Neutron 3 Gate", ",", "Neutron 3 Sculptor", ",", "Neutron 3 Transient Shaper", ",", "Neutron 3 Visual Mixer", ",", "Neutron 3", ",", "Nimbus", ",", "Northern Boarder", ",", "Nouveau Mellow", ",", "Nuxx", ",", "Octavlord", ",", "Outer Space", ",", "Ozone 9 Dynamic EQ", ",", "Ozone 9 Dynamics", ",", "Ozone 9 Equalizer", ",", "Ozone 9 Exciter", ",", "Ozone 9 Imager", ",", "Ozone 9 Low End Focus", ",", "Ozone 9 Master Rebalance", ",", "Ozone 9 Match EQ", ",", "Ozone 9 Maximizer", ",", "Ozone 9 Spectral Shaper", ",", "Ozone 9 Vintage Compressor", ",", "Ozone 9 Vintage EQ", ",", "Ozone 9 Vintage Limiter", ",", "Ozone 9 Vintage Tape", ",", "Ozone 9", ",", "Ozone Imager 2", ",", "Padshop", ",", "Palindrome", ",", "PanMan", ",", "Parallax", ",", "Pastfabric", ",", "Pastoral Piano", ",", "Phase Distortion", ",", "Phase Plant", ",", "PhaseMistress", ",", "Phaser", ",", "Pigments", ",", "Pitch Shifter", ",", "Plectrik", ",", "Polaris", ",", "Portal", ",", "Pre X7", ",", "PrimalTap", ",", "Protoverb", ",", "Push", ",", "Quanta", ",", "R4", ",", "Radiator", ",", "Radio", ",", "Re-Function", ",", "Reaktor 6 MFX", ",", "Reaktor 6", ",", "REAMP", ",", "Regrader", ",", "Regroover Pro", ",", "Relay", ",", "Reshuffle", ",", "Resonator", ",", "Reverb", ",", "Reverser", ",", "Rhythmiq", ",", "Ring Mod", ",", "Robotizer", ",", "Room Piano v2", ",", "Rust", ",", "RX 7 Breath Control", ",", "RX 7 Connect", ",", "RX 7 De-click", ",", "RX 7 De-clip", ",", "RX 7 De-crackle", ",", "RX 7 De-ess", ",", "RX 7 De-hum", ",", "RX 7 De-plosive", ",", "RX 7 De-reverb", ",", "RX 7 Monitor", ",", "RX 7 Mouth De-click", ",", "RX 7 Spectral De-noise", ",", "RX 7 Voice De-noise", ",", "Sequential", ",", "Serato Sample", ",", "Serum", ",", "SerumFX", ",", "ShaperBox 2", ",", "Shift", ",", "Side Filter", ",", "Sie-Q", ",", "Singularity", ",", "SketchCassette", ",", "Slice EQ", ",", "Snap Heap", ",", "Solveig", ",", "Spectral Averaging", ",", "Spectral Bin Shift", ",", "Spectral Blurring", ",", "Spectral DroneMaker", ",", "Spectral Emergence", ",", "Spectral Filterbank", ",", "Spectral Freezing", ",", "Spectral Gate And Hold", ",", "Spectral Gliding Filters", ",", "Spectral Granulation", ",", "Spectral Harmonizer", ",", "Spectral Partial Glide", ",", "Spectral Pitch Shift", ",", "Spectral Pulsing", ",", "Spectral Shimmer", ",", "Spectral Shuffle", ",", "Spectral Stretch", ",", "Spectral Tracing", ",", "Spectral Weave", ",", "Speektra", ",", "Splitch", ",", "Springs", ",", "Stereo", ",", "Stream", ",", "Stutter Edit", ",", "Suntron", ",", "Super Filterbank", ",", "Surge", ",", "Svep", ",", "Switch", ",", "SyndtSphere", ",", "Synth1", ",", "SynthMaster 2.9 Effect", ",", "SynthMaster 2.9 Instrument", ",", "SynthMaster One Effect", ",", "SynthMaster One Instrument", ",", "TAL Reverb 4 Plugin", ",", "Tape Stop", ",", "Texture", ",", "Thales Model I v", ",", "The Abuser", ",", "The Mangle", ",", "Tonal Balance Control 2", ",", "Tonal Balance Control", ",", "Torsion", ",", "Trance Gate", ",", "Transient Shaper", ",", "Tremolator", ",", "TS-1 Transient Shaper", ",", "TTAP", ",", "Tube Modulator", ",", "Turbo", ",", "UltraTap", ",", "Unfiltered Audio Dent 2", ",", "Unfiltered Audio Fault", ",", "Unfiltered Audio Indent 2", ",", "Unfiltered Audio Instant Delay", ",", "Unfiltered Audio LION", ",", "Unfiltered Audio Sandman Pro", ",", "Unfiltered Audio SpecOps", ",", "Unfiltered Audio Triad", ",", "Union", ",", "UVIWorkstation", ",", "ValhallaDelay", ",", "ValhallaFreqEcho", ",", "ValhallaPlate", ",", "ValhallaRoom", ",", "ValhallaShimmer", ",", "ValhallaSpaceModulator", ",", "ValhallaUberMod", ",", "ValhallaVintageVerb", ",", "Vanisher", ",", "VCV Bridge", ",", "Verv", ",", "VocalSynth 2", ",", "Washout", ",", "Weave", ",", "Whirl", ",", "WOV", ",", "XenoVerb", ",", "Zerone" ],
					"maxclass" : "umenu",
					"numinlets" : 1,
					"numoutlets" : 3,
					"outlettype" : [ "int", "", "" ],
					"parameter_enable" : 0,
					"patching_rect" : [ 465.499999999999886, 373.5, 100.0, 20.0 ],
					"presentation" : 1,
					"presentation_rect" : [ 1.0625, 22.0, 69.687500166666609, 20.0 ]
				}

			}
, 			{
				"box" : 				{
					"id" : "obj-45",
					"maxclass" : "newobj",
					"numinlets" : 1,
					"numoutlets" : 1,
					"outlettype" : [ "" ],
					"patching_rect" : [ 537.999999999999886, 445.0, 79.0, 22.0 ],
					"text" : "prepend plug"
				}

			}
, 			{
				"box" : 				{
					"id" : "obj-9",
					"maxclass" : "comment",
					"numinlets" : 1,
					"numoutlets" : 0,
					"patching_rect" : [ 573.999999999999886, 369.5, 43.0, 20.0 ],
					"style" : "helpfile_label",
					"text" : "plugin"
				}

			}
, 			{
				"box" : 				{
					"autosave" : 1,
					"bgmode" : 0,
					"border" : 0,
					"clickthrough" : 0,
					"id" : "obj-1",
					"maxclass" : "newobj",
					"numinlets" : 2,
					"numoutlets" : 8,
					"offset" : [ 0.0, 0.0 ],
					"outlettype" : [ "signal", "signal", "", "list", "int", "", "", "" ],
					"patching_rect" : [ 102.854166666666686, 508.0, 128.083333333333314, 22.0 ],
					"save" : [ "#N", "vst~", "loaduniqueid", 0, ";" ],
					"saved_attribute_attributes" : 					{
						"valueof" : 						{
							"parameter_invisible" : 1,
							"parameter_longname" : "vst~",
							"parameter_shortname" : "vst~",
							"parameter_type" : 3
						}

					}
,
					"saved_object_attributes" : 					{
						"bypass" : 1,
						"parameter_enable" : 1,
						"parameter_mappable" : 0
					}
,
					"snapshot" : 					{
						"filetype" : "C74Snapshot",
						"version" : 2,
						"minorversion" : 0,
						"name" : "snapshotlist",
						"origin" : "vst~",
						"type" : "list",
						"subtype" : "Undefined",
						"embed" : 1,
						"snapshot" : 						{
							"pluginname" : "3-Band EQ.auinfo",
							"plugindisplayname" : "3-Band EQ",
							"pluginsavedname" : "",
							"pluginsaveduniqueid" : 711810926,
							"version" : 1,
							"isbank" : 0,
							"isbase64" : 1,
							"blob" : "1406.hAGaoMGcv.i0AHv.DTfAGfPBJr.CT4VXsUFWsEla0YVXiQWcxUlbTQVXzEFUzkGbkc0b0IFc4AWYWYWYxMWZu4FTR.xZHM2SQPP6E....b+...P...........P..............FL...Xv...WCA.fITD.....................................................................................................................................................................................................................................................................................................................................................................................................................................................................................................................................................................................................................................................................................................................................................................................................................................................................................................................................................................................................................................................................................................................................................................................................................................................................................................................................................................................................................................................................................................................................................................................................................................................................A....................HQX0YFdRr1bwUFDA..B.TA.Z.vI.vB.w.PN.DD.BAvQEfSA8TfP........BD..........M...................EPD"
						}
,
						"snapshotlist" : 						{
							"current_snapshot" : 0,
							"entries" : [ 								{
									"filetype" : "C74Snapshot",
									"version" : 2,
									"minorversion" : 0,
									"name" : "Northern Boarder",
									"origin" : "3-Band EQ.auinfo",
									"type" : "AudioUnit",
									"subtype" : "AudioEffect",
									"embed" : 1,
									"snapshot" : 									{
										"pluginname" : "3-Band EQ.auinfo",
										"plugindisplayname" : "3-Band EQ",
										"pluginsavedname" : "",
										"pluginsaveduniqueid" : 711810926,
										"version" : 1,
										"isbank" : 0,
										"isbase64" : 1,
										"blob" : "1406.hAGaoMGcv.i0AHv.DTfAGfPBJr.CT4VXsUFWsEla0YVXiQWcxUlbTQVXzEFUzkGbkc0b0IFc4AWYWYWYxMWZu4FTR.xZHM2SQPP6E....b+...P...........P..............FL...Xv...WCA.fITD.....................................................................................................................................................................................................................................................................................................................................................................................................................................................................................................................................................................................................................................................................................................................................................................................................................................................................................................................................................................................................................................................................................................................................................................................................................................................................................................................................................................................................................................................................................................................................................................................................................................................................A....................HQX0YFdRr1bwUFDA..B.TA.Z.vI.vB.w.PN.DD.BAvQEfSA8TfP........BD..........M...................EPD"
									}
,
									"fileref" : 									{
										"name" : "Northern Boarder",
										"filename" : "Northern Boarder.maxsnap",
										"filepath" : "~/Documents/Max 8/Projects/Groovin/data",
										"filepos" : -1,
										"snapshotfileid" : "9a975684788656e88708e2e0e9e4ea9d"
									}

								}
 ]
						}

					}
,
					"text" : "vst~",
					"varname" : "vst~",
					"viewvisibility" : 0
				}

			}
, 			{
				"box" : 				{
					"comment" : "",
					"id" : "obj-26",
					"index" : 0,
					"maxclass" : "outlet",
					"numinlets" : 1,
					"numoutlets" : 0,
					"patching_rect" : [ 36.854166666666686, 586.0, 30.0, 30.0 ]
				}

			}
 ],
		"lines" : [ 			{
				"patchline" : 				{
					"destination" : [ "obj-2", 0 ],
					"source" : [ "obj-1", 2 ]
				}

			}
, 			{
				"patchline" : 				{
					"destination" : [ "obj-25", 0 ],
					"source" : [ "obj-1", 1 ]
				}

			}
, 			{
				"patchline" : 				{
					"destination" : [ "obj-26", 0 ],
					"source" : [ "obj-1", 0 ]
				}

			}
, 			{
				"patchline" : 				{
					"destination" : [ "obj-42", 0 ],
					"midpoints" : [ 190.270833333333314, 541.0, 328.25, 541.0, 328.25, 501.0, 348.0625, 501.0 ],
					"source" : [ "obj-1", 5 ]
				}

			}
, 			{
				"patchline" : 				{
					"destination" : [ "obj-65", 0 ],
					"midpoints" : [ 159.104166666666686, 553.0, 266.5625, 553.0 ],
					"source" : [ "obj-1", 3 ]
				}

			}
, 			{
				"patchline" : 				{
					"destination" : [ "obj-3", 0 ],
					"midpoints" : [ 496.499999999999886, 356.0, 474.999999999999886, 356.0 ],
					"source" : [ "obj-10", 0 ]
				}

			}
, 			{
				"patchline" : 				{
					"destination" : [ "obj-24", 1 ],
					"source" : [ "obj-11", 0 ]
				}

			}
, 			{
				"patchline" : 				{
					"destination" : [ "obj-8", 0 ],
					"midpoints" : [ 594.999999999999886, 255.5, 474.999999999999886, 255.5 ],
					"source" : [ "obj-12", 2 ]
				}

			}
, 			{
				"patchline" : 				{
					"destination" : [ "obj-8", 0 ],
					"midpoints" : [ 534.999999999999886, 255.5, 474.999999999999886, 255.5 ],
					"source" : [ "obj-12", 1 ]
				}

			}
, 			{
				"patchline" : 				{
					"destination" : [ "obj-8", 0 ],
					"source" : [ "obj-12", 0 ]
				}

			}
, 			{
				"patchline" : 				{
					"destination" : [ "obj-12", 0 ],
					"source" : [ "obj-13", 0 ]
				}

			}
, 			{
				"patchline" : 				{
					"destination" : [ "obj-43", 0 ],
					"source" : [ "obj-14", 0 ]
				}

			}
, 			{
				"patchline" : 				{
					"destination" : [ "obj-1", 0 ],
					"midpoints" : [ 143.520833333333371, 817.0, 89.21875, 817.0, 89.21875, 497.0, 112.354166666666686, 497.0 ],
					"source" : [ "obj-15", 0 ]
				}

			}
, 			{
				"patchline" : 				{
					"destination" : [ "obj-1", 1 ],
					"source" : [ "obj-16", 0 ]
				}

			}
, 			{
				"patchline" : 				{
					"destination" : [ "obj-75", 2 ],
					"midpoints" : [ 328.499999999999886, 802.0, 716.53125, 802.0, 716.53125, 304.0, 996.0625, 304.0 ],
					"source" : [ "obj-17", 0 ]
				}

			}
, 			{
				"patchline" : 				{
					"destination" : [ "obj-22", 0 ],
					"source" : [ "obj-18", 0 ]
				}

			}
, 			{
				"patchline" : 				{
					"destination" : [ "obj-23", 0 ],
					"source" : [ "obj-18", 1 ]
				}

			}
, 			{
				"patchline" : 				{
					"destination" : [ "obj-20", 0 ],
					"source" : [ "obj-19", 1 ]
				}

			}
, 			{
				"patchline" : 				{
					"destination" : [ "obj-14", 0 ],
					"midpoints" : [ 143.520833333333371, 631.885593220338933, 320.625, 631.885593220338933 ],
					"order" : 0,
					"source" : [ "obj-2", 0 ]
				}

			}
, 			{
				"patchline" : 				{
					"destination" : [ "obj-5", 0 ],
					"order" : 1,
					"source" : [ "obj-2", 0 ]
				}

			}
, 			{
				"patchline" : 				{
					"destination" : [ "obj-21", 0 ],
					"midpoints" : [ 487.0, 118.25, 676.5, 118.25 ],
					"source" : [ "obj-20", 1 ]
				}

			}
, 			{
				"patchline" : 				{
					"destination" : [ "obj-28", 0 ],
					"source" : [ "obj-20", 0 ]
				}

			}
, 			{
				"patchline" : 				{
					"destination" : [ "obj-3", 0 ],
					"midpoints" : [ 676.5, 356.5, 474.999999999999886, 356.5 ],
					"order" : 1,
					"source" : [ "obj-21", 0 ]
				}

			}
, 			{
				"patchline" : 				{
					"destination" : [ "obj-50", 0 ],
					"midpoints" : [ 676.5, 507.25, 531.499999999999886, 507.25 ],
					"order" : 0,
					"source" : [ "obj-21", 0 ]
				}

			}
, 			{
				"patchline" : 				{
					"destination" : [ "obj-61", 0 ],
					"source" : [ "obj-22", 0 ]
				}

			}
, 			{
				"patchline" : 				{
					"destination" : [ "obj-7", 0 ],
					"source" : [ "obj-22", 1 ]
				}

			}
, 			{
				"patchline" : 				{
					"destination" : [ "obj-11", 0 ],
					"source" : [ "obj-23", 1 ]
				}

			}
, 			{
				"patchline" : 				{
					"destination" : [ "obj-76", 0 ],
					"source" : [ "obj-23", 0 ]
				}

			}
, 			{
				"patchline" : 				{
					"destination" : [ "obj-34", 0 ],
					"midpoints" : [ 944.5625, 643.0, 944.5625, 643.0 ],
					"source" : [ "obj-24", 0 ]
				}

			}
, 			{
				"patchline" : 				{
					"destination" : [ "obj-38", 0 ],
					"midpoints" : [ 1025.5625, 643.0, 1059.625, 643.0 ],
					"source" : [ "obj-24", 1 ]
				}

			}
, 			{
				"patchline" : 				{
					"destination" : [ "obj-13", 0 ],
					"source" : [ "obj-28", 0 ]
				}

			}
, 			{
				"patchline" : 				{
					"destination" : [ "obj-39", 0 ],
					"source" : [ "obj-29", 0 ]
				}

			}
, 			{
				"patchline" : 				{
					"destination" : [ "obj-52", 0 ],
					"source" : [ "obj-3", 1 ]
				}

			}
, 			{
				"patchline" : 				{
					"destination" : [ "obj-46", 0 ],
					"source" : [ "obj-30", 0 ]
				}

			}
, 			{
				"patchline" : 				{
					"destination" : [ "obj-30", 0 ],
					"source" : [ "obj-31", 0 ]
				}

			}
, 			{
				"patchline" : 				{
					"destination" : [ "obj-15", 0 ],
					"source" : [ "obj-32", 0 ]
				}

			}
, 			{
				"patchline" : 				{
					"destination" : [ "obj-18", 2 ],
					"midpoints" : [ 439.125, 704.0, 851.34375, 704.0, 851.34375, 405.0, 1037.5625, 405.0 ],
					"source" : [ "obj-32", 1 ]
				}

			}
, 			{
				"patchline" : 				{
					"destination" : [ "obj-75", 0 ],
					"midpoints" : [ 449.625, 704.0, 717.84375, 704.0, 717.84375, 323.5, 974.0625, 323.5 ],
					"source" : [ "obj-32", 2 ]
				}

			}
, 			{
				"patchline" : 				{
					"destination" : [ "obj-36", 0 ],
					"source" : [ "obj-34", 0 ]
				}

			}
, 			{
				"patchline" : 				{
					"destination" : [ "obj-73", 0 ],
					"source" : [ "obj-36", 0 ]
				}

			}
, 			{
				"patchline" : 				{
					"destination" : [ "obj-79", 0 ],
					"source" : [ "obj-37", 0 ]
				}

			}
, 			{
				"patchline" : 				{
					"destination" : [ "obj-37", 0 ],
					"source" : [ "obj-38", 0 ]
				}

			}
, 			{
				"patchline" : 				{
					"destination" : [ "obj-1", 0 ],
					"midpoints" : [ 301.5625, 481.5, 112.354166666666686, 481.5 ],
					"source" : [ "obj-39", 0 ]
				}

			}
, 			{
				"patchline" : 				{
					"destination" : [ "obj-1", 0 ],
					"source" : [ "obj-4", 0 ]
				}

			}
, 			{
				"patchline" : 				{
					"destination" : [ "obj-1", 0 ],
					"midpoints" : [ 181.5, 365.0, 112.354166666666686, 365.0 ],
					"source" : [ "obj-40", 0 ]
				}

			}
, 			{
				"patchline" : 				{
					"destination" : [ "obj-51", 0 ],
					"source" : [ "obj-41", 0 ]
				}

			}
, 			{
				"patchline" : 				{
					"destination" : [ "obj-41", 0 ],
					"source" : [ "obj-42", 0 ]
				}

			}
, 			{
				"patchline" : 				{
					"destination" : [ "obj-32", 0 ],
					"source" : [ "obj-43", 0 ]
				}

			}
, 			{
				"patchline" : 				{
					"destination" : [ "obj-1", 0 ],
					"midpoints" : [ 547.499999999999886, 481.5, 112.354166666666686, 481.5 ],
					"source" : [ "obj-45", 0 ]
				}

			}
, 			{
				"patchline" : 				{
					"destination" : [ "obj-1", 0 ],
					"midpoints" : [ 376.5625, 481.0, 112.354166666666686, 481.0 ],
					"source" : [ "obj-46", 0 ]
				}

			}
, 			{
				"patchline" : 				{
					"destination" : [ "obj-1", 0 ],
					"midpoints" : [ 217.0, 482.75, 112.354166666666686, 482.75 ],
					"source" : [ "obj-47", 0 ]
				}

			}
, 			{
				"patchline" : 				{
					"destination" : [ "obj-53", 0 ],
					"source" : [ "obj-5", 0 ]
				}

			}
, 			{
				"patchline" : 				{
					"destination" : [ "obj-14", 0 ],
					"midpoints" : [ 531.499999999999886, 631.385593220338933, 320.625, 631.385593220338933 ],
					"order" : 1,
					"source" : [ "obj-50", 0 ]
				}

			}
, 			{
				"patchline" : 				{
					"destination" : [ "obj-41", 0 ],
					"midpoints" : [ 531.499999999999886, 551.885593220338933, 348.0625, 551.885593220338933 ],
					"order" : 0,
					"source" : [ "obj-50", 0 ]
				}

			}
, 			{
				"patchline" : 				{
					"destination" : [ "obj-5", 0 ],
					"midpoints" : [ 531.499999999999886, 631.385593220338933, 143.520833333333371, 631.385593220338933 ],
					"order" : 2,
					"source" : [ "obj-50", 0 ]
				}

			}
, 			{
				"patchline" : 				{
					"destination" : [ "obj-1", 0 ],
					"midpoints" : [ 348.0625, 622.0, 303.0, 622.0, 303.0, 497.0, 112.354166666666686, 497.0 ],
					"source" : [ "obj-51", 0 ]
				}

			}
, 			{
				"patchline" : 				{
					"destination" : [ "obj-40", 0 ],
					"midpoints" : [ 515.499999999999886, 445.0, 450.25, 445.0, 450.25, 297.5, 181.5, 297.5 ],
					"order" : 0,
					"source" : [ "obj-52", 0 ]
				}

			}
, 			{
				"patchline" : 				{
					"destination" : [ "obj-45", 0 ],
					"source" : [ "obj-52", 2 ]
				}

			}
, 			{
				"patchline" : 				{
					"destination" : [ "obj-50", 0 ],
					"source" : [ "obj-52", 1 ]
				}

			}
, 			{
				"patchline" : 				{
					"destination" : [ "obj-6", 0 ],
					"midpoints" : [ 515.499999999999886, 446.0, 450.5, 446.0, 450.5, 225.5, 181.5, 225.5 ],
					"order" : 1,
					"source" : [ "obj-52", 0 ]
				}

			}
, 			{
				"patchline" : 				{
					"destination" : [ "obj-54", 0 ],
					"source" : [ "obj-53", 0 ]
				}

			}
, 			{
				"patchline" : 				{
					"destination" : [ "obj-15", 0 ],
					"source" : [ "obj-54", 0 ]
				}

			}
, 			{
				"patchline" : 				{
					"destination" : [ "obj-18", 1 ],
					"midpoints" : [ 154.020833333333371, 700.0, 775.291666666666742, 700.0, 775.291666666666742, 392.0, 1006.5625, 392.0 ],
					"source" : [ "obj-54", 1 ]
				}

			}
, 			{
				"patchline" : 				{
					"destination" : [ "obj-75", 0 ],
					"midpoints" : [ 164.520833333333371, 700.0, 718.291666666666742, 700.0, 718.291666666666742, 323.5, 974.0625, 323.5 ],
					"source" : [ "obj-54", 2 ]
				}

			}
, 			{
				"patchline" : 				{
					"destination" : [ "obj-1", 0 ],
					"source" : [ "obj-58", 0 ]
				}

			}
, 			{
				"patchline" : 				{
					"destination" : [ "obj-47", 0 ],
					"source" : [ "obj-59", 0 ]
				}

			}
, 			{
				"patchline" : 				{
					"destination" : [ "obj-1", 0 ],
					"midpoints" : [ 181.5, 288.25, 112.354166666666686, 288.25 ],
					"source" : [ "obj-6", 0 ]
				}

			}
, 			{
				"patchline" : 				{
					"destination" : [ "obj-68", 0 ],
					"source" : [ "obj-61", 0 ]
				}

			}
, 			{
				"patchline" : 				{
					"destination" : [ "obj-17", 1 ],
					"source" : [ "obj-63", 0 ]
				}

			}
, 			{
				"patchline" : 				{
					"destination" : [ "obj-17", 0 ],
					"source" : [ "obj-64", 0 ]
				}

			}
, 			{
				"patchline" : 				{
					"destination" : [ "obj-63", 0 ],
					"source" : [ "obj-65", 1 ]
				}

			}
, 			{
				"patchline" : 				{
					"destination" : [ "obj-64", 0 ],
					"source" : [ "obj-65", 0 ]
				}

			}
, 			{
				"patchline" : 				{
					"destination" : [ "obj-58", 0 ],
					"source" : [ "obj-68", 0 ]
				}

			}
, 			{
				"patchline" : 				{
					"destination" : [ "obj-24", 0 ],
					"source" : [ "obj-7", 0 ]
				}

			}
, 			{
				"patchline" : 				{
					"destination" : [ "obj-58", 1 ],
					"source" : [ "obj-73", 1 ]
				}

			}
, 			{
				"patchline" : 				{
					"destination" : [ "obj-68", 0 ],
					"source" : [ "obj-73", 0 ]
				}

			}
, 			{
				"patchline" : 				{
					"destination" : [ "obj-75", 0 ],
					"midpoints" : [ 970.5625, 789.0, 1358.78125, 789.0, 1358.78125, 323.5, 974.0625, 323.5 ],
					"source" : [ "obj-73", 2 ]
				}

			}
, 			{
				"patchline" : 				{
					"destination" : [ "obj-18", 0 ],
					"source" : [ "obj-75", 0 ]
				}

			}
, 			{
				"patchline" : 				{
					"destination" : [ "obj-78", 0 ],
					"source" : [ "obj-76", 0 ]
				}

			}
, 			{
				"patchline" : 				{
					"destination" : [ "obj-80", 0 ],
					"source" : [ "obj-78", 0 ]
				}

			}
, 			{
				"patchline" : 				{
					"destination" : [ "obj-75", 0 ],
					"midpoints" : [ 1080.625, 764.0, 1357.34375, 764.0, 1357.34375, 323.5, 974.0625, 323.5 ],
					"source" : [ "obj-79", 2 ]
				}

			}
, 			{
				"patchline" : 				{
					"destination" : [ "obj-78", 0 ],
					"source" : [ "obj-79", 0 ]
				}

			}
, 			{
				"patchline" : 				{
					"destination" : [ "obj-80", 1 ],
					"source" : [ "obj-79", 1 ]
				}

			}
, 			{
				"patchline" : 				{
					"destination" : [ "obj-3", 0 ],
					"source" : [ "obj-8", 0 ]
				}

			}
, 			{
				"patchline" : 				{
					"destination" : [ "obj-1", 0 ],
					"source" : [ "obj-80", 0 ]
				}

			}
 ],
		"parameters" : 		{
			"obj-1" : [ "vst~", "vst~", 0 ],
			"parameterbanks" : 			{

			}

		}
,
		"dependency_cache" : [  ],
		"autosave" : 0,
		"styles" : [ 			{
				"name" : "AudioStatus_Menu",
				"default" : 				{
					"bgfillcolor" : 					{
						"type" : "color",
						"color" : [ 0.294118, 0.313726, 0.337255, 1 ],
						"color1" : [ 0.454902, 0.462745, 0.482353, 0 ],
						"color2" : [ 0.290196, 0.309804, 0.301961, 1 ],
						"angle" : 270,
						"proportion" : 0.39,
						"autogradient" : 0
					}

				}
,
				"parentstyle" : "",
				"multi" : 0
			}
, 			{
				"name" : "ksliderWhite",
				"default" : 				{
					"color" : [ 1, 1, 1, 1 ]
				}
,
				"parentstyle" : "",
				"multi" : 0
			}
, 			{
				"name" : "messageBlue",
				"default" : 				{
					"bgfillcolor" : 					{
						"type" : "gradient",
						"color" : [ 0.290196, 0.309804, 0.301961, 1.0 ],
						"color1" : [ 0.317647, 0.654902, 0.976471, 1.0 ],
						"color2" : [ 0.290196, 0.309804, 0.301961, 1.0 ],
						"angle" : 270.0,
						"proportion" : 0.660494,
						"autogradient" : 0
					}

				}
,
				"parentstyle" : "",
				"multi" : 0
			}
, 			{
				"name" : "newobjBlue-1",
				"default" : 				{
					"accentcolor" : [ 0.317647, 0.654902, 0.976471, 1 ]
				}
,
				"parentstyle" : "",
				"multi" : 0
			}
, 			{
				"name" : "newobjBrown-1",
				"default" : 				{
					"accentcolor" : [ 0.654902, 0.572549, 0.376471, 1.0 ]
				}
,
				"parentstyle" : "",
				"multi" : 0
			}
, 			{
				"name" : "newobjCyan-1",
				"default" : 				{
					"accentcolor" : [ 0.029546, 0.773327, 0.821113, 1.0 ]
				}
,
				"parentstyle" : "",
				"multi" : 0
			}
, 			{
				"name" : "newobjGreen-1",
				"default" : 				{
					"accentcolor" : [ 0, 0.533333, 0.168627, 1 ]
				}
,
				"parentstyle" : "",
				"multi" : 0
			}
, 			{
				"name" : "newobjYellow-1",
				"default" : 				{
					"accentcolor" : [ 0.82517, 0.78181, 0.059545, 1.0 ],
					"fontsize" : [ 12.059008 ]
				}
,
				"parentstyle" : "",
				"multi" : 0
			}
, 			{
				"name" : "numberGold-1",
				"default" : 				{
					"accentcolor" : [ 0.764706, 0.592157, 0.101961, 1 ]
				}
,
				"parentstyle" : "",
				"multi" : 0
			}
, 			{
				"name" : "rsliderGold",
				"default" : 				{
					"bgcolor" : [ 0.764706, 0.592157, 0.101961, 1.0 ],
					"color" : [ 0.646639, 0.821777, 0.854593, 1.0 ]
				}
,
				"parentstyle" : "",
				"multi" : 0
			}
 ]
	}

}
