{
	"patcher" : 	{
		"fileversion" : 1,
		"appversion" : 		{
			"major" : 8,
			"minor" : 1,
			"revision" : 1,
			"architecture" : "x64",
			"modernui" : 1
		}
,
		"classnamespace" : "box",
		"rect" : [ 60.0, 94.0, 532.0, 569.0 ],
		"bglocked" : 0,
		"openinpresentation" : 1,
		"default_fontsize" : 12.0,
		"default_fontface" : 0,
		"default_fontname" : "Arial",
		"gridonopen" : 1,
		"gridsize" : [ 15.0, 15.0 ],
		"gridsnaponopen" : 1,
		"objectsnaponopen" : 1,
		"statusbarvisible" : 2,
		"toolbarvisible" : 1,
		"lefttoolbarpinned" : 0,
		"toptoolbarpinned" : 0,
		"righttoolbarpinned" : 0,
		"bottomtoolbarpinned" : 0,
		"toolbars_unpinned_last_save" : 0,
		"tallnewobj" : 0,
		"boxanimatetime" : 200,
		"enablehscroll" : 1,
		"enablevscroll" : 1,
		"devicewidth" : 0.0,
		"description" : "",
		"digest" : "",
		"tags" : "",
		"style" : "",
		"subpatcher_template" : "",
		"boxes" : [ 			{
				"box" : 				{
					"format" : 6,
					"id" : "obj-29",
					"maxclass" : "flonum",
					"maximum" : 1.0,
					"minimum" : -1.0,
					"numinlets" : 1,
					"numoutlets" : 2,
					"outlettype" : [ "", "bang" ],
					"parameter_enable" : 1,
					"patching_rect" : [ 475.5, 575.0, 50.0, 22.0 ],
					"presentation" : 1,
					"presentation_rect" : [ 376.0, 344.0, 54.0, 22.0 ],
					"saved_attribute_attributes" : 					{
						"valueof" : 						{
							"parameter_mmax" : 1.0,
							"parameter_initial" : [ 1.0 ],
							"parameter_shortname" : "phase[2]",
							"parameter_type" : 3,
							"parameter_mmin" : -1.0,
							"parameter_longname" : "phase[24]",
							"parameter_initial_enable" : 1,
							"parameter_invisible" : 1
						}

					}
,
					"triangle" : 0,
					"varname" : "phase[7]"
				}

			}
, 			{
				"box" : 				{
					"format" : 6,
					"id" : "obj-28",
					"maxclass" : "flonum",
					"maximum" : 1.0,
					"minimum" : -1.0,
					"numinlets" : 1,
					"numoutlets" : 2,
					"outlettype" : [ "", "bang" ],
					"parameter_enable" : 1,
					"patching_rect" : [ 388.5, 575.0, 50.0, 22.0 ],
					"presentation" : 1,
					"presentation_rect" : [ 311.0, 344.0, 54.0, 22.0 ],
					"saved_attribute_attributes" : 					{
						"valueof" : 						{
							"parameter_mmax" : 1.0,
							"parameter_initial" : [ 1.0 ],
							"parameter_shortname" : "phase[2]",
							"parameter_type" : 3,
							"parameter_mmin" : -1.0,
							"parameter_longname" : "phase[23]",
							"parameter_initial_enable" : 1,
							"parameter_invisible" : 1
						}

					}
,
					"triangle" : 0,
					"varname" : "phase[6]"
				}

			}
, 			{
				"box" : 				{
					"format" : 6,
					"id" : "obj-27",
					"maxclass" : "flonum",
					"maximum" : 1.0,
					"minimum" : -1.0,
					"numinlets" : 1,
					"numoutlets" : 2,
					"outlettype" : [ "", "bang" ],
					"parameter_enable" : 1,
					"patching_rect" : [ 299.5, 575.0, 50.0, 22.0 ],
					"presentation" : 1,
					"presentation_rect" : [ 246.0, 344.0, 54.0, 22.0 ],
					"saved_attribute_attributes" : 					{
						"valueof" : 						{
							"parameter_mmax" : 1.0,
							"parameter_initial" : [ 1.0 ],
							"parameter_shortname" : "phase[2]",
							"parameter_type" : 3,
							"parameter_mmin" : -1.0,
							"parameter_longname" : "phase[22]",
							"parameter_initial_enable" : 1,
							"parameter_invisible" : 1
						}

					}
,
					"triangle" : 0,
					"varname" : "phase[5]"
				}

			}
, 			{
				"box" : 				{
					"format" : 6,
					"id" : "obj-26",
					"maxclass" : "flonum",
					"maximum" : 1.0,
					"minimum" : -1.0,
					"numinlets" : 1,
					"numoutlets" : 2,
					"outlettype" : [ "", "bang" ],
					"parameter_enable" : 1,
					"patching_rect" : [ 211.5, 575.0, 50.0, 22.0 ],
					"presentation" : 1,
					"presentation_rect" : [ 183.0, 344.0, 54.0, 22.0 ],
					"saved_attribute_attributes" : 					{
						"valueof" : 						{
							"parameter_mmax" : 1.0,
							"parameter_initial" : [ 1.0 ],
							"parameter_shortname" : "phase[2]",
							"parameter_type" : 3,
							"parameter_mmin" : -1.0,
							"parameter_longname" : "phase[21]",
							"parameter_initial_enable" : 1,
							"parameter_invisible" : 1
						}

					}
,
					"triangle" : 0,
					"varname" : "phase[4]"
				}

			}
, 			{
				"box" : 				{
					"format" : 6,
					"id" : "obj-24",
					"maxclass" : "flonum",
					"maximum" : 1.0,
					"minimum" : -1.0,
					"numinlets" : 1,
					"numoutlets" : 2,
					"outlettype" : [ "", "bang" ],
					"parameter_enable" : 1,
					"patching_rect" : [ 124.0, 575.0, 50.0, 22.0 ],
					"presentation" : 1,
					"presentation_rect" : [ 118.0, 344.0, 54.0, 22.0 ],
					"saved_attribute_attributes" : 					{
						"valueof" : 						{
							"parameter_mmax" : 1.0,
							"parameter_initial" : [ 1.0 ],
							"parameter_shortname" : "phase[2]",
							"parameter_type" : 3,
							"parameter_mmin" : -1.0,
							"parameter_longname" : "phase[20]",
							"parameter_initial_enable" : 1,
							"parameter_invisible" : 1
						}

					}
,
					"triangle" : 0,
					"varname" : "phase[3]"
				}

			}
, 			{
				"box" : 				{
					"format" : 6,
					"id" : "obj-21",
					"maxclass" : "flonum",
					"maximum" : 1.0,
					"minimum" : -1.0,
					"numinlets" : 1,
					"numoutlets" : 2,
					"outlettype" : [ "", "bang" ],
					"parameter_enable" : 1,
					"patching_rect" : [ 36.0, 575.0, 50.0, 22.0 ],
					"presentation" : 1,
					"presentation_rect" : [ 55.0, 344.0, 54.0, 22.0 ],
					"saved_attribute_attributes" : 					{
						"valueof" : 						{
							"parameter_mmax" : 1.0,
							"parameter_initial" : [ 1.0 ],
							"parameter_shortname" : "phase[2]",
							"parameter_type" : 3,
							"parameter_mmin" : -1.0,
							"parameter_longname" : "phase[19]",
							"parameter_initial_enable" : 1,
							"parameter_invisible" : 1
						}

					}
,
					"triangle" : 0,
					"varname" : "phase[1]"
				}

			}
, 			{
				"box" : 				{
					"id" : "obj-14",
					"maxclass" : "newobj",
					"numinlets" : 2,
					"numoutlets" : 1,
					"outlettype" : [ "float" ],
					"patching_rect" : [ 475.5, 474.0, 83.0, 22.0 ],
					"text" : "snapshot~ 20"
				}

			}
, 			{
				"box" : 				{
					"id" : "obj-13",
					"maxclass" : "newobj",
					"numinlets" : 2,
					"numoutlets" : 1,
					"outlettype" : [ "float" ],
					"patching_rect" : [ 388.5, 474.0, 83.0, 22.0 ],
					"text" : "snapshot~ 20"
				}

			}
, 			{
				"box" : 				{
					"id" : "obj-12",
					"maxclass" : "newobj",
					"numinlets" : 2,
					"numoutlets" : 1,
					"outlettype" : [ "float" ],
					"patching_rect" : [ 299.5, 474.0, 83.0, 22.0 ],
					"text" : "snapshot~ 20"
				}

			}
, 			{
				"box" : 				{
					"id" : "obj-11",
					"maxclass" : "newobj",
					"numinlets" : 2,
					"numoutlets" : 1,
					"outlettype" : [ "float" ],
					"patching_rect" : [ 211.5, 474.0, 83.0, 22.0 ],
					"text" : "snapshot~ 20"
				}

			}
, 			{
				"box" : 				{
					"id" : "obj-10",
					"maxclass" : "newobj",
					"numinlets" : 2,
					"numoutlets" : 1,
					"outlettype" : [ "float" ],
					"patching_rect" : [ 124.0, 474.0, 83.0, 22.0 ],
					"text" : "snapshot~ 20"
				}

			}
, 			{
				"box" : 				{
					"id" : "obj-9",
					"maxclass" : "newobj",
					"numinlets" : 2,
					"numoutlets" : 1,
					"outlettype" : [ "float" ],
					"patching_rect" : [ 36.0, 474.0, 83.0, 22.0 ],
					"text" : "snapshot~ 20"
				}

			}
, 			{
				"box" : 				{
					"bgmode" : 1,
					"border" : 0,
					"clickthrough" : 0,
					"enablehscroll" : 0,
					"enablevscroll" : 0,
					"id" : "obj-2",
					"lockeddragscroll" : 0,
					"maxclass" : "bpatcher",
					"name" : "6SynchLFO.maxpat",
					"numinlets" : 0,
					"numoutlets" : 6,
					"offset" : [ 0.0, 0.0 ],
					"outlettype" : [ "signal", "signal", "signal", "signal", "signal", "signal" ],
					"patching_rect" : [ 36.0, 14.0, 459.0, 235.0 ],
					"presentation" : 1,
					"presentation_rect" : [ 7.0, 5.0, 513.0, 129.0 ],
					"varname" : "6SynchLFO",
					"viewvisibility" : 1
				}

			}
, 			{
				"box" : 				{
					"bgmode" : 1,
					"border" : 0,
					"clickthrough" : 0,
					"enablehscroll" : 0,
					"enablevscroll" : 0,
					"id" : "obj-1",
					"lockeddragscroll" : 0,
					"maxclass" : "bpatcher",
					"name" : "6Grid.maxpat",
					"numinlets" : 6,
					"numoutlets" : 6,
					"offset" : [ 1.0, 1.0 ],
					"outlettype" : [ "signal", "signal", "signal", "signal", "signal", "signal" ],
					"patching_rect" : [ 36.0, 272.0, 459.0, 180.0 ],
					"presentation" : 1,
					"presentation_rect" : [ 189.0, 136.0, 149.0, 142.0 ],
					"viewvisibility" : 1
				}

			}
, 			{
				"box" : 				{
					"id" : "obj-34",
					"maxclass" : "multislider",
					"numinlets" : 1,
					"numoutlets" : 2,
					"outlettype" : [ "", "" ],
					"parameter_enable" : 0,
					"patching_rect" : [ 475.5, 501.0, 65.0, 65.0 ],
					"presentation" : 1,
					"presentation_rect" : [ 376.0, 281.0, 54.0, 60.0 ],
					"setstyle" : 5,
					"slidercolor" : [ 0.807843137254902, 0.898039215686275, 0.909803921568627, 1.0 ]
				}

			}
, 			{
				"box" : 				{
					"id" : "obj-33",
					"maxclass" : "multislider",
					"numinlets" : 1,
					"numoutlets" : 2,
					"outlettype" : [ "", "" ],
					"parameter_enable" : 0,
					"patching_rect" : [ 388.5, 501.0, 65.0, 65.0 ],
					"presentation" : 1,
					"presentation_rect" : [ 311.0, 281.0, 54.0, 60.0 ],
					"setstyle" : 5,
					"slidercolor" : [ 0.807843137254902, 0.898039215686275, 0.909803921568627, 1.0 ]
				}

			}
, 			{
				"box" : 				{
					"id" : "obj-32",
					"maxclass" : "multislider",
					"numinlets" : 1,
					"numoutlets" : 2,
					"outlettype" : [ "", "" ],
					"parameter_enable" : 0,
					"patching_rect" : [ 299.5, 501.0, 65.0, 65.0 ],
					"presentation" : 1,
					"presentation_rect" : [ 246.0, 281.0, 54.0, 60.0 ],
					"setstyle" : 5,
					"slidercolor" : [ 0.807843137254902, 0.898039215686275, 0.909803921568627, 1.0 ]
				}

			}
, 			{
				"box" : 				{
					"id" : "obj-31",
					"maxclass" : "multislider",
					"numinlets" : 1,
					"numoutlets" : 2,
					"outlettype" : [ "", "" ],
					"parameter_enable" : 0,
					"patching_rect" : [ 211.5, 501.0, 65.0, 65.0 ],
					"presentation" : 1,
					"presentation_rect" : [ 183.0, 281.0, 54.0, 60.0 ],
					"setstyle" : 5,
					"slidercolor" : [ 0.807843137254902, 0.898039215686275, 0.909803921568627, 1.0 ]
				}

			}
, 			{
				"box" : 				{
					"id" : "obj-30",
					"maxclass" : "multislider",
					"numinlets" : 1,
					"numoutlets" : 2,
					"outlettype" : [ "", "" ],
					"parameter_enable" : 0,
					"patching_rect" : [ 124.0, 501.0, 65.0, 65.0 ],
					"presentation" : 1,
					"presentation_rect" : [ 118.0, 281.0, 54.0, 60.0 ],
					"setstyle" : 5,
					"slidercolor" : [ 0.807843137254902, 0.898039215686275, 0.909803921568627, 1.0 ]
				}

			}
, 			{
				"box" : 				{
					"id" : "obj-20",
					"maxclass" : "multislider",
					"numinlets" : 1,
					"numoutlets" : 2,
					"outlettype" : [ "", "" ],
					"parameter_enable" : 0,
					"patching_rect" : [ 36.0, 501.0, 65.0, 65.0 ],
					"presentation" : 1,
					"presentation_rect" : [ 55.0, 281.0, 54.0, 60.0 ],
					"setstyle" : 5,
					"slidercolor" : [ 0.807843137254902, 0.898039215686275, 0.909803921568627, 1.0 ]
				}

			}
 ],
		"lines" : [ 			{
				"patchline" : 				{
					"destination" : [ "obj-10", 0 ],
					"hidden" : 1,
					"midpoints" : [ 133.5, 466.5, 133.5, 466.5 ],
					"source" : [ "obj-1", 1 ]
				}

			}
, 			{
				"patchline" : 				{
					"destination" : [ "obj-11", 0 ],
					"hidden" : 1,
					"midpoints" : [ 221.5, 471.5, 221.0, 471.5 ],
					"source" : [ "obj-1", 2 ]
				}

			}
, 			{
				"patchline" : 				{
					"destination" : [ "obj-12", 0 ],
					"hidden" : 1,
					"midpoints" : [ 309.5, 468.5, 309.0, 468.5 ],
					"source" : [ "obj-1", 3 ]
				}

			}
, 			{
				"patchline" : 				{
					"destination" : [ "obj-13", 0 ],
					"hidden" : 1,
					"midpoints" : [ 397.5, 462.5, 398.0, 462.5 ],
					"source" : [ "obj-1", 4 ]
				}

			}
, 			{
				"patchline" : 				{
					"destination" : [ "obj-14", 0 ],
					"hidden" : 1,
					"midpoints" : [ 485.5, 455.5, 485.0, 455.5 ],
					"source" : [ "obj-1", 5 ]
				}

			}
, 			{
				"patchline" : 				{
					"destination" : [ "obj-9", 0 ],
					"hidden" : 1,
					"midpoints" : [ 45.5, 462.5, 45.5, 462.5 ],
					"source" : [ "obj-1", 0 ]
				}

			}
, 			{
				"patchline" : 				{
					"destination" : [ "obj-24", 0 ],
					"order" : 0,
					"source" : [ "obj-10", 0 ]
				}

			}
, 			{
				"patchline" : 				{
					"destination" : [ "obj-30", 0 ],
					"order" : 1,
					"source" : [ "obj-10", 0 ]
				}

			}
, 			{
				"patchline" : 				{
					"destination" : [ "obj-26", 0 ],
					"order" : 0,
					"source" : [ "obj-11", 0 ]
				}

			}
, 			{
				"patchline" : 				{
					"destination" : [ "obj-31", 0 ],
					"order" : 1,
					"source" : [ "obj-11", 0 ]
				}

			}
, 			{
				"patchline" : 				{
					"destination" : [ "obj-27", 0 ],
					"order" : 0,
					"source" : [ "obj-12", 0 ]
				}

			}
, 			{
				"patchline" : 				{
					"destination" : [ "obj-32", 0 ],
					"order" : 1,
					"source" : [ "obj-12", 0 ]
				}

			}
, 			{
				"patchline" : 				{
					"destination" : [ "obj-28", 0 ],
					"order" : 0,
					"source" : [ "obj-13", 0 ]
				}

			}
, 			{
				"patchline" : 				{
					"destination" : [ "obj-33", 0 ],
					"order" : 1,
					"source" : [ "obj-13", 0 ]
				}

			}
, 			{
				"patchline" : 				{
					"destination" : [ "obj-29", 0 ],
					"order" : 0,
					"source" : [ "obj-14", 0 ]
				}

			}
, 			{
				"patchline" : 				{
					"destination" : [ "obj-34", 0 ],
					"order" : 1,
					"source" : [ "obj-14", 0 ]
				}

			}
, 			{
				"patchline" : 				{
					"destination" : [ "obj-1", 5 ],
					"hidden" : 1,
					"source" : [ "obj-2", 5 ]
				}

			}
, 			{
				"patchline" : 				{
					"destination" : [ "obj-1", 4 ],
					"hidden" : 1,
					"source" : [ "obj-2", 4 ]
				}

			}
, 			{
				"patchline" : 				{
					"destination" : [ "obj-1", 3 ],
					"hidden" : 1,
					"source" : [ "obj-2", 3 ]
				}

			}
, 			{
				"patchline" : 				{
					"destination" : [ "obj-1", 2 ],
					"hidden" : 1,
					"source" : [ "obj-2", 2 ]
				}

			}
, 			{
				"patchline" : 				{
					"destination" : [ "obj-1", 1 ],
					"hidden" : 1,
					"source" : [ "obj-2", 1 ]
				}

			}
, 			{
				"patchline" : 				{
					"destination" : [ "obj-1", 0 ],
					"hidden" : 1,
					"source" : [ "obj-2", 0 ]
				}

			}
, 			{
				"patchline" : 				{
					"destination" : [ "obj-20", 0 ],
					"order" : 1,
					"source" : [ "obj-9", 0 ]
				}

			}
, 			{
				"patchline" : 				{
					"destination" : [ "obj-21", 0 ],
					"order" : 0,
					"source" : [ "obj-9", 0 ]
				}

			}
 ],
		"parameters" : 		{
			"obj-2::obj-19" : [ "phase[1]", "phase[1]", 0 ],
			"obj-29" : [ "phase[24]", "phase[2]", 0 ],
			"obj-2::obj-73" : [ "phase[8]", "phase[8]", 0 ],
			"obj-2::obj-69" : [ "SpectraLFOShape[1]", "Shape", 0 ],
			"obj-2::obj-22" : [ "multiplier[4]", "multiplier", 0 ],
			"obj-2::obj-90" : [ "phase[18]", "phase[18]", 0 ],
			"obj-27" : [ "phase[22]", "phase[2]", 0 ],
			"obj-2::obj-58" : [ "phase[4]", "phase[4]", 0 ],
			"obj-2::obj-188" : [ "ReTriggerA[5]", "Re-Trigger", 0 ],
			"obj-2::obj-14" : [ "flonum[8]", "flonum", 0 ],
			"obj-2::obj-49" : [ "phase[12]", "phase[19]", 0 ],
			"obj-24" : [ "phase[20]", "phase[2]", 0 ],
			"obj-2::obj-34" : [ "phase[2]", "phase[2]", 0 ],
			"obj-2::obj-276" : [ "FreqMode[4]", "FreqMode", 0 ],
			"obj-2::obj-81" : [ "phase[9]", "phase[9]", 0 ],
			"obj-2::obj-12" : [ "SpectraLFOShape[2]", "Shape", 0 ],
			"obj-2::obj-84" : [ "phase[10]", "phase[10]", 0 ],
			"obj-21" : [ "phase[19]", "phase[2]", 0 ],
			"obj-2::obj-17" : [ "flonum[5]", "flonum", 0 ],
			"obj-28" : [ "phase[23]", "phase[2]", 0 ],
			"obj-2::obj-18" : [ "flonum[6]", "flonum", 0 ],
			"obj-2::obj-68" : [ "phase[7]", "phase[7]", 0 ],
			"obj-2::obj-62" : [ "ReTriggerA[6]", "Re-Trigger", 0 ],
			"obj-2::obj-8" : [ "flonum", "flonum", 0 ],
			"obj-2::obj-57" : [ "phase[13]", "phase[20]", 0 ],
			"obj-26" : [ "phase[21]", "phase[2]", 0 ],
			"obj-2::obj-4" : [ "flonum[7]", "flonum", 0 ],
			"obj-2::obj-16" : [ "flonum[4]", "flonum", 0 ],
			"obj-2::obj-50" : [ "phase[3]", "phase[3]", 0 ],
			"obj-2::obj-23" : [ "ReTriggerA[1]", "Re-Trigger", 0 ],
			"obj-2::obj-278" : [ "textbutton[2]", "textbutton[1]", 0 ],
			"obj-2::obj-15" : [ "flonum[3]", "flonum", 0 ],
			"obj-2::obj-10" : [ "flonum[1]", "flonum", 0 ],
			"obj-2::obj-87" : [ "phase[11]", "phase[11]", 0 ],
			"parameterbanks" : 			{

			}
,
			"parameter_overrides" : 			{
				"obj-2::obj-22" : 				{
					"parameter_longname" : "multiplier[4]",
					"parameter_shortname" : "multiplier"
				}

			}

		}
,
		"dependency_cache" : [ 			{
				"name" : "6Grid.maxpat",
				"bootpath" : "~/Documents/Max 8/Projects/Groovin/patchers",
				"patcherrelativepath" : ".",
				"type" : "JSON",
				"implicit" : 1
			}
, 			{
				"name" : "6SynchLFO.maxpat",
				"bootpath" : "~/Documents/Max 8/Projects/Groovin/patchers",
				"patcherrelativepath" : ".",
				"type" : "JSON",
				"implicit" : 1
			}
, 			{
				"name" : "BasicLFO.gendsp",
				"bootpath" : "~/Documents/Max 8/Projects/Groovin/patchers",
				"patcherrelativepath" : ".",
				"type" : "gDSP",
				"implicit" : 1
			}
 ],
		"autosave" : 1,
		"snapshot" : 		{
			"filetype" : "C74Snapshot",
			"version" : 2,
			"minorversion" : 0,
			"name" : "snapshotlist",
			"origin" : "jpatcher",
			"type" : "list",
			"subtype" : "Undefined",
			"embed" : 1,
			"snapshot" : 			{
				"valuedictionary" : 				{
					"parameter_values" : 					{
						"FreqMode[4]" : 0.0,
						"ReTriggerA[1]" : 4.0,
						"ReTriggerA[5]" : 3.0,
						"ReTriggerA[6]" : 5.0,
						"SpectraLFOShape[1]" : 1.0,
						"SpectraLFOShape[2]" : 0.0,
						"flonum" : 1.0,
						"flonum[1]" : 1.0,
						"flonum[3]" : 1.0,
						"flonum[4]" : 1.0,
						"flonum[5]" : 1.0,
						"flonum[6]" : 1.0,
						"flonum[7]" : 1.0,
						"flonum[8]" : 1.0,
						"multiplier[4]" : 2.0,
						"blob" : 						{
							"phase[10]" : [ -1.0 ],
							"phase[11]" : [ 1.0 ],
							"phase[12]" : [ 1.0 ],
							"phase[13]" : [ -1.0 ],
							"phase[18]" : [ -1.0 ],
							"phase[19]" : [ 0.982823519308623 ],
							"phase[1]" : [ -1.0 ],
							"phase[20]" : [ -0.075248979426235 ],
							"phase[21]" : [ 0.812119727723111 ],
							"phase[22]" : [ -0.604785487852038 ],
							"phase[23]" : [ -1.0 ],
							"phase[24]" : [ -0.487484693527222 ],
							"phase[2]" : [ 1.0 ],
							"phase[3]" : [ 1.0 ],
							"phase[4]" : [ -1.0 ],
							"phase[7]" : [ 1.0 ],
							"phase[8]" : [ -1.0 ],
							"phase[9]" : [ 1.0 ],
							"textbutton[2]" : [ 1 ]
						}

					}

				}

			}
,
			"snapshotlist" : 			{
				"current_snapshot" : 0,
				"entries" : [ 					{
						"filetype" : "C74Snapshot",
						"version" : 2,
						"minorversion" : 0,
						"name" : "Max7AnalogLFOs",
						"origin" : "ModMatrix",
						"type" : "patcher",
						"subtype" : "Undefined",
						"embed" : 1,
						"snapshot" : 						{
							"valuedictionary" : 							{
								"parameter_values" : 								{
									"FreqMode[4]" : 0.0,
									"ReTriggerA[1]" : 4.0,
									"ReTriggerA[5]" : 3.0,
									"ReTriggerA[6]" : 5.0,
									"SpectraLFOShape[1]" : 1.0,
									"SpectraLFOShape[2]" : 0.0,
									"flonum" : 1.0,
									"flonum[1]" : 1.0,
									"flonum[3]" : 1.0,
									"flonum[4]" : 1.0,
									"flonum[5]" : 1.0,
									"flonum[6]" : 1.0,
									"flonum[7]" : 1.0,
									"flonum[8]" : 1.0,
									"multiplier[4]" : 2.0,
									"blob" : 									{
										"phase[10]" : [ -1.0 ],
										"phase[11]" : [ 1.0 ],
										"phase[12]" : [ 1.0 ],
										"phase[13]" : [ -1.0 ],
										"phase[18]" : [ -1.0 ],
										"phase[19]" : [ 0.982823519308623 ],
										"phase[1]" : [ -1.0 ],
										"phase[20]" : [ -0.075248979426235 ],
										"phase[21]" : [ 0.812119727723111 ],
										"phase[22]" : [ -0.604785487852038 ],
										"phase[23]" : [ -1.0 ],
										"phase[24]" : [ -0.487484693527222 ],
										"phase[2]" : [ 1.0 ],
										"phase[3]" : [ 1.0 ],
										"phase[4]" : [ -1.0 ],
										"phase[7]" : [ 1.0 ],
										"phase[8]" : [ -1.0 ],
										"phase[9]" : [ 1.0 ],
										"textbutton[2]" : [ 1 ]
									}

								}

							}

						}
,
						"fileref" : 						{
							"name" : "Max7AnalogLFOs",
							"filename" : "Max7AnalogLFOs_20151116.maxsnap",
							"filepath" : "~/Documents/Max 7/Snapshots",
							"filepos" : -1,
							"snapshotfileid" : "75b96b7923e64a9e7f545cc906a8ef0c"
						}

					}
 ]
			}

		}
,
		"bgcolor" : [ 0.0, 0.0, 0.0, 1.0 ]
	}

}
